<svg width="22" height="18" viewBox="0 0 22 18" fill="none" xmlns="http://www.w3.org/2000/svg">
<path fill-rule="evenodd" clip-rule="evenodd" d="M11 0C8.75 0 6.8 0.6 5.15 1.8L6.35 2.85C7.7 1.95 9.2 1.5 11 1.5C15.95 1.5 20 5.55 20 10.5H21.5C21.5 4.65 16.85 0 11 0ZM0.5 1.5L2.9 3.75C1.4 5.55 0.5 7.95 0.5 10.5H2C2 8.25 2.75 6.3 4.1 4.8L7.4 7.8C6.8 8.55 6.5 9.45 6.5 10.5C6.5 13.05 8.45 15 11 15C12.2 15 13.25 14.55 14 13.8L18.5 18L19.55 16.95L1.55 0.45L0.5 1.5ZM8.45 8.85L12.8 12.9C12.35 13.2 11.75 13.5 11 13.5C9.35 13.5 8 12.15 8 10.5C8 9.9 8.15 9.3 8.45 8.85ZM15.5 11.25L14 9.9C13.7 8.7 12.65 7.65 11.3 7.5L9.8 6.15C10.25 6 10.55 6 11 6C13.55 6 15.5 7.95 15.5 10.5V11.25Z" fill="black"/>
</svg>
