<svg width="50" height="38" viewBox="0 0 50 38" fill="none" xmlns="http://www.w3.org/2000/svg">
<g clip-path="url(#clip0_935_605)">
<path d="M14.3765 7.32861H27.8764" stroke="black" stroke-width="1.2" stroke-miterlimit="10"/>
<path d="M14.6123 12.3608H21.4992" stroke="black" stroke-width="1.2" stroke-miterlimit="10"/>
<path d="M8.78809 26.0354V20.4983H13.4451C13.7958 20.4983 14.0752 20.5254 14.2889 20.5851C14.5025 20.6394 14.6669 20.7263 14.7819 20.8349C14.897 20.9434 14.9737 21.0791 15.0121 21.242C15.0504 21.4049 15.0723 21.5949 15.0723 21.8066C15.0723 21.9586 15.0614 22.0943 15.034 22.2137C15.0066 22.3331 14.9737 22.4309 14.9299 22.5177C14.886 22.6046 14.8367 22.6751 14.7819 22.7349C14.7272 22.7946 14.6669 22.8434 14.6121 22.8814C14.4751 22.9737 14.3217 23.0226 14.1464 23.0389C14.3656 23.0497 14.5573 23.104 14.7272 23.1963C14.7984 23.2397 14.8696 23.2886 14.9408 23.3483C15.0121 23.408 15.0723 23.484 15.1271 23.5763C15.1819 23.6686 15.2257 23.7717 15.2586 23.8911C15.2915 24.0106 15.3079 24.1517 15.3079 24.3091C15.3079 24.4991 15.297 24.6783 15.2805 24.8357C15.2641 24.9931 15.2257 25.1397 15.1709 25.2646C15.1162 25.3894 15.034 25.5034 14.9299 25.6011C14.8258 25.6989 14.6888 25.7749 14.5135 25.84C14.3382 25.9051 14.13 25.9486 13.8779 25.9811C13.6259 26.0137 13.3246 26.03 12.9794 26.03H8.78809V26.0354ZM12.7438 22.8054C12.9794 22.8054 13.1876 22.8 13.3574 22.7891C13.5273 22.7783 13.6752 22.762 13.7958 22.7349C13.9163 22.7077 14.0149 22.6697 14.0916 22.6263C14.1683 22.5774 14.2231 22.5177 14.2669 22.4417C14.3108 22.3657 14.3382 22.2789 14.3546 22.1757C14.371 22.0726 14.3765 21.9477 14.3765 21.8011C14.3765 21.6491 14.3601 21.5243 14.3272 21.4266C14.2943 21.3289 14.2341 21.2583 14.1464 21.204C14.0587 21.1497 13.9382 21.1171 13.7903 21.1009C13.6423 21.0846 13.4506 21.0737 13.215 21.0737H9.48938V22.8054H12.7438ZM12.7438 25.4546C13.0178 25.4546 13.2479 25.4491 13.4506 25.4437C13.6478 25.4329 13.8177 25.4166 13.9546 25.3894C14.0916 25.3623 14.2067 25.3243 14.2889 25.27C14.371 25.2157 14.4423 25.1506 14.4861 25.0637C14.5354 24.9769 14.5628 24.8737 14.5847 24.7543C14.6011 24.6294 14.6121 24.4829 14.6121 24.3091C14.6121 24.1734 14.6011 24.0594 14.5847 23.9563C14.5683 23.8586 14.5354 23.7717 14.4861 23.7066C14.4368 23.636 14.371 23.5817 14.2889 23.5383C14.2067 23.4949 14.0916 23.4623 13.9546 23.4406C13.8177 23.4189 13.6478 23.4026 13.4506 23.3917C13.2533 23.3809 13.0178 23.3809 12.7438 23.3809H9.48938V25.4546H12.7438Z" fill="black"/>
<path d="M18.4254 21.8826V24.168C18.4254 24.4231 18.4473 24.6349 18.4857 24.814C18.524 24.9877 18.6007 25.1289 18.7213 25.2374C18.8363 25.346 19.0007 25.422 19.2144 25.4709C19.428 25.5197 19.7075 25.5414 20.0581 25.5414C20.4362 25.5414 20.7484 25.5143 20.9895 25.46C21.2306 25.4057 21.4223 25.3297 21.5593 25.2266C21.6963 25.1289 21.7949 25.004 21.8442 24.8683C21.899 24.7271 21.9209 24.5697 21.9209 24.4014V21.888H22.6167V26.0409H21.9209V25.3134C21.888 25.3894 21.8278 25.4763 21.7511 25.5686C21.6744 25.6609 21.5484 25.7477 21.3895 25.8291C21.2306 25.9106 21.0224 25.9757 20.7704 26.03C20.5183 26.0843 20.2006 26.1114 19.828 26.1114C19.5157 26.1114 19.2472 26.0951 19.0226 26.0571C18.798 26.0191 18.6062 25.9649 18.4528 25.8889C18.2939 25.8183 18.1734 25.726 18.0748 25.6174C17.9816 25.5089 17.9049 25.384 17.8556 25.2429C17.8063 25.1017 17.7734 24.9389 17.7515 24.7651C17.7351 24.5914 17.7241 24.396 17.7241 24.1897L17.7296 21.8826H18.4254Z" fill="black"/>
<path d="M29.2299 26.0355V23.7284C29.2299 23.4732 29.208 23.2561 29.1696 23.077C29.1313 22.8978 29.0546 22.7567 28.9395 22.6481C28.8245 22.5395 28.6601 22.4635 28.4464 22.4147C28.2327 22.3658 27.9533 22.3441 27.6027 22.3441C27.2246 22.3441 26.9123 22.3712 26.6713 22.4255C26.4302 22.4798 26.2384 22.5612 26.1015 22.659C25.9645 22.7621 25.8659 22.8815 25.8166 23.0227C25.7618 23.1638 25.7399 23.3212 25.7399 23.495V26.0301H25.0386V21.8772H25.7344V22.5667C25.7837 22.4472 25.8604 22.3495 25.9535 22.2627C26.0467 22.1758 26.1563 22.1052 26.2713 22.0455C26.3919 21.9858 26.5179 21.937 26.6548 21.899C26.7918 21.861 26.9288 21.8338 27.0712 21.8121C27.2082 21.7904 27.3452 21.7795 27.4712 21.7687C27.6027 21.7632 27.7177 21.7578 27.8273 21.7578C28.1396 21.7578 28.4026 21.7795 28.6272 21.8175C28.8519 21.8555 29.0436 21.9152 29.197 21.9858C29.3559 22.0618 29.4764 22.1541 29.5751 22.2627C29.6682 22.3712 29.7449 22.5015 29.7942 22.6481C29.849 22.7947 29.8819 22.9575 29.8983 23.1367C29.9148 23.3158 29.9257 23.5112 29.9257 23.723L29.9202 26.0301H29.2299V26.0355Z" fill="black"/>
<path d="M32.3525 20.4983H33.0484V23.5274H33.2785L35.8426 21.8826H36.889L33.9195 23.8151L37.0041 26.0354H35.9576L33.2785 24.0486H33.0484V26.0354H32.3525V20.4983Z" fill="black"/>
<path d="M41.0586 26.1115C40.5929 26.1115 40.1984 26.0789 39.8752 26.0138C39.5519 25.9486 39.2835 25.84 39.0808 25.6826C38.878 25.5252 38.7301 25.3189 38.637 25.0529C38.5438 24.7923 38.5 24.4612 38.5 24.0649C38.5 23.6089 38.5438 23.2343 38.637 22.9412C38.7301 22.6426 38.878 22.4092 39.0808 22.2355C39.2835 22.0618 39.5465 21.9369 39.8752 21.8663C40.1984 21.7958 40.5929 21.7632 41.0586 21.7632C41.3928 21.7632 41.6777 21.7849 41.9243 21.8338C42.1654 21.8826 42.379 21.9532 42.5489 22.0455C42.7242 22.1378 42.8612 22.2463 42.9707 22.3766C43.0803 22.5069 43.1625 22.6426 43.2228 22.7838C43.283 22.9249 43.3269 23.0932 43.3488 23.2886C43.3707 23.4786 43.3817 23.6849 43.3817 23.8966L43.3214 24.1246H39.1903C39.1903 24.434 39.2232 24.6892 39.2835 24.8846C39.3492 25.08 39.4533 25.2266 39.5958 25.3189C39.7437 25.4112 39.9355 25.4709 40.1711 25.4926C40.4066 25.5198 40.7025 25.5306 41.0531 25.5306C41.3709 25.5306 41.6394 25.5198 41.8476 25.5035C42.0558 25.4872 42.2256 25.4546 42.3462 25.4058C42.4722 25.3569 42.5544 25.2918 42.6037 25.2049C42.653 25.118 42.6804 25.0095 42.6804 24.8738H43.3762C43.3762 25.0963 43.3378 25.2863 43.2556 25.4438C43.1789 25.6012 43.0474 25.726 42.8666 25.8238C42.6858 25.9215 42.4448 25.992 42.1489 26.0355C41.864 26.0898 41.4969 26.1115 41.0586 26.1115ZM41.0586 22.344C40.8285 22.344 40.6203 22.3495 40.434 22.3603C40.2532 22.3712 40.0889 22.3929 39.9519 22.4255C39.8149 22.458 39.6999 22.5069 39.6013 22.5666C39.5026 22.6263 39.4259 22.7023 39.3657 22.7838C39.3054 22.8652 39.2616 22.9846 39.2342 23.1312C39.2068 23.2832 39.1903 23.4623 39.1903 23.674H42.6804C42.6804 23.3918 42.6475 23.1746 42.5872 23.0118C42.527 22.8543 42.4283 22.7186 42.3023 22.6155C42.1708 22.5123 42.001 22.4418 41.7983 22.4038C41.601 22.3603 41.349 22.344 41.0586 22.344Z" fill="black"/>
<path d="M49.4136 23.2343C49.4136 23.0606 49.4026 22.9195 49.3752 22.8055C49.3478 22.6915 49.2876 22.5992 49.1944 22.534C49.1013 22.4689 48.9588 22.42 48.7725 22.3875C48.5863 22.3603 48.3342 22.344 48.0165 22.344C47.7042 22.344 47.4467 22.3712 47.2549 22.4255C47.0577 22.4798 46.9043 22.5558 46.7947 22.6535C46.6851 22.7512 46.6084 22.8706 46.57 23.0063C46.5317 23.142 46.5098 23.294 46.5098 23.4623V26.03H45.814V21.8772H46.5098V22.534C46.5317 22.458 46.581 22.3766 46.6467 22.2898C46.7125 22.1975 46.8111 22.116 46.9426 22.04C47.0741 21.964 47.2494 21.8989 47.4631 21.8446C47.6768 21.7903 47.9398 21.7632 48.2575 21.7632C48.6191 21.7632 48.915 21.7958 49.1451 21.8609C49.3752 21.926 49.5505 22.0183 49.6766 22.1432C49.8026 22.268 49.8902 22.42 49.9341 22.6046C49.9779 22.7892 49.9998 22.9955 49.9998 23.2343H49.4136Z" fill="black"/>
<path d="M5.99934 20.5798H0V21.2964H5.99934V20.5798Z" fill="#989898"/>
<path d="M4.55283 22.8379H0.104004V23.5545H4.55283V22.8379Z" fill="#989898"/>
<path d="M5.99934 25.2971H0V26.0137H5.99934V25.2971Z" fill="#989898"/>
<path d="M40.1269 29.7432V37.7286H9.44531V29.7432" stroke="black" stroke-width="1.2" stroke-miterlimit="10"/>
<path d="M9.44531 17.1001V0.271484H40.1269V17.1001" stroke="black" stroke-width="1.2" stroke-miterlimit="10"/>
</g>
<defs>
<clipPath id="clip0_935_605">
<rect width="50" height="38" fill="white"/>
</clipPath>
</defs>
</svg>
