<svg width="22" height="17" viewBox="0 0 22 17" fill="none" xmlns="http://www.w3.org/2000/svg">
<path d="M3.51661 2.65604C8.36818 0.284351 13.2071 0.137591 18.0734 2.59218C16.8154 1.49652 15.3588 0.847865 13.8483 0.313479C13.8419 0.261945 13.8356 0.211531 13.8292 0.159997C13.9856 0.103982 14.1472 -0.0114093 14.2982 0.000914032C16.0654 0.153276 17.6583 0.833301 19.0928 1.95585C19.2375 2.069 19.3632 2.24377 19.4413 2.41965C21.0036 5.89708 21.9067 9.55936 21.9997 13.4379C22.0071 13.7527 21.8782 14.1392 21.6902 14.3789C20.3561 16.0851 18.5921 16.8313 16.5809 16.978C16.4425 16.9881 16.2492 16.9511 16.1658 16.8514C15.7908 16.4011 15.4454 15.9216 15.0493 15.3995C16.3358 14.9234 17.4587 14.3005 18.2699 13.1477C13.4912 16.0325 8.71359 15.9507 3.91483 13.1936C4.69438 14.2904 5.74223 14.9099 6.9876 15.3681C6.58198 15.9025 6.20383 16.4179 5.80349 16.913C5.74117 16.9903 5.58272 17.006 5.47076 16.9982C3.3983 16.866 1.59943 16.0874 0.24631 14.3083C0.0984289 14.1145 -0.00508827 13.8109 0.000193219 13.5611C0.0762466 9.6221 0.993113 5.90604 2.58073 2.37932C2.66629 2.18999 2.82368 2.01634 2.98635 1.89423C4.3796 0.848985 5.90173 0.174561 7.59814 0.0132374C7.7587 -0.00244688 7.92454 0.0434856 8.09671 0.137591C6.45734 0.784007 4.86444 1.473 3.51661 2.65604ZM5.55526 9.80807C5.56371 11.0426 6.42565 12.0397 7.48406 12.0397C8.55726 12.0397 9.43187 11.0068 9.42131 9.75093C9.4118 8.51523 8.55092 7.52601 7.48406 7.52377C6.39924 7.52377 5.54681 8.53204 5.55526 9.80807ZM12.4476 9.75765C12.4413 11.0068 13.281 12.0218 14.3373 12.0408C15.4253 12.0599 16.3094 11.046 16.3052 9.7823C16.302 8.54548 15.4369 7.53161 14.3806 7.52488C13.3127 7.51816 12.455 8.50963 12.4476 9.75765Z" fill="white"/>
</svg>
