<svg width="20" height="21" viewBox="0 0 20 21" fill="none" xmlns="http://www.w3.org/2000/svg">
<path fill-rule="evenodd" clip-rule="evenodd" d="M13.53 2.655V4.995L15.03 3.51V0.75L14.28 0H0.78L0.03 0.75V1.479L0 1.5V16.935L0.54 17.625L8.04 20.205L9 19.5V18H14.28L15.03 17.25V14.535L13.53 13.035V16.5H9V4.065L8.505 3.375L3.054 1.5H13.53V2.655ZM7.5 18.42L1.5 16.41V2.58L7.5 4.59V18.42ZM17.28 9.72H9.825V8.22H17.22L14.82 5.82L15.885 4.77L19.59 8.46V9.525L15.855 13.245L14.805 12.195L17.28 9.72Z" fill="#0ACF83"/>
</svg>
