<svg width="22" height="22" viewBox="0 0 22 22" fill="none" xmlns="http://www.w3.org/2000/svg">
<path fill-rule="evenodd" clip-rule="evenodd" d="M11.9009 0.500039C14.3009 0.650039 16.5509 1.85004 18.2009 3.50004C20.1509 5.60004 21.2009 8.15004 21.2009 11.15C21.2009 13.55 20.3009 15.8 18.8009 17.75C17.3009 19.55 15.2009 20.9 12.8009 21.35C10.4009 21.8 8.00091 21.5 5.90091 20.3C3.80091 19.1 2.15091 17.3 1.25091 15.05C0.350912 12.8 0.200912 10.25 0.950912 8.00004C1.70091 5.60004 3.05091 3.65004 5.15091 2.30004C7.10091 0.950039 9.50091 0.350039 11.9009 0.500039ZM12.6509 19.85C14.6009 19.4 16.4009 18.35 17.7509 16.7C18.9509 15.05 19.7009 13.1 19.5509 11C19.5509 8.60004 18.6509 6.20004 17.0009 4.55004C15.5009 3.05004 13.7009 2.15004 11.6009 2.00004C9.65091 1.85004 7.55091 2.30004 5.90091 3.50004C4.25091 4.70004 3.05091 6.35004 2.45091 8.45004C1.85091 10.4 1.85091 12.5 2.75091 14.45C3.65091 16.4 5.00091 17.9 6.80091 18.95C8.60091 20 10.7009 20.3 12.6509 19.85ZM10.8509 10.25L14.4509 6.50004L15.5009 7.55004L11.9009 11.3L15.5009 15.05L14.4509 16.1L10.8509 12.35L7.25091 16.1L6.20091 15.05L9.80091 11.3L6.20091 7.55004L7.25091 6.50004L10.8509 10.25Z" fill="#F24E1E"/>
</svg>
