<svg width="24" height="24" viewBox="0 0 24 24" fill="none" xmlns="http://www.w3.org/2000/svg">
<path d="M12.1003 5.7984e-05C12.4948 5.7984e-05 12.8803 0.025558 13.2403 0.085558C13.5949 0.132017 13.9447 0.20931 14.2858 0.316558C14.6293 0.420058 14.9638 0.549058 15.2983 0.711058C15.6238 0.865558 15.9583 1.05456 16.2913 1.26006C16.8272 1.60376 17.3924 1.89941 17.9803 2.14356C19.097 2.59054 20.2778 2.85638 21.4783 2.93106C22.0858 2.97456 22.7113 3.00006 23.3638 3.00006V9.00006C23.3638 10.1401 23.2183 11.2201 22.9258 12.2491C22.6468 13.2633 22.2501 14.2415 21.7438 15.1636C21.2388 16.0844 20.6412 16.9514 19.9603 17.7511C19.2701 18.569 18.5227 19.3369 17.7238 20.0491C16.9138 20.7633 16.0607 21.427 15.1693 22.0366C14.2783 22.6546 13.3783 23.2291 12.4783 23.7511L12.1183 23.9656L11.7583 23.7511C10.8331 23.2154 9.92942 22.6435 9.04932 22.0366C8.15291 21.4339 7.29937 20.7698 6.49482 20.0491C5.6959 19.3369 4.94852 18.569 4.25832 17.7511C3.57935 16.9479 2.97909 16.0815 2.46582 15.1636C1.96824 14.2374 1.57195 13.2602 1.28382 12.2491C0.990979 11.1912 0.846598 10.0977 0.854825 9.00006V3.00006C1.50582 3.00006 2.13132 2.97456 2.74032 2.93106C3.34032 2.88949 3.93643 2.80376 4.52382 2.67456C5.09832 2.54556 5.67132 2.37456 6.23832 2.14356C6.82513 1.90673 7.38773 1.61387 7.91832 1.26906C8.57832 0.840058 9.24583 0.523558 9.90583 0.315058C10.6166 0.0971554 11.3569 -0.00910928 12.1003 5.7984e-05ZM21.8548 4.47456C20.7194 4.41945 19.5945 4.22962 18.5038 3.90906C17.4189 3.58544 16.3856 3.10917 15.4348 2.49456C14.9407 2.17062 14.4041 1.91671 13.8403 1.74006C13.2791 1.57046 12.6956 1.48651 12.1093 1.49106C11.5172 1.48708 10.9278 1.571 10.3603 1.74006C9.79725 1.91133 9.26287 2.16563 8.77483 2.49456C7.82249 3.11303 6.78646 3.59189 5.69833 3.91656C4.63482 4.22556 3.52032 4.41456 2.35483 4.48356V9.00906C2.35483 10.0036 2.48382 10.9546 2.74032 11.8711C3.00316 12.7796 3.36535 13.6564 3.82032 14.4856C4.28075 15.3234 4.82342 16.1133 5.44032 16.8436C6.06582 17.5801 6.73483 18.2656 7.45482 18.9166C8.17482 19.5691 8.92933 20.1691 9.71833 20.7256C10.5148 21.2836 11.3113 21.7891 12.1093 22.2511C12.9244 21.7762 13.7191 21.2673 14.4913 20.7256C15.2861 20.1709 16.0451 19.5667 16.7638 18.9166C17.4838 18.2656 18.1513 17.5801 18.7783 16.8436C19.3952 16.1132 19.9379 15.3233 20.3983 14.4856C20.8506 13.6573 21.2069 12.7801 21.4603 11.8711C21.7267 10.9405 21.8595 9.97692 21.8548 9.00906V4.47456Z" fill="black"/>
<path fill-rule="evenodd" clip-rule="evenodd" d="M14.1499 7.07995C14.4064 7.33645 14.6209 7.64545 14.7664 7.98895C14.9209 8.33095 14.9989 8.70895 14.9899 9.11995C14.9992 9.44828 14.941 9.77503 14.8189 10.08C14.7037 10.3374 14.5566 10.5793 14.3809 10.8C14.2223 11.0076 14.0445 11.2 13.8499 11.3745C13.6733 11.5257 13.5046 11.6859 13.3444 11.8545C13.2024 11.9967 13.0812 12.1583 12.9844 12.3345C12.8969 12.4943 12.8524 12.6742 12.8554 12.8565V13.3965L12.6589 13.6035H11.5864L11.3719 13.389V12.855C11.3719 12.495 11.4319 12.18 11.5519 11.904C11.6644 11.6385 11.8009 11.3895 11.9719 11.175C12.1399 10.9701 12.3234 10.7785 12.5209 10.602C12.7009 10.4385 12.8644 10.284 13.0189 10.122C13.1644 9.96745 13.2919 9.80395 13.3864 9.63295C13.4751 9.47026 13.5196 9.28718 13.5154 9.10195C13.5133 8.91651 13.4757 8.73319 13.4044 8.56195C13.3331 8.39562 13.2313 8.24404 13.1044 8.11495C12.8406 7.8548 12.485 7.70895 12.1144 7.70895C11.7439 7.70895 11.3883 7.8548 11.1244 8.11495C10.9948 8.24176 10.8927 8.39393 10.8244 8.56195C10.747 8.73126 10.7085 8.9158 10.7119 9.10195L10.5004 9.31495H9.42795L9.23145 9.10945C9.23145 8.71495 9.30045 8.33845 9.45345 7.98745C9.60795 7.64395 9.81345 7.33495 10.0714 7.07845C10.3369 6.81295 10.6459 6.59845 10.9879 6.45295C11.3436 6.29815 11.7273 6.21826 12.1152 6.21826C12.5031 6.21826 12.8868 6.29815 13.2424 6.45295C13.5859 6.60745 13.8934 6.81295 14.1514 7.07845L14.1499 7.07995ZM11.3554 14.469L11.5699 14.2545H12.6409L12.8554 14.469V15.54L12.6409 15.7545H11.5699L11.3554 15.54V14.469Z" fill="black"/>
</svg>
