<svg width="30" height="42" viewBox="0 0 30 42" fill="none" xmlns="http://www.w3.org/2000/svg">
<path d="M8.47092 33.2179L13.7815 26.6952C14.301 26.0987 15.1861 26.041 15.7826 26.5413C15.8403 26.5798 15.8788 26.6375 15.9365 26.6952L21.2471 33.2179C21.6126 33.6797 21.6126 34.4301 21.2471 34.9881L15.9365 41.5109C15.417 42.1074 14.5319 42.1651 13.9354 41.6456C13.8777 41.6071 13.8392 41.5494 13.8007 41.5109L8.49017 34.9881C8.10534 34.4301 8.10534 33.6797 8.47092 33.2179Z" fill="#72C7FB"/>
<path d="M24.1525 10.7445C23.6329 10.148 22.7479 10.0903 22.1514 10.5906C22.0937 10.629 22.0552 10.6868 21.9975 10.7445L16.6869 17.2672C16.3213 17.729 16.3213 18.4794 16.6869 19.0374L21.9975 25.5602C22.517 26.1566 23.4021 26.2144 23.9985 25.6949C24.0563 25.6564 24.0947 25.5987 24.1332 25.5602L29.4438 19.0374C29.8094 18.5756 29.8094 17.8252 29.4438 17.2672L24.1525 10.7445ZM7.73975 10.7445C7.22024 10.148 6.33515 10.0903 5.73867 10.5906C5.68095 10.629 5.64247 10.6868 5.58474 10.7445L0.274186 17.2672C-0.0913955 17.729 -0.0913955 18.4794 0.274186 19.0374L5.58474 25.5602C6.10426 26.1566 6.98935 26.2144 7.58583 25.6949C7.64355 25.6564 7.68203 25.5987 7.72051 25.5602L13.0311 19.0374C13.3967 18.5756 13.3967 17.8252 13.0311 17.2672L7.73975 10.7445ZM21.2663 7.0117L15.9557 0.488946C15.4362 -0.10753 14.5511 -0.165253 13.9546 0.354258C13.8969 0.392741 13.8584 0.450464 13.82 0.488946L8.5094 7.0117C8.14382 7.47349 8.14382 8.22389 8.5094 8.78188L13.82 15.3046C14.3395 15.9011 15.2246 15.9588 15.821 15.4586C15.8788 15.4201 15.9172 15.3624 15.975 15.3046L21.2855 8.78188C21.6319 8.30086 21.6319 7.56969 21.2663 7.0117Z" fill="#1BA5F8"/>
</svg>
