<svg width="30" height="42" viewBox="0 0 30 42" fill="none" xmlns="http://www.w3.org/2000/svg">
<path fill-rule="evenodd" clip-rule="evenodd" d="M14.7931 0L25.2517 16.2722L14.7931 22.3266L4.33453 16.2722L14.7931 0ZM7.53465 15.4984L14.7931 4.21014L22.0516 15.4996L14.7931 19.6994L7.53465 15.4996V15.4984Z" fill="black"/>
<path d="M14.784 25.905L2.65113 18.8828L2.32359 19.3941C0.51202 22.2134 -0.277523 25.5688 0.0867998 28.9C0.451123 32.2313 1.94726 35.3367 4.32537 37.6978C10.0968 43.4349 19.4609 43.4349 25.2425 37.6978C27.6246 35.339 29.1235 32.2332 29.4879 28.9008C29.8524 25.5683 29.0603 22.2119 27.2443 19.3941L26.9168 18.8828L14.784 25.905Z" fill="black"/>
</svg>
