<svg width="45" height="42" viewBox="0 0 45 42" fill="none" xmlns="http://www.w3.org/2000/svg">
<path fill-rule="evenodd" clip-rule="evenodd" d="M17.5024 1.54619C17.3714 0.772719 18.4604 0.460084 18.7596 1.18524L19.3431 2.5992C19.3614 2.64336 19.3753 2.68808 19.3851 2.73293C20.7844 2.39554 22.194 2.22561 23.5899 2.21242C23.5885 2.16626 23.591 2.11924 23.5981 2.07172L23.8205 0.56215C23.9351 -0.213938 25.0672 -0.174763 25.1278 0.607379L25.2457 2.12873C25.2492 2.17679 25.2486 2.22402 25.244 2.27012C26.6637 2.38271 28.0586 2.65636 29.4029 3.07941C29.4159 3.03514 29.4328 2.99129 29.4543 2.94829L30.1338 1.57873C30.4823 0.875991 31.5469 1.26314 31.3629 2.0257L31.0041 3.51191C30.9928 3.55849 30.9777 3.60303 30.959 3.64522C32.2655 4.18597 33.5103 4.87282 34.6674 5.694C34.6929 5.65726 34.7219 5.62211 34.7542 5.58899L35.8236 4.49639C36.3724 3.93579 37.2652 4.63302 36.8545 5.30138L36.0542 6.60386C36.0302 6.64259 36.0038 6.67838 35.975 6.7113C37.1508 7.71258 38.2119 8.86625 39.124 10.1573C39.1216 10.0325 39.121 9.90856 39.1201 9.78678V9.76527C39.1174 9.14633 39.6772 8.67056 40.3113 8.58188C40.6144 8.5417 40.9223 8.60318 41.1866 8.75673C41.4512 8.91028 41.6572 9.14724 41.7724 9.43046C42.1336 10.3487 42.1944 11.3577 41.9467 12.3127C41.9262 12.3989 41.9025 12.485 41.8755 12.5826C41.8652 12.6197 41.8545 12.6585 41.8432 12.6996C42.7704 13.2222 43.4973 14.0382 43.9094 15.0192C44.241 15.8092 43.9266 16.6161 43.1965 16.9365C42.8202 17.0982 42.4519 17.0555 42.1144 16.8787C42.4125 18.1918 42.5642 19.5127 42.5778 20.8216C42.6169 20.8215 42.6563 20.8243 42.6963 20.8302L44.2058 21.0528C44.9821 21.1671 44.9427 22.2995 44.1604 22.36L42.6394 22.4777C42.5994 22.4808 42.56 22.4808 42.5215 22.4781C42.4101 23.8997 42.1372 25.2967 41.7143 26.6431C41.7499 26.6548 41.7852 26.6692 41.8198 26.6863L43.1894 27.3658C43.892 27.7146 43.505 28.7793 42.7423 28.595L41.2562 28.2363C41.2189 28.2273 41.1831 28.2158 41.1484 28.202C40.6073 29.5106 39.9199 30.7575 39.0976 31.9167C39.126 31.9377 39.153 31.9609 39.1791 31.9863L40.2716 33.0557C40.8322 33.6045 40.135 34.4976 39.4665 34.0866L38.1642 33.2863C38.134 33.2679 38.1055 33.2474 38.0789 33.2258C37.1677 34.2961 36.13 35.2713 34.9776 36.1253C34.9969 36.1534 35.015 36.1827 35.0313 36.2139L35.7383 37.5656C36.1022 38.2608 35.1628 38.8946 34.6541 38.2972L33.665 37.136C33.6422 37.109 33.6214 37.0815 33.6027 37.0524C32.6291 37.6483 31.5872 38.1633 30.4823 38.5855C30.2405 38.6777 29.9978 38.7651 29.7548 38.8469C29.7646 38.8789 29.7723 38.9121 29.7782 38.9459L30.0336 40.4541C30.1643 41.2275 29.0755 41.5401 28.7763 40.8147L28.1928 39.401C28.18 39.3699 28.1692 39.3382 28.1606 39.3068C26.758 39.6452 25.3452 39.8155 23.9462 39.8286C23.9455 39.8615 23.9428 39.895 23.9378 39.9287L23.7153 41.4379C23.6008 42.2139 22.4687 42.1748 22.4081 41.3925L22.2904 39.8718C22.2877 39.8375 22.2873 39.8034 22.289 39.7702C20.8663 39.6567 19.4684 39.3817 18.1215 38.9565C18.1105 38.9888 18.0972 39.0208 18.0816 39.0522L17.4022 40.4215C17.0536 41.1241 15.9888 40.7371 16.173 39.9744L16.5317 38.4887C16.5401 38.454 16.5506 38.4205 16.563 38.3882C15.2549 37.8451 14.0086 37.1555 12.8505 36.3309C12.8296 36.3587 12.8067 36.3857 12.7816 36.4115L11.7123 37.5037C11.1635 38.0643 10.2705 37.3671 10.6813 36.6989L11.4817 35.3966C11.5004 35.3658 11.5209 35.3374 11.5428 35.3104C10.4742 34.3977 9.50118 33.3589 8.64895 32.2053C8.61926 32.2266 8.5877 32.2459 8.55431 32.2637L7.20243 32.9707C6.50731 33.3343 5.87347 32.395 6.47066 31.8865L7.63203 30.8971C7.66151 30.8719 7.69224 30.8494 7.72398 30.8295C7.25755 30.0647 6.84081 29.2576 6.47969 28.4112L3.8254 31.9297C3.53371 32.3164 2.96562 32.3582 2.65525 31.9863C0.0820808 28.9037 -0.186788 24.7476 0.08363 22.3074C0.139052 21.8072 0.663985 21.5309 1.1276 21.7264L5.11455 23.4085C5.01857 22.6636 4.96831 21.919 4.96218 21.1784C4.92182 21.1788 4.88087 21.1761 4.83951 21.17L3.33011 20.9474C2.55403 20.833 2.5932 19.7007 3.37536 19.6402L4.89649 19.5224C4.93904 19.5192 4.98097 19.5193 5.02198 19.5225C5.13644 18.1022 5.41213 16.7067 5.83737 15.362C5.79645 15.3495 5.75592 15.3335 5.71615 15.3137L4.34668 14.6343C3.64394 14.2857 4.0311 13.2209 4.79367 13.405L6.27971 13.7639C6.32366 13.7745 6.3657 13.7885 6.40573 13.8056C6.94849 12.4998 7.63733 11.2556 8.46047 10.0994C8.42429 10.0744 8.38959 10.0458 8.35687 10.0138L7.26436 8.94436C6.70374 8.39561 7.40096 7.50261 8.0693 7.91336L9.37175 8.71385C9.41069 8.7378 9.44672 8.76447 9.47979 8.79344C10.391 7.72648 11.4279 6.75474 12.5793 5.9034C12.5516 5.86737 12.5266 5.82841 12.5047 5.78657L11.7975 4.43449C11.4339 3.73936 12.373 3.10552 12.8817 3.70271L13.8711 4.86426C13.9022 4.90083 13.9294 4.93929 13.9526 4.97914C14.922 4.38737 15.9589 3.87543 17.058 3.4554C17.3025 3.36198 17.5478 3.27397 17.7937 3.19136C17.778 3.14774 17.7659 3.10205 17.7578 3.05449L17.5024 1.54619ZM8.64335 26.8013C11.8359 35.156 21.1965 39.3406 29.5509 36.1481C37.8276 32.9852 42.0116 23.7684 38.9844 15.4736C37.9808 16.3165 36.7769 17.0802 35.3768 17.5934C32.2356 18.7447 29.8369 19.2463 27.8125 19.4448C25.5107 22.6108 21.5968 23.9316 19.703 24.2036L19.9443 19.4627C18.7112 19.5141 17.3862 19.6764 15.8367 20.0744C12.9272 20.8219 10.2171 22.0409 7.75725 23.4565C7.92897 24.5779 8.22187 25.6984 8.64335 26.8013ZM12.7708 27.2079C11.995 27.346 11.2541 26.8289 11.1161 26.0532C10.978 25.2773 11.495 24.5364 12.2708 24.3983C13.0466 24.2603 13.7875 24.7773 13.9255 25.5532C14.0636 26.329 13.5466 27.0699 12.7708 27.2079ZM19.3488 27.3804C18.8425 27.4706 18.359 27.1331 18.2688 26.6266C18.1787 26.1204 18.5162 25.6368 19.0225 25.5467C19.5288 25.4565 20.0124 25.794 20.1025 26.3005C20.1926 26.8067 19.8551 27.2903 19.3488 27.3804ZM27.7013 27.054C27.195 27.1442 26.7115 26.8067 26.6214 26.3005C26.5312 25.794 26.8686 25.3104 27.3749 25.2205C27.8814 25.1303 28.3649 25.4678 28.4549 25.9741C28.545 26.4803 28.2076 26.9639 27.7013 27.054ZM29.4405 31.5146C29.5308 32.0207 30.0141 32.3582 30.5205 32.2681C31.0269 32.1781 31.3641 31.6945 31.274 31.1881C31.1842 30.682 30.7006 30.3445 30.194 30.4345C29.6878 30.5246 29.3503 31.0082 29.4405 31.5146ZM19.6793 33.7882C19.173 33.8783 18.6894 33.5408 18.5993 33.0347C18.5092 32.5283 18.8467 32.0447 19.353 31.9546C19.8593 31.8646 20.3428 32.2021 20.4329 32.7082C20.5231 33.2149 20.1856 33.6981 19.6793 33.7882ZM14.6537 29.8523C14.7438 30.359 15.2273 30.6962 15.7336 30.6061C16.24 30.516 16.5774 30.0324 16.4873 29.526C16.3972 29.0197 15.9137 28.6824 15.4073 28.7724C14.901 28.8625 14.5636 29.3461 14.6537 29.8523ZM23.7462 30.1524C23.2398 30.2425 22.7564 29.905 22.6663 29.3987C22.5761 28.8924 22.9136 28.4088 23.4199 28.3187C23.9261 28.2285 24.4097 28.566 24.4998 29.0725C24.59 29.5788 24.2525 30.0624 23.7462 30.1524ZM31.6954 26.343C31.8335 27.1189 32.5742 27.6359 33.35 27.4979C34.126 27.3598 34.6428 26.6189 34.5047 25.8432C34.3669 25.0673 33.6259 24.5504 32.8501 24.6884C32.0744 24.8265 31.5573 25.5673 31.6954 26.343ZM23.7087 33.5749C23.8468 34.3509 24.5877 34.8677 25.3636 34.7296C26.1393 34.5918 26.6562 33.8507 26.5182 33.075C26.3801 32.2992 25.6392 31.7822 24.8636 31.9203C24.0877 32.0583 23.5707 32.7991 23.7087 33.5749ZM34.6179 11.6814C34.9036 12.936 34.1628 14.1743 32.9639 14.4472C31.765 14.7201 30.5614 13.9242 30.276 12.6696C29.9904 11.415 30.7309 10.1767 31.9301 9.90379C33.1289 9.63089 34.3323 10.4267 34.6179 11.6814Z" fill="url(#paint0_linear_53_26285)"/>
<defs>
<linearGradient id="paint0_linear_53_26285" x1="26.2238" y1="-2.4322e-06" x2="44.612" y2="29.9142" gradientUnits="userSpaceOnUse">
<stop offset="0.0677083" stop-color="#874FFF"/>
<stop offset="0.463542" stop-color="#36AFE2"/>
<stop offset="0.859375" stop-color="#41FF54"/>
</linearGradient>
</defs>
</svg>
