<svg width="38" height="42" viewBox="0 0 38 42" fill="none" xmlns="http://www.w3.org/2000/svg">
<g clip-path="url(#clip0_58_26509)">
<path d="M32.2249 42H5.97493C4.44417 41.9972 2.97689 41.3879 1.89447 40.3055C0.812052 39.2231 0.202727 37.7558 0.199951 36.225V5.77511C0.202727 4.24434 0.812052 2.77706 1.89447 1.69464C2.97689 0.612224 4.44417 0.00289881 5.97493 0.00012315H27.1534C27.6334 -0.00381827 28.1096 0.086885 28.5546 0.267049C28.9996 0.447213 29.4047 0.713306 29.7469 1.05012L37.5273 8.8306C37.6793 8.97955 37.7996 9.15776 37.8808 9.35447C37.962 9.55117 38.0025 9.7623 37.9998 9.97509V36.225C37.9971 37.7558 37.3877 39.2231 36.3053 40.3055C35.2229 41.3879 33.7556 41.9972 32.2249 42ZM5.97493 3.15011C5.27874 3.15011 4.61107 3.42667 4.11878 3.91896C3.6265 4.41124 3.34994 5.07891 3.34994 5.77511V36.225C3.34994 36.9212 3.6265 37.5889 4.11878 38.0812C4.61107 38.5734 5.27874 38.85 5.97493 38.85H32.2249C32.921 38.85 33.5887 38.5734 34.081 38.0812C34.5733 37.5889 34.8498 36.9212 34.8498 36.225V10.6261L27.4999 3.27611C27.4034 3.1936 27.2803 3.14884 27.1534 3.15011H5.97493Z" fill="#434260"/>
<path d="M13.5559 22.9942H10.3324L9.53445 25.6402H8.05396L11.1304 16.3688H12.7999L15.8764 25.6402H14.3329L13.5559 22.9942ZM13.1989 21.8497L12.7999 20.6002C12.4849 19.5503 12.2119 18.5633 11.9179 17.5133C11.6554 18.5633 11.3614 19.6133 11.0569 20.6002L10.6999 21.8497H13.1989ZM15.6454 16.3688H17.1994L18.5749 21.1672C18.8899 22.2172 19.0894 23.1307 19.4149 24.2017H19.4779C19.7929 23.1517 20.0239 22.2277 20.3179 21.1672L21.6934 16.3688H23.1844L20.2864 25.6402H18.5539L15.6454 16.3688ZM23.5834 24.4432L24.4444 23.3932C25.1005 24.0487 25.9847 24.425 26.9119 24.4432C28.0354 24.4432 28.6654 23.9182 28.6654 23.1307C28.6654 22.3432 28.0354 22.0177 27.1744 21.6397L25.8934 21.0832C25.3666 20.9235 24.9021 20.6046 24.5637 20.1703C24.2253 19.736 24.0296 19.2077 24.0034 18.6578C24.0281 18.2874 24.1275 17.9259 24.2956 17.595C24.4637 17.2641 24.697 16.9706 24.9814 16.7322C25.2659 16.4939 25.5957 16.3155 25.9509 16.2079C26.3061 16.1004 26.6795 16.0658 27.0484 16.1063C27.5701 16.1084 28.0862 16.2134 28.5672 16.4152C29.0483 16.617 29.4848 16.9116 29.8519 17.2823L29.0854 18.2168C28.5387 17.6881 27.8089 17.3909 27.0484 17.3873C26.1034 17.3873 25.4839 17.8388 25.4839 18.5843C25.4839 19.3298 26.2294 19.6343 26.9854 19.9807L28.2559 20.5267C28.8136 20.6817 29.3031 21.0196 29.6458 21.4861C29.9886 21.9526 30.1647 22.5207 30.1459 23.0992C30.1459 24.5902 28.9174 25.7977 26.8804 25.7977C26.2685 25.8015 25.662 25.6838 25.096 25.4512C24.53 25.2187 24.0159 24.8761 23.5834 24.4432Z" fill="#434260"/>
</g>
<defs>
<clipPath id="clip0_58_26509">
<rect width="38" height="42" fill="white"/>
</clipPath>
</defs>
</svg>
