<svg width="24" height="19" viewBox="0 0 24 19" fill="none" xmlns="http://www.w3.org/2000/svg">
<path fill-rule="evenodd" clip-rule="evenodd" d="M3.02033 9.43882L1.1744 11.2953L0 10.1359L3.1468 7.01924L4.29109 7.0343L7.43789 10.2263L6.2936 11.3706L4.53651 9.5939C4.65622 11.2216 5.30164 12.7663 6.37553 13.9952C7.44942 15.2242 8.89361 16.0709 10.4905 16.4078C12.0874 16.7447 13.7506 16.5535 15.2294 15.863C16.7082 15.1726 17.9226 14.0202 18.6896 12.5796L19.9137 13.4785C18.9496 15.1875 17.4552 16.5362 15.6566 17.3206C13.8579 18.105 11.8528 18.2824 9.94439 17.826C8.03595 17.3697 6.328 16.3044 5.07877 14.7912C3.82955 13.2779 3.10698 11.3991 3.02033 9.43882ZM19.5674 8.73719L17.7064 6.85362L16.5621 7.99791L19.7089 11.1748L20.8532 11.1899L24 8.0732L22.8708 6.92891L21.073 8.70557C21.0025 6.76697 20.3099 4.90256 19.0976 3.38817C17.8852 1.87377 16.2176 0.789838 14.3415 0.296735C12.4653 -0.196369 10.4803 -0.0724512 8.67999 0.650155C6.87972 1.37276 5.35987 2.65567 4.34529 4.30908L5.56487 5.20344C6.39189 3.80472 7.64927 2.71113 9.14915 2.08606C10.649 1.46099 12.3109 1.33799 13.8865 1.73544C15.462 2.13288 16.8667 3.02945 17.8906 4.29117C18.9146 5.55289 19.5028 7.11205 19.5674 8.73568V8.73719Z" fill="black"/>
</svg>
