<svg width="32" height="26" viewBox="0 0 32 26" fill="none" xmlns="http://www.w3.org/2000/svg">
<path fill-rule="evenodd" clip-rule="evenodd" d="M4.012 13.534L1.56 16L0 14.46L4.18 10.32L5.7 10.34L9.88 14.58L8.36 16.1L6.026 13.74C6.18502 15.9021 7.04235 17.9539 8.46883 19.5864C9.89531 21.2189 11.8137 22.3437 13.9349 22.7911C16.0562 23.2386 18.2654 22.9847 20.2297 22.0675C22.1941 21.1503 23.8072 19.6196 24.826 17.706L26.452 18.9C25.1714 21.1702 23.1864 22.9617 20.7972 24.0036C18.408 25.0455 15.7445 25.2812 13.2095 24.675C10.6744 24.0688 8.40569 22.6537 6.7463 20.6437C5.08691 18.6336 4.1271 16.138 4.012 13.534ZM25.992 12.602L23.52 10.1L22 11.62L26.18 15.84L27.7 15.86L31.88 11.72L30.38 10.2L27.992 12.56C27.8984 9.98489 26.9783 7.50833 25.3679 5.49671C23.7575 3.48509 21.5424 2.04526 19.0502 1.39026C16.5581 0.73525 13.9213 0.899854 11.5299 1.85972C9.13856 2.81958 7.11969 4.52371 5.772 6.71999L7.392 7.90799C8.49056 6.05003 10.1608 4.59738 12.1531 3.76707C14.1455 2.93677 16.353 2.77339 18.4459 3.30133C20.5387 3.82928 22.4046 5.02021 23.7647 6.6962C25.1248 8.37219 25.9062 10.4433 25.992 12.6V12.602Z" fill="black"/>
</svg>
