<svg width="37" height="35" viewBox="0 0 37 35" fill="none" xmlns="http://www.w3.org/2000/svg">
<g clip-path="url(#clip0_408_294)">
<path d="M34.2537 17.4007C34.7074 19.2644 35.4035 21.0548 35.9347 22.8946C36.1926 23.787 36.6182 24.633 36.6787 25.5803C36.3871 25.8421 36.0249 25.8041 35.6783 25.8041C33.7831 25.8069 31.8878 25.8153 29.9926 25.8027C28.5624 25.8069 27.1307 25.7506 25.7019 25.8407C25.0157 26.0617 24.5225 26.5726 23.9884 27.0132C23.2008 27.6621 22.3102 28.1928 21.6733 29.0148C21.5423 29.1302 21.4366 29.2949 21.2238 29.264C20.7968 28.8473 20.2698 28.7206 19.6907 28.7263C18.8072 28.7333 17.9223 28.7389 17.0388 28.7234C16.6062 28.7164 16.2102 28.8135 15.8312 29.0036C15.7621 29.0275 15.6917 29.0345 15.6184 29.0303C14.4714 28.2801 13.454 27.3609 12.3775 26.5191C12.052 26.2644 11.766 25.942 11.339 25.8365C9.86368 25.7478 8.38836 25.8111 6.91444 25.8027C5.05021 25.8125 3.18739 25.8083 1.32456 25.8069C0.975109 25.8069 0.621426 25.821 0.321289 25.5901C0.455153 24.4275 0.945518 23.3633 1.26679 22.2527C1.7332 20.6382 2.24893 19.0392 2.74352 17.4331C2.82666 17.1656 3.07043 17.1234 3.28884 17.0544C5.44476 16.3802 7.61899 15.7665 9.77631 15.0979C9.97781 15.0359 10.1835 14.9937 10.3921 15.0683C10.7345 15.3752 10.4287 15.6201 10.285 15.8439C9.68754 16.78 9.04077 17.685 8.50813 18.6605C8.48981 18.7886 8.52645 18.9068 8.5659 19.0265C9.40149 20.8465 10.3583 22.606 11.2981 24.5682C11.2206 23.6265 11.0093 22.8453 11.2826 22.0725C11.5391 21.8797 11.8181 21.974 12.0929 22.0078C13.1356 22.4807 14.2812 22.6482 15.3352 23.0902C15.4366 23.1465 15.5282 23.2141 15.6114 23.2957C16.1229 24.1741 16.1172 25.1721 16.2624 26.1349C16.2891 26.3108 16.2469 26.4994 16.2891 26.5656C16.0975 24.1361 16.3187 21.5883 16.0017 19.0659C15.9763 18.9857 15.9594 18.9054 15.9481 18.8238C15.8495 16.2042 15.6804 13.5889 15.5071 10.9736C15.4944 10.7413 15.4592 10.5119 15.393 10.2881C14.8392 8.60742 14.1868 6.96194 13.6344 5.28126C13.5555 5.04197 13.2582 4.70555 13.7711 4.55212C16.9261 4.55353 20.0796 4.55353 23.2303 4.55212C23.7827 4.71681 23.4417 5.07857 23.3572 5.31927C22.9034 6.61567 22.4525 7.91488 21.9622 9.19862C21.8297 9.54629 21.7057 9.89819 21.6141 10.2599C21.5465 10.4852 21.5197 10.7188 21.476 10.9497C21.3478 12.8091 21.2407 14.67 21.1435 16.5294C21.0998 17.3683 21.0336 18.203 20.9744 19.0392C20.9899 19.1616 20.9899 19.2855 20.98 19.4079C20.6855 21.6981 20.9786 24.0122 20.7475 26.1771C20.763 25.5198 20.8927 24.747 21.0646 23.9827C21.1252 23.711 21.1533 23.4224 21.4042 23.2338C21.5338 23.1522 21.6747 23.093 21.8128 23.0269C22.7935 22.6651 23.8095 22.4216 24.8043 22.1007C24.9424 22.0571 25.0833 22.0303 25.2256 22.0064C25.4032 21.9712 25.5821 21.9304 25.7442 22.0585C25.8752 22.9284 25.7005 23.7842 25.6878 24.5429C26.4952 22.8073 27.4703 21.0168 28.3341 19.1715C28.3721 18.9829 28.6413 18.866 28.4975 18.6225C27.886 17.7216 27.3097 16.8011 26.7277 15.8833C26.5798 15.6511 26.3008 15.4118 26.6023 15.0951C27.2153 14.974 27.7409 15.2837 28.296 15.4385C29.9405 15.896 31.568 16.4126 33.2053 16.8954C33.5759 17.0038 33.9944 17.046 34.2537 17.4007Z" fill="#E7893A"/>
<path d="M34.2535 17.4007C31.8439 16.6857 29.4344 15.9706 27.0248 15.2584C26.8712 15.2133 26.7078 15.2049 26.5486 15.1781C26.2512 15.2837 26.0568 15.0909 25.8708 14.9248C24.4969 13.6987 23.1061 12.4952 21.6942 11.3143C21.5294 11.1763 21.404 11.0116 21.3377 10.8061C21.342 10.6034 21.2969 10.3895 21.4716 10.2276C21.628 9.99394 21.8013 9.78421 22.0338 9.61248C26.0723 6.60584 30.0431 3.51194 34.0858 0.510931C34.2253 0.38847 34.4663 0.416622 34.5452 0.204074C35.0031 -0.036626 35.2596 0.0604985 35.423 0.593979C35.8866 2.11278 36.3869 3.62032 36.8984 5.12223C37.1957 5.99494 36.7546 6.77757 36.6363 7.59398C36.4644 8.77073 36.1966 9.93623 35.9219 11.0947C35.8401 11.4395 35.8613 11.7183 36.1389 11.8872C36.7462 12.2574 36.3897 12.4896 36.0332 12.6712C35.5104 12.9358 35.3216 13.1385 35.9402 13.5481C36.2586 13.7579 36.1727 14.0605 35.85 14.3279C35.5048 14.6151 34.8791 14.9445 35.7626 15.3949C35.9796 15.5061 35.7119 15.6722 35.6274 15.775C35.1793 16.3253 34.7128 16.8602 34.2535 17.4007Z" fill="#6E3F20"/>
<path d="M10.4877 15.1809C9.43932 15.2921 8.47409 15.7102 7.47505 16.003C5.89263 16.4661 4.31867 16.9545 2.7419 17.4331C2.28394 16.8912 1.8274 16.3521 1.40889 15.7778C1.25812 15.5708 1.1468 15.4822 1.39058 15.3133C1.77385 15.05 1.67944 14.7178 1.41171 14.4954C0.815666 13.9986 0.583165 13.565 1.51458 13.1723C1.31026 12.9949 1.18344 12.8499 1.02562 12.7542C0.516938 12.4446 0.237937 12.1433 0.967848 11.7619C1.21585 11.6324 1.10876 11.4156 1.06648 11.2073C0.725484 9.51393 0.408438 7.81637 0.0477095 6.12865C-0.0354271 5.74297 -0.0100634 5.39811 0.108301 5.03917C0.615574 3.51192 1.1468 1.99171 1.6118 0.451798C1.78512 -0.122503 1.9683 -0.11265 2.31635 0.271625C3.56622 0.843111 4.56527 1.77776 5.62772 2.61106C6.08004 2.96577 6.5535 3.28389 7.01145 3.62735C9.67605 5.62051 12.3209 7.63901 14.9672 9.65751C15.1912 9.82783 15.3984 10.0164 15.5576 10.2543C15.6478 10.419 15.7323 10.5865 15.6887 10.785C15.2758 11.486 14.5741 11.8857 13.9865 12.4037C13.0283 13.2469 12.0743 14.0957 11.0837 14.9022C10.9132 15.0416 10.7681 15.2626 10.4877 15.1809Z" fill="#6E3F20"/>
<path d="M29.9233 25.5817C32.175 25.5817 34.4267 25.5803 36.6785 25.5803C36.0571 27.8057 35.4413 30.0312 34.81 32.2538C34.3901 33.7317 34.3788 33.7374 32.8866 33.3249C30.6757 32.714 28.4691 32.0905 26.261 31.4725C26.2145 31.4205 26.1892 31.3585 26.1821 31.2896C26.3315 30.6829 26.757 30.2268 27.0699 29.7144C27.8364 28.4603 28.7312 27.2877 29.478 26.0195C29.5893 25.8323 29.7415 25.6915 29.9233 25.5817Z" fill="#D57B36"/>
<path d="M0.319824 25.5902C2.53915 25.5888 4.75988 25.5873 6.9792 25.5859C7.15111 25.7028 7.35121 25.7802 7.46957 25.9702C8.5588 27.7114 9.74808 29.3893 10.8091 31.1488C10.8331 31.1882 10.8373 31.2375 10.8458 31.2839C10.8444 31.3557 10.8176 31.4148 10.764 31.4613C8.28544 32.1552 5.8012 32.8295 3.33388 33.56C2.73219 33.7374 2.54901 33.5938 2.39542 33.0167C1.73174 30.5337 1.01592 28.0633 0.319824 25.5902Z" fill="#D57B36"/>
<path d="M15.5591 10.2544C14.4135 9.40559 13.2623 8.56525 12.1252 7.70661C9.59021 5.79509 7.06088 3.87231 4.53015 1.95515C3.79178 1.39493 3.05483 0.833297 2.31787 0.273071C3.11683 0.299816 3.79883 0.700982 4.51888 0.974057C5.86315 1.48502 7.20038 2.01427 8.54466 2.52805C10.2299 3.17273 11.9166 3.80897 13.6033 4.44942C13.6738 4.51277 13.6709 4.56907 13.592 4.62256C14.2473 6.49889 14.9025 8.37663 15.5591 10.2544Z" fill="#D57B36"/>
<path d="M34.1986 0.553144C32.6641 1.89177 30.9788 3.03615 29.3626 4.26921C26.7431 6.26941 24.1025 8.24287 21.4717 10.2276C21.9043 8.55113 22.63 6.97603 23.1626 5.33477C23.2415 5.09125 23.35 4.85759 23.4458 4.6183C23.3697 4.56199 23.3641 4.49865 23.4289 4.42968C26.939 3.04178 30.4561 1.66937 34.0112 0.401123C34.0732 0.453204 34.169 0.463058 34.1986 0.553144Z" fill="#D47B36"/>
<path d="M10.7651 31.4612C10.768 31.4218 10.7708 31.381 10.775 31.3416C10.8187 31.2416 10.8948 31.1797 11.0019 31.1558C11.0695 31.1572 11.1343 31.1741 11.1977 31.2008C12.2771 31.7934 13.3903 32.3198 14.4964 32.8618C14.6965 32.9589 14.929 33.1658 15.1376 33.0265C15.3616 32.8759 15.1953 32.6 15.1812 32.3762C15.1629 32.0932 14.9995 31.7695 15.3926 31.5977C15.5645 31.7399 15.611 32.0608 15.9407 31.9891C17.6838 31.9862 19.4254 32.0327 21.1657 31.9623C21.3066 31.9145 21.4475 31.8624 21.5968 31.8553C21.8913 31.9046 21.873 32.1242 21.8547 32.3381C21.8336 32.5901 21.7547 32.8393 21.811 33.1433C23.1722 32.5085 24.5419 31.9314 25.8396 31.2022C25.903 31.1727 25.9693 31.16 26.0397 31.1572C26.1496 31.1853 26.2187 31.2557 26.2553 31.3613C26.2567 31.3993 26.2595 31.4359 26.2638 31.4739C25.2408 32.0003 24.4813 32.8815 23.516 33.4882C22.7678 33.9583 22.0562 34.4861 21.3291 34.9873C19.455 34.9056 17.5823 34.8817 15.7082 34.9999C14.1949 34.0681 12.7717 33.0096 11.3964 31.8877C11.1963 31.7258 11.0413 31.5034 10.7651 31.4612Z" fill="#BCAD9F"/>
<path d="M23.4287 4.43103C23.4343 4.49437 23.44 4.55631 23.4456 4.61965C20.161 4.61965 16.8764 4.61965 13.5918 4.61965C13.596 4.56194 13.6003 4.50423 13.6031 4.44651C16.8778 4.44229 20.1539 4.43666 23.4287 4.43103Z" fill="#E68423"/>
<path d="M15.7056 35C15.8042 34.8747 15.9423 34.8649 16.086 34.8649C17.7276 34.8649 19.3692 34.8635 21.0094 34.8705C21.1151 34.8705 21.2208 34.9465 21.325 34.9873C19.4538 34.9901 17.5797 34.9944 15.7056 35Z" fill="#B8A99A"/>
<path d="M34.1986 0.553187C34.1366 0.502513 34.0732 0.453247 34.0112 0.402573C34.1888 0.336416 34.3677 0.270259 34.5453 0.204102C34.5382 0.42791 34.3832 0.505328 34.1986 0.553187Z" fill="#D26F00"/>
<path d="M10.4879 15.181C12.2211 13.7157 13.9557 12.2503 15.6889 10.785C15.8904 13.5101 16.1201 16.2324 16.1257 18.9688C15.3084 19.3967 14.4235 19.2264 13.5893 19.149C12.1225 19.0139 10.6457 19.1194 9.1845 18.9167C8.8604 18.8717 8.53068 18.883 8.24463 18.6915C8.99286 17.5218 9.74109 16.3521 10.4879 15.181Z" fill="#D57B36"/>
<path d="M21.3376 10.8075C22.8129 12.0715 24.2882 13.3327 25.7607 14.5996C26.0087 14.8135 26.2328 15.057 26.547 15.1795C27.0176 16.1409 27.663 16.9953 28.2224 17.9018C28.3788 18.1552 28.6198 18.3649 28.6606 18.683C27.9829 19.0983 27.198 18.9674 26.4836 18.9913C24.7391 19.0518 22.9975 19.2264 21.2502 19.1968C21.0867 19.194 20.9233 19.1912 20.7739 19.1109C20.9656 17.0601 20.9275 14.9937 21.184 12.9456C21.2742 12.2362 21.0487 11.5029 21.3376 10.8075Z" fill="#D57B36"/>
<path d="M20.7754 19.1109C20.9543 19.0645 21.1319 18.9814 21.3108 18.9758C22.8524 18.9181 24.3939 18.8801 25.9355 18.8252C26.8444 18.7928 27.7462 18.6197 28.6607 18.683C28.8213 18.8956 28.5198 18.9519 28.5155 19.1081C27.7081 20.2173 26.6598 21.097 25.7002 22.0613C25.548 22.1021 25.3958 22.1415 25.2436 22.1823C25.052 22.0795 24.8265 22.0894 24.6321 21.9979C24.1474 21.829 23.6922 21.5911 23.2329 21.3659C22.944 21.2237 22.7453 21.2885 22.6086 21.577C22.3606 22.1021 22.0436 22.5961 21.9168 23.1733C21.8181 23.2239 21.7195 23.2746 21.6208 23.3267C21.2503 23.1367 21.2418 22.7636 21.1699 22.4272C20.9586 21.4264 20.8881 20.4059 20.7754 19.391C20.7754 19.2967 20.7754 19.2038 20.7754 19.1109Z" fill="#BF662D"/>
<path d="M8.24463 18.6915C10.874 18.7197 13.4935 19.0167 16.1257 18.9688C16.2638 20.3469 16.0186 21.6827 15.6748 23.0072C15.6396 23.1438 15.5409 23.2493 15.4183 23.3254C15.3732 23.2831 15.3281 23.2409 15.2831 23.1973C14.8519 22.7454 14.6476 22.1655 14.4151 21.6081C14.2756 21.2731 14.1107 21.1928 13.7739 21.3491C13.3921 21.5264 13.0116 21.7066 12.6354 21.8938C12.4367 21.9924 12.2577 22.1965 11.9942 22.0613C11.7758 22.3175 11.5574 22.0501 11.339 22.0627C11.1643 22.043 11.0332 21.9375 10.9346 21.8122C10.1427 20.8114 9.12672 20.0105 8.38272 18.9688C8.33622 18.8759 8.28972 18.7844 8.24463 18.6915Z" fill="#BF662D"/>
<path d="M15.6984 28.9515C16.0168 28.5954 16.4058 28.4997 16.8848 28.518C17.9346 28.556 18.9858 28.5236 20.037 28.5321C20.5598 28.5363 21.0417 28.6489 21.2939 29.1866C21.6927 29.6497 21.549 30.2226 21.6124 30.7547C21.4545 31.1319 21.6673 31.6541 21.1685 31.9005C19.3959 32.044 17.6218 31.93 15.8478 31.9638C15.5166 32.0173 15.5265 31.7006 15.3898 31.5443C15.2883 31.3797 15.2827 31.2206 15.4138 31.0686C15.7618 30.8448 15.4448 30.5464 15.4983 30.2888C15.4927 30.2254 15.4997 30.1635 15.5166 30.103C15.5392 30.0452 15.5659 29.9889 15.5969 29.9355C15.7209 29.6976 15.6491 29.4569 15.6082 29.2162C15.6012 29.1148 15.6265 29.0261 15.6984 28.9515Z" fill="#161616"/>
<path d="M11.0569 31.1642C10.9625 31.2233 10.8695 31.2825 10.7751 31.3416C9.64783 29.6088 8.52196 27.8747 7.39187 26.1447C7.26505 25.9519 7.1171 25.7717 6.979 25.5859C8.33033 25.5859 9.68024 25.5831 11.0316 25.5859C11.2345 25.5859 11.4571 25.5282 11.6177 25.7224C11.7432 25.9054 11.7742 26.1081 11.7502 26.3263C11.5797 27.8155 11.3712 29.302 11.2359 30.7954C11.2218 30.9362 11.1711 31.0671 11.0569 31.1642Z" fill="#BF662D"/>
<path d="M26.2542 31.3599C26.164 31.3022 26.0738 31.2444 25.9837 31.1867C25.537 30.5026 25.6638 29.7017 25.5483 28.9529C25.4228 28.1491 25.3679 27.3327 25.2678 26.5233C25.2326 26.2334 25.258 25.9673 25.4158 25.7182C25.699 25.4662 26.0414 25.5929 26.3543 25.5887C27.5435 25.5718 28.7342 25.5817 29.9235 25.5817C28.9301 27.3778 27.652 28.9937 26.6163 30.7645C26.4994 30.9643 26.3754 31.1614 26.2542 31.3599Z" fill="#BF662D"/>
<path d="M11.0571 31.1643C11.0571 29.3302 11.4404 27.5369 11.6194 25.7211C12.9439 26.7796 14.3248 27.7691 15.5634 28.9332C15.5211 29.1739 15.3239 29.2654 15.1393 29.3569C13.957 29.9481 12.7762 30.5463 11.5912 31.1319C11.4235 31.2149 11.2502 31.2839 11.0571 31.2248V31.1643Z" fill="#D57B36"/>
<path d="M25.4156 25.7183C25.5889 27.2849 25.7636 28.853 25.9327 30.4196C25.9609 30.6744 25.9666 30.9306 25.9821 31.1854L25.9778 31.2459C25.7031 31.2938 25.4818 31.1488 25.255 31.0348C24.2362 30.5224 23.2132 30.0199 22.1972 29.5033C21.9619 29.3837 21.6491 29.3273 21.604 28.9811C21.7252 28.3209 22.348 28.1154 22.7736 27.7537C23.6218 27.0372 24.5321 26.3939 25.4156 25.7183Z" fill="#D57B36"/>
<path d="M21.6054 28.9825C23.0638 29.737 24.5208 30.4928 25.9792 31.2473C25.386 31.7639 24.6378 31.9976 23.9544 32.3467C23.2287 32.7183 22.4734 33.0307 21.7224 33.3728C21.3785 32.8858 21.907 32.3706 21.6265 31.9075C21.3673 31.5668 21.3814 31.184 21.449 30.7913C21.3983 30.2564 21.3461 29.7215 21.2954 29.1866C21.332 29.0191 21.4321 28.9473 21.6054 28.9825Z" fill="#D3C1B4"/>
<path d="M11.0557 31.2248C12.5578 30.4605 14.0599 29.6976 15.5634 28.9332C15.6084 28.9431 15.6535 28.9487 15.7 28.9515C15.7071 29.0486 15.7141 29.1458 15.7212 29.2415C15.7578 29.2922 15.7606 29.3457 15.7353 29.402C15.7071 29.454 15.6761 29.5033 15.6451 29.5526C15.5831 29.6919 15.5972 29.8425 15.5859 29.9903C15.5831 30.0213 15.5803 30.0509 15.5774 30.0818C15.5817 30.1311 15.5859 30.1804 15.5901 30.2296C15.6282 30.5027 15.6972 30.7786 15.5464 31.0418C15.5154 31.1938 15.483 31.3444 15.452 31.4965C15.4901 31.5626 15.4689 31.6049 15.3985 31.626C15.0659 32.0806 15.4943 32.5184 15.4323 32.9787C15.3816 33.3559 15.3703 33.4727 14.9518 33.2546C13.7921 32.6479 12.6028 32.1003 11.4234 31.5317C11.2741 31.4585 11.1318 31.3839 11.0557 31.2248Z" fill="#D3C1B4"/>
<path d="M8.38086 18.9674C9.48277 19.888 10.4198 20.9662 11.3371 22.0627C11.2751 23.0072 11.4231 23.9461 11.502 24.9103C11.371 24.8807 11.3033 24.8836 11.2906 24.8582C10.293 22.9101 9.24463 20.9845 8.38086 18.9674Z" fill="#D57937"/>
<path d="M25.7016 22.0613C25.7721 21.5968 26.1822 21.3927 26.4668 21.1013C27.1333 20.42 27.8322 19.7697 28.517 19.1082C27.6871 21.0957 26.6105 22.9608 25.6284 24.8849C25.5692 23.9292 25.5058 22.9917 25.7016 22.0613Z" fill="#D57937"/>
<path d="M15.418 23.3239C15.7167 21.8825 16.0774 20.451 16.1253 18.9674C16.4508 19.7148 16.3156 20.5298 16.3635 21.297C16.4861 23.231 16.4043 25.1792 16.3127 27.1315C16.1112 26.0913 15.8999 25.0511 15.7125 24.008C15.666 23.7504 15.6364 23.5027 15.418 23.3239Z" fill="#D57A37"/>
<path d="M20.7754 19.3883C21.139 20.5228 21.1911 21.7179 21.4715 22.8693C21.5096 23.0241 21.5702 23.1733 21.6195 23.3254C21.3715 23.3493 21.363 23.5267 21.3264 23.7237C21.1334 24.7639 20.9234 25.8013 20.6726 26.8373C20.674 24.3501 20.519 21.8671 20.7754 19.3883Z" fill="#D57937"/>
<path d="M11.9927 22.0613C12.5972 21.6587 13.2764 21.4054 13.9231 21.0887C14.1824 20.962 14.3402 20.9831 14.4586 21.2759C14.7193 21.922 15.0053 22.5582 15.2815 23.1972C14.3078 22.9129 13.3355 22.6272 12.3604 22.3471C12.1956 22.2992 12.0659 22.2218 11.9927 22.0613Z" fill="#283445"/>
<path d="M21.9166 23.1719C21.6123 22.7285 22.0294 22.4428 22.1773 22.1204C22.772 20.8128 22.8001 20.7973 24.0148 21.5532C24.2473 21.6982 24.5601 21.6489 24.7236 21.9009C24.7982 21.9994 24.8771 22.0951 24.8898 22.2246C23.8992 22.5399 22.9072 22.8566 21.9166 23.1719Z" fill="#283445"/>
<path d="M24.89 22.2246C24.7533 22.1585 24.7181 22.0402 24.7237 21.9009C24.9224 21.9487 25.1211 21.9952 25.2451 22.1824C25.1267 22.1965 25.0083 22.2106 24.89 22.2246Z" fill="#282F44"/>
<path d="M21.3279 32.0777C21.0319 32.2945 20.6924 32.1819 20.3739 32.1847C19.062 32.1988 17.7502 32.196 16.4369 32.1861C16.1903 32.1847 15.9155 32.279 15.7056 32.0552C15.7394 32.0285 15.7732 32.0017 15.807 31.9736C17.5768 31.8398 19.3467 31.9201 21.1179 31.9313C21.2067 31.9567 21.2757 32.0045 21.3279 32.0777Z" fill="#BFB0A1"/>
<path d="M21.4491 30.7926C21.5082 31.1642 21.5674 31.5372 21.6266 31.9088C21.5745 32.0496 21.4688 32.0946 21.3279 32.0777L21.3222 32.058C21.2786 31.9905 21.1926 31.9694 21.1461 31.9046C21.132 31.8497 21.1475 31.8047 21.1954 31.7723C21.5082 31.5048 21.1757 31.0713 21.4491 30.7926Z" fill="#010101"/>
<path d="M15.3999 31.626C15.4112 31.5809 15.4295 31.5373 15.4535 31.4965C15.5394 31.6358 15.6268 31.7766 15.7127 31.9159C15.7282 31.9399 15.7451 31.9638 15.7606 31.9863C15.7409 32.0074 15.7212 32.0271 15.7015 32.0482L15.7071 32.0553C15.0984 32.272 15.5718 31.7203 15.3999 31.626Z" fill="black"/>
<path d="M21.1956 31.7724C21.1956 31.8146 21.1956 31.8554 21.1956 31.8977C20.5108 32.0722 19.8147 31.9709 19.1243 31.9694C17.9885 31.968 16.8514 32.0455 15.7171 31.9244L15.7114 31.916C15.8862 31.6837 16.1398 31.7738 16.361 31.7724C17.973 31.7668 19.5836 31.7724 21.1956 31.7724Z" fill="black"/>
<path d="M15.5464 31.0418C15.5605 30.7715 15.576 30.5013 15.5901 30.2296C15.7817 30.4928 15.7056 30.7814 15.6633 31.0657C15.6619 31.0728 15.6225 31.0812 15.6042 31.077C15.583 31.0728 15.5661 31.0545 15.5464 31.0418Z" fill="#010102"/>
<path d="M15.683 29.3668C15.6872 29.3232 15.6999 29.2809 15.721 29.2429C15.8943 29.5315 15.9479 29.8116 15.6703 30.0734C15.5322 29.8355 15.5392 29.599 15.683 29.3668Z" fill="#000101"/>
<path d="M15.6832 29.3667C15.679 29.6018 15.6747 29.8368 15.6719 30.0719C15.6409 30.0719 15.6099 30.0747 15.5803 30.0818L15.5212 30.0747C15.5141 29.8397 15.4141 29.5975 15.586 29.3794C15.617 29.3794 15.6508 29.3751 15.6832 29.3667Z" fill="#81756D"/>
<path d="M15.5845 29.3809C15.5633 29.6131 15.5422 29.844 15.5196 30.0762C15.3886 29.8299 15.328 29.5906 15.5845 29.3809Z" fill="#D9C7BA"/>
<path d="M15.7181 31.9243C17.5443 31.9159 19.3705 31.906 21.1952 31.8976C21.2375 31.9511 21.2798 32.0046 21.3221 32.0595C19.448 32.0566 17.5739 32.0524 15.7012 32.0496C15.7068 32.0074 15.7124 31.9666 15.7181 31.9243Z" fill="#A19588"/>
</g>
<defs>
<clipPath id="clip0_408_294">
<rect width="37" height="35" fill="white"/>
</clipPath>
</defs>
</svg>
