<svg width="24" height="24" viewBox="0 0 24 24" fill="none" xmlns="http://www.w3.org/2000/svg">
<path d="M12.1038 5.7984e-05C12.4968 5.7984e-05 12.8838 0.025558 13.2438 0.085558C13.5983 0.132017 13.9482 0.20931 14.2893 0.316558C14.6313 0.420058 14.9658 0.549058 15.3003 0.711058C15.6258 0.865558 15.9603 1.05456 16.2948 1.26006C16.8603 1.62006 17.4168 1.91106 17.9838 2.14356C19.1 2.59031 20.2803 2.85615 21.4803 2.93106C22.0893 2.97456 22.7148 3.00006 23.3658 3.00006V9.00006C23.3658 10.1401 23.2203 11.2201 22.9293 12.2491C22.6497 13.2634 22.2526 14.2415 21.7458 15.1636C21.2411 16.0843 20.6441 16.9513 19.9638 17.7511C19.2731 18.569 18.5252 19.3369 17.7258 20.0491C16.9158 20.7633 16.0627 21.427 15.1713 22.0366C14.2803 22.6546 13.3803 23.2291 12.4803 23.7511L12.1203 23.9656L11.7603 23.7511C10.8351 23.2154 9.93138 22.6435 9.05128 22.0366C8.15487 21.4339 7.30132 20.7698 6.49678 20.0491C5.69786 19.3369 4.95048 18.569 4.26028 17.7511C3.58182 16.9479 2.98206 16.0814 2.46928 15.1636C1.97118 14.2374 1.57438 13.2603 1.28578 12.2491C0.992933 11.1912 0.848551 10.0977 0.856778 9.00006V3.00006C1.50928 3.00006 2.13478 2.97456 2.74378 2.93106C3.34327 2.88942 3.93888 2.80369 4.52578 2.67456C5.10028 2.54556 5.67478 2.37456 6.24028 2.14356C6.82708 1.90673 7.38969 1.61387 7.92028 1.26906C8.58028 0.840058 9.24928 0.523558 9.90928 0.315058C10.6201 0.0971554 11.3604 -0.00910928 12.1038 5.7984e-05ZM21.8568 4.47456C20.7213 4.41946 19.5964 4.22963 18.5058 3.90906C17.4209 3.58544 16.3875 3.10917 15.4368 2.49456C14.9436 2.17085 14.408 1.91694 13.8453 1.74006C13.2831 1.57016 12.6985 1.48621 12.1113 1.49106C11.5197 1.48723 10.9308 1.57114 10.3638 1.74006C9.80018 1.9112 9.26529 2.1655 8.77678 2.49456C7.82436 3.11252 6.78834 3.59088 5.70028 3.91506C4.63678 4.22406 3.52378 4.41306 2.35678 4.48206V9.00756C2.35678 10.0021 2.48578 10.9531 2.74378 11.8696C3.00662 12.7781 3.3688 13.6549 3.82378 14.4841C4.2842 15.3219 4.82688 16.1118 5.44378 16.8421C6.06928 17.5786 6.73678 18.2641 7.45678 18.9151C8.17678 19.5676 8.93128 20.1676 9.72028 20.7241C10.5168 21.2821 11.3148 21.7876 12.1113 22.2496C12.9269 21.7748 13.7221 21.2658 14.4948 20.7241C15.289 20.1693 16.0475 19.5651 16.7658 18.9151C17.4858 18.2641 18.1548 17.5786 18.7803 16.8421C19.3972 16.1118 19.9399 15.3219 20.4003 14.4841C20.8532 13.6559 21.2101 12.7787 21.4638 11.8696C21.7296 10.939 21.8619 9.97535 21.8568 9.00756V4.47456Z" fill="black"/>
<path fill-rule="evenodd" clip-rule="evenodd" d="M17.6952 7.06358L17.0352 6.49658L16.4262 6.54908L9.88624 14.2711L7.65874 11.0911L7.05874 10.9891L6.36424 11.4856L6.26074 12.0856L9.12424 16.1746L9.44974 16.3546L10.1352 16.3966L10.4862 16.2436L17.7387 7.67108L17.6952 7.06358Z" fill="black"/>
</svg>
