<svg width="20" height="22" viewBox="0 0 20 22" fill="none" xmlns="http://www.w3.org/2000/svg">
<path fill-rule="evenodd" clip-rule="evenodd" d="M1.49663 7.37C1.51198 5.18638 2.38468 3.09622 3.92663 1.55L2.86163 0.5C1.95458 1.39944 1.23462 2.4696 0.743303 3.64873C0.251982 4.82786 -0.000976562 6.09261 -0.000976562 7.37C-0.000976563 8.64739 0.251982 9.91214 0.743303 11.0913C1.23462 12.2704 1.95458 13.3406 2.86163 14.24L3.92663 13.19C2.38468 11.6438 1.51198 9.55362 1.49663 7.37ZM3.08663 7.37C3.08276 8.25459 3.25595 9.13101 3.59599 9.94764C3.93604 10.7643 4.43607 11.5046 5.06663 12.125L6.13163 11.06C5.63862 10.5856 5.2503 10.0134 4.99163 9.38C4.72554 8.74591 4.58849 8.06516 4.58849 7.3775C4.58849 6.68985 4.72554 6.00909 4.99163 5.375C5.24644 4.73519 5.63513 4.15726 6.13163 3.68L5.06663 2.615C4.43877 3.23744 3.94052 3.97814 3.60067 4.79431C3.26081 5.61047 3.0861 6.4859 3.08663 7.37ZM14.5616 12.185L13.4966 11.12C13.9916 10.64 14.3816 10.064 14.6366 9.425C14.9028 8.79094 15.0399 8.11017 15.0399 7.4225C15.0399 6.73483 14.9028 6.05406 14.6366 5.42C14.3818 4.78019 13.9931 4.20227 13.4966 3.725L14.5616 2.675C15.1888 3.29792 15.6865 4.03874 16.0261 4.85481C16.3658 5.67088 16.5406 6.54607 16.5406 7.43C16.5406 8.31393 16.3658 9.18912 16.0261 10.0052C15.6865 10.8213 15.1888 11.5621 14.5616 12.185ZM16.6016 0.5L15.5366 1.565C16.3067 2.32294 16.9183 3.22653 17.3358 4.22315C17.7532 5.21977 17.9682 6.28948 17.9682 7.37C17.9682 8.45052 17.7532 9.52024 17.3358 10.5169C16.9183 11.5135 16.3067 12.4171 15.5366 13.175L16.6016 14.24C17.5087 13.3406 18.2286 12.2704 18.72 11.0913C19.2113 9.91214 19.4642 8.64739 19.4642 7.37C19.4642 6.09261 19.2113 4.82786 18.72 3.64873C18.2286 2.4696 17.5087 1.39944 16.6016 0.5ZM11.9891 7.145C12.0403 7.66275 11.9104 8.18223 11.6216 8.615C11.4971 8.74177 11.3616 8.85722 11.2166 8.96L16.3766 20.555L14.9966 21.155L13.8416 18.56H5.53163L4.37663 21.155L2.99663 20.555L8.15663 8.96C7.8455 8.64461 7.63299 8.24542 7.54508 7.8112C7.45718 7.37699 7.49767 6.92657 7.66163 6.515C7.83709 6.10092 8.12887 5.7466 8.50163 5.495C8.82479 5.27946 9.19825 5.15126 9.58565 5.12287C9.97306 5.09448 10.3612 5.16687 10.7123 5.333C11.0635 5.49912 11.3656 5.75333 11.5894 6.07086C11.8131 6.3884 11.9508 6.75845 11.9891 7.145ZM9.59663 6.635C9.45443 6.6685 9.3245 6.74126 9.22163 6.845C9.14103 6.94022 9.08445 7.05339 9.05663 7.175C9.01178 7.31653 9.01178 7.46847 9.05663 7.61C9.11663 7.745 9.20963 7.865 9.32663 7.955C9.453 8.03271 9.59828 8.07422 9.74663 8.075C9.94434 8.07116 10.1329 7.99091 10.2727 7.85108C10.4125 7.71125 10.4928 7.52271 10.4966 7.325C10.4958 7.17665 10.4543 7.03137 10.3766 6.905C10.2865 6.78705 10.1678 6.6941 10.0316 6.635C9.8901 6.59015 9.73816 6.59015 9.59663 6.635ZM9.94163 9.71H9.53663L8.23163 12.62H11.2316L9.94163 9.71ZM13.2416 17.12L11.9066 14.12H7.58663L6.25163 17.12H13.2416Z" fill="black"/>
</svg>
