<svg width="24" height="20" viewBox="0 0 24 20" fill="none" xmlns="http://www.w3.org/2000/svg">
<path fill-rule="evenodd" clip-rule="evenodd" d="M3.009 10.4005L1.17 12.25L0 11.095L3.135 7.98999L4.275 8.00499L7.41 11.185L6.27 12.325L4.5195 10.555C4.63876 12.1766 5.28176 13.7155 6.35162 14.9398C7.42148 16.1642 8.86026 17.0077 10.4512 17.3434C12.0421 17.679 13.699 17.4885 15.1723 16.8006C16.6456 16.1127 17.8554 14.9647 18.6195 13.5295L19.839 14.425C18.8785 16.1276 17.3898 17.4713 15.5979 18.2527C13.806 19.0342 11.8084 19.2109 9.90709 18.7563C8.00582 18.3016 6.30427 17.2403 5.05973 15.7328C3.81518 14.2252 3.09533 12.3535 3.009 10.4005V10.4005ZM19.494 9.70149L17.64 7.82499L16.5 8.96499L19.635 12.13L20.775 12.145L23.91 9.03999L22.785 7.89999L20.994 9.66999C20.9238 7.73867 20.2337 5.88125 19.0259 4.37253C17.8182 2.86381 16.1568 1.78395 14.2877 1.29269C12.4186 0.801438 10.441 0.924891 8.64743 1.64479C6.85392 2.36468 5.33977 3.64278 4.329 5.28999L5.544 6.18099C6.36792 4.78752 7.62058 3.69803 9.11484 3.07531C10.6091 2.45258 12.2647 2.33004 13.8344 2.726C15.4041 3.12196 16.8035 4.01516 17.8236 5.27215C18.8436 6.52914 19.4296 8.08245 19.494 9.69999V9.70149Z" fill="black"/>
</svg>
