<svg width="24" height="21" viewBox="0 0 24 21" fill="none" xmlns="http://www.w3.org/2000/svg">
<path fill-rule="evenodd" clip-rule="evenodd" d="M7.92 7.48334L3 9.50834L2.01 9.11834L0 4.25834L1.38 3.68834L2.595 6.61334C3.41064 4.57212 4.89405 2.86766 6.80316 1.7781C8.71225 0.688546 10.9343 0.278257 13.1066 0.614206C15.2788 0.950146 17.2733 2.01248 18.764 3.62781C20.2548 5.24315 21.1541 7.3161 21.315 9.50834H19.815C19.6434 7.63524 18.8346 5.87766 17.5236 4.52891C16.2125 3.18015 14.4786 2.32184 12.6111 2.09717C10.7436 1.87251 8.85557 2.29511 7.26206 3.29445C5.66855 4.29378 4.46596 5.80938 3.855 7.58834L7.335 6.08834L7.92 7.48334ZM21.21 11.5034L23.22 16.3484L21.84 17.0084L20.61 14.0084C19.7878 16.0577 18.2937 17.7665 16.3723 18.8546C14.4512 19.9427 12.2171 20.3453 10.0369 19.9965C7.85668 19.6476 5.85981 18.5681 4.37399 16.9349C2.88816 15.3017 2.00168 13.2118 1.86002 11.0084H3.36001V10.2584C3.36422 12.1896 4.04702 14.0579 5.28903 15.5367C6.53106 17.0156 8.2533 18.0108 10.1547 18.3485C12.0562 18.6863 14.0158 18.345 15.6912 17.3844C17.3666 16.4238 18.651 14.9049 19.32 13.0934L15.945 14.4884L15.36 13.1084L20.235 11.0834L21.21 11.5034Z" fill="#18A0FB"/>
</svg>
