<svg width="126" height="128" viewBox="0 0 126 128" fill="none" xmlns="http://www.w3.org/2000/svg">
<path d="M126 127.738C84.0006 127.738 41.9994 127.738 0 127.738C0 85.1592 0 42.5788 0 0C41.9994 0 84.0006 0 126 0C126 42.5788 126 85.1592 126 127.738ZM104.282 109.363C106.989 109.363 109.593 109.363 112.239 109.363C112.239 110.057 112.236 110.692 112.239 111.326C112.248 112.585 112.898 113.263 114.174 113.285C115.583 113.308 116.993 113.306 118.402 113.285C119.554 113.268 120.194 112.571 120.196 111.388C120.197 110.066 119.644 109.441 118.415 109.409C117.706 109.391 116.994 109.406 116.265 109.406C116.265 106.679 116.265 104.036 116.265 101.33C117.024 101.33 117.737 101.35 118.45 101.325C119.528 101.288 120.191 100.606 120.194 99.5426C120.201 96.8018 120.206 94.061 120.192 91.3218C120.186 90.0727 119.513 89.488 118.158 89.4913C116.867 89.4946 116.228 90.0793 116.22 91.3052C116.208 93.0759 116.218 94.8483 116.215 96.6207C116.215 96.8848 116.187 97.1489 116.169 97.4728C115.404 97.4728 114.718 97.4645 114.032 97.4745C112.856 97.4928 112.269 98.0609 112.248 99.2602C112.221 100.644 112.239 102.028 112.239 103.413C112.239 104.064 112.239 104.715 112.239 105.39C110.857 105.39 109.598 105.39 108.261 105.39C108.261 104.659 108.274 103.973 108.257 103.287C108.227 102.029 107.664 101.468 106.424 101.448C105.739 101.438 105.054 101.446 104.346 101.446C104.346 98.7104 104.346 96.0493 104.346 93.3567C106.399 93.3567 108.387 93.3666 110.374 93.3533C111.53 93.345 112.236 92.5926 112.239 91.4115C112.243 90.1524 111.631 89.5146 110.379 89.493C109.696 89.4813 109.013 89.4913 108.259 89.4913C108.259 88.7056 108.264 88.0196 108.257 87.3335C108.249 86.1691 107.649 85.5445 106.49 85.5146C105.779 85.4964 105.067 85.5113 104.399 85.5113C104.335 85.3618 104.297 85.3137 104.297 85.2638C104.288 84.6276 104.29 83.9914 104.278 83.3552C104.258 82.2107 103.625 81.5513 102.494 81.523C101.785 81.5048 101.074 81.5197 100.324 81.5197C100.324 77.46 100.324 73.4867 100.324 69.4253C100.989 69.4253 101.617 69.4253 102.246 69.4253C103.559 69.4237 104.245 68.7559 104.252 67.4602C104.258 66.1596 104.248 64.859 104.257 63.5567C104.265 62.2361 103.675 61.6265 102.358 61.6182C100.936 61.6099 100.314 62.1763 100.303 63.4919C100.298 64.1696 100.301 64.8473 100.301 65.5915C99.5748 65.5915 98.9697 65.5899 98.3662 65.5915C96.9073 65.5965 96.3369 66.1696 96.3237 67.6513C96.3171 68.2725 96.322 68.8954 96.322 69.5682C95.4815 69.5682 94.7653 69.5532 94.0524 69.5715C92.983 69.5997 92.3961 70.1911 92.3563 71.2741C92.3348 71.8821 92.3447 72.4917 92.3447 73.1013C92.3431 74.5581 92.3447 76.0149 92.3447 77.3986C92.227 77.4849 92.2055 77.5148 92.1839 77.5148C91.4942 77.5248 90.8029 77.5298 90.1132 77.5414C88.9842 77.5613 88.3907 78.1859 88.3658 79.3769C88.3409 80.5945 88.9427 81.3005 90.0817 81.342C90.8162 81.3686 91.5523 81.347 92.3049 81.347C92.3049 82.7822 92.3049 84.0977 92.3049 85.5047C91.9982 85.5047 91.7297 85.5047 91.4611 85.5047C89.775 85.508 88.0906 85.5014 86.4062 85.5196C84.9107 85.5362 84.3902 86.0778 84.3885 87.581C84.3852 90.571 84.3885 93.5593 84.3868 96.5493C84.3868 96.84 84.3636 97.129 84.3471 97.4728C83.5927 97.4728 82.9312 97.4596 82.273 97.4762C80.9782 97.5061 80.4261 98.0592 80.4129 99.3549C80.3996 100.684 80.4079 102.013 80.4096 103.341C80.4112 104.702 80.9865 105.287 82.3659 105.315C83.0191 105.328 83.6739 105.317 84.3885 105.317C84.3885 106.047 84.3852 106.679 84.3885 107.31C84.3951 108.614 85.0003 109.272 86.2768 109.295C87.7126 109.321 89.15 109.32 90.5874 109.296C91.6899 109.28 92.3364 108.586 92.3447 107.473C92.3497 106.767 92.3464 106.059 92.3464 105.36C95.0554 105.36 97.6401 105.36 100.261 105.36C100.261 106.717 100.261 108.029 100.261 109.424C99.5367 109.424 98.852 109.416 98.1689 109.426C96.9089 109.446 96.3436 110.036 96.327 111.333C96.3104 112.575 96.9305 113.262 98.1606 113.283C99.6246 113.308 101.09 113.311 102.552 113.281C103.637 113.26 104.272 112.574 104.283 111.497C104.287 110.808 104.282 110.117 104.282 109.363ZM50.5658 63.4171C50.5658 70.02 55.8926 75.4202 62.4065 75.4219C69.053 75.4235 74.4776 70.1064 74.4262 63.5334C74.3748 56.7761 69.2072 51.4756 62.3352 51.5437C55.7003 51.6118 50.7067 56.7944 50.5658 63.4171ZM32.6605 19.6839C32.6605 17.3866 32.7351 15.086 32.6274 12.7937C32.5776 11.7256 32.3505 10.5895 31.8979 9.63101C30.55 6.78224 28.0814 5.66764 25.0541 5.65269C20.7452 5.6311 16.4347 5.59289 12.1275 5.68259C10.9852 5.70585 9.76832 5.99322 8.73213 6.47493C6.08447 7.70414 4.85597 9.96821 4.82282 12.8336C4.77142 17.3451 4.80624 21.8566 4.80955 26.3682C4.81287 30.4478 7.86174 33.5424 11.9203 33.5557C16.4513 33.5723 20.9807 33.5707 25.5117 33.5457C26.1898 33.5424 26.8828 33.4245 27.5409 33.2501C30.875 32.363 32.6837 29.4445 32.6655 26.1605C32.6506 24.0011 32.6605 21.8434 32.6605 19.6839ZM19.2846 93.5045C19.2846 93.4796 19.2846 93.4547 19.2846 93.4298C17.0747 93.4298 14.8663 93.4165 12.6564 93.4364C11.8871 93.443 11.083 93.4032 10.3552 93.6042C6.73934 94.5975 4.86924 97.0526 4.82116 100.753C4.76313 105.124 4.76147 109.497 4.83939 113.868C4.85929 114.994 5.08642 116.2 5.54732 117.22C6.83384 120.067 9.28587 121.216 12.2784 121.251C16.5856 121.301 20.8944 121.313 25.2017 121.231C26.3539 121.21 27.5857 120.986 28.6302 120.516C31.3292 119.301 32.5959 116.977 32.629 114.11C32.6854 109.301 32.6622 104.488 32.4831 99.6838C32.3571 96.3001 29.426 93.5975 26.0754 93.5161C23.814 93.4596 21.5493 93.5045 19.2846 93.5045ZM106.148 5.85203C106.148 5.82379 106.148 5.79555 106.148 5.76731C104.132 5.76731 102.116 5.76067 100.1 5.77063C99.4389 5.77395 98.7475 5.70087 98.1208 5.86033C94.3193 6.83207 92.4376 9.32703 92.3646 13.1143C92.2817 17.4016 92.2967 21.6922 92.3779 25.9795C92.3994 27.1323 92.6249 28.3598 93.0842 29.4096C94.3541 32.3116 96.8045 33.481 99.85 33.5042C104.074 33.5358 108.3 33.5408 112.526 33.5009C114.275 33.4843 115.976 33.1919 117.424 32.0574C119.297 30.589 120.141 28.5874 120.154 26.2984C120.182 21.5743 120.091 16.8501 120.025 12.126C119.977 8.68751 116.696 5.9301 113.606 5.86531C111.119 5.8105 108.634 5.85203 106.148 5.85203ZM48.6211 117.371C48.6211 115.987 48.6211 114.675 48.6211 113.346C49.9457 113.346 51.2256 113.346 52.5553 113.346C52.5553 114.09 52.5503 114.778 52.5569 115.466C52.5669 116.692 53.2267 117.276 54.5845 117.276C55.8793 117.275 56.5209 116.685 56.5325 115.476C56.5392 114.766 56.5342 114.056 56.5342 113.291C57.267 113.291 57.897 113.295 58.527 113.291C59.8517 113.283 60.5082 112.64 60.5098 111.315C60.5165 107.356 60.5148 103.398 60.5098 99.4412C60.5082 98.0791 59.8749 97.4363 58.5635 97.4297C57.1592 97.4213 56.5342 98.0277 56.5325 99.4097C56.5292 102.426 56.5309 105.444 56.5309 108.461C56.5309 108.755 56.5309 109.049 56.5309 109.351C55.1466 109.351 53.87 109.351 52.5519 109.351C52.5519 105.966 52.5569 102.645 52.5486 99.3266C52.5453 98.1124 51.8755 97.418 50.7531 97.423C49.2196 97.4297 48.5813 97.9928 48.573 99.3515C48.5697 100.029 48.573 100.709 48.573 101.448C47.7324 101.448 47.0179 101.426 46.3033 101.453C45.1859 101.493 44.6106 102.104 44.5957 103.238C44.5858 103.946 44.5941 104.655 44.5941 105.434C43.7983 105.434 43.1119 105.416 42.4255 105.438C41.1937 105.476 40.6251 106.069 40.6151 107.295C40.6101 107.978 40.6134 108.662 40.6134 109.416C39.7812 109.416 39.0384 109.373 38.304 109.426C37.0921 109.512 36.5814 110.179 36.6345 111.499C36.6809 112.642 37.3109 113.278 38.4615 113.29C40.0083 113.306 41.5551 113.293 43.1019 113.293C43.5861 113.293 44.0718 113.293 44.5277 113.293C44.5642 113.471 44.5841 113.524 44.5841 113.577C44.5874 115.487 44.5874 117.396 44.5924 119.306C44.5957 120.564 45.1992 121.235 46.4244 121.26C47.8883 121.29 49.3522 121.29 50.8161 121.26C51.9402 121.238 52.5602 120.507 52.5503 119.303C52.5403 118.077 51.9336 117.403 50.7896 117.376C50.0833 117.358 49.3704 117.371 48.6211 117.371ZM84.3868 61.4637C85.1876 61.4637 85.8756 61.482 86.5637 61.4604C87.7789 61.4205 88.3757 60.6913 88.3592 59.3026C88.3459 58.2229 87.7225 57.6183 86.567 57.5917C85.8591 57.5751 85.1495 57.5884 84.4432 57.5884C84.4432 54.8393 84.4432 52.1981 84.4432 49.5038C84.8544 49.5038 85.2092 49.5038 85.5639 49.5038C85.9237 49.5038 86.2835 49.5188 86.6416 49.5005C87.6429 49.449 88.3442 48.7564 88.3592 47.7497C88.3824 46.283 88.3873 44.8162 88.3575 43.3495C88.3343 42.1801 87.6861 41.6485 86.3863 41.6569C85.0467 41.6635 84.4167 42.205 84.3885 43.3993C84.3719 44.1119 84.3852 44.8262 84.3852 45.5837C81.7027 45.5837 79.0965 45.5837 76.4273 45.5837C76.4273 45.0903 76.4273 44.6518 76.4273 44.2133C76.4273 42.0107 76.0625 41.6402 73.9089 41.6436C73.448 41.6452 72.9855 41.6436 72.5843 41.6436C72.513 41.5256 72.4881 41.504 72.4865 41.4808C72.4732 40.7632 72.4716 40.0439 72.4467 39.3263C72.4102 38.2981 71.8134 37.6486 70.7987 37.637C69.169 37.6171 67.5393 37.652 65.9113 37.6835C65.6792 37.6885 65.4122 37.7533 65.2232 37.8812C64.5435 38.343 64.26 39.4509 64.5501 40.3529C64.8154 41.1785 65.3244 41.5206 66.3108 41.5289C67.0171 41.5339 67.7217 41.5306 68.3998 41.5306C68.4379 41.7017 68.4594 41.7549 68.4594 41.808C68.4628 43.7448 68.4611 45.6833 68.4694 47.6202C68.4744 48.861 69.1143 49.4939 70.3577 49.5055C71.0491 49.5122 71.7388 49.5072 72.4301 49.5072C73.7448 49.5072 75.0595 49.5072 76.4256 49.5072C76.4256 50.2231 76.424 50.8277 76.4256 51.4324C76.4289 52.8676 77.0391 53.4755 78.493 53.4905C79.1164 53.4971 79.7398 53.4921 80.3681 53.4921C80.3681 56.2329 80.3681 58.8525 80.3681 61.6016C79.5425 61.6016 78.7483 61.5899 77.9559 61.6049C77.1103 61.6198 76.5052 62.1364 76.477 62.8939C76.4124 64.6846 76.4803 66.4835 76.6047 68.2725C76.6296 68.628 77.0805 69.0981 77.4469 69.2575C79.0434 69.9535 80.3316 69.0997 80.3979 67.3656C80.4212 66.7427 80.4013 66.1181 80.4013 65.4503C81.2087 65.4503 81.8967 65.4636 82.5847 65.447C83.7054 65.4188 84.357 64.756 84.3786 63.6248C84.3984 62.9388 84.3868 62.2511 84.3868 61.4637ZM76.4289 13.7023C76.4289 11.6443 76.4323 9.65759 76.4273 7.66926C76.424 6.30052 75.8172 5.70751 74.4511 5.72246C73.0253 5.73741 72.4517 6.28225 72.45 7.63936C72.4467 10.6825 72.4483 13.7256 72.4483 16.7687C72.4483 17.0577 72.4483 17.3451 72.4483 17.6707C72.0919 17.6707 71.8731 17.6707 71.6526 17.6707C69.9416 17.664 68.229 17.6375 66.5181 17.6574C65.0458 17.6757 64.4921 18.267 64.4904 19.7338C64.4888 21.0892 64.4838 22.4447 64.4921 23.8001C64.4987 24.9612 65.1055 25.5642 66.2793 25.5841C66.9872 25.5958 67.6968 25.5858 68.4694 25.5858C68.4694 27.6705 68.4677 29.6571 68.4694 31.6421C68.471 32.9411 69.0845 33.554 70.3776 33.5574C71.815 33.5624 72.4401 32.9743 72.4467 31.6106C72.45 30.9544 72.4467 30.2983 72.4467 29.6289C73.8178 29.6289 75.096 29.6289 76.4256 29.6289C76.4256 30.4013 76.4107 31.1172 76.4289 31.8315C76.4588 32.9228 77.1501 33.5474 78.3073 33.5574C79.6569 33.569 80.3698 33.0258 80.3946 31.8813C80.4278 30.388 80.4261 28.893 80.3946 27.3997C80.3714 26.3017 79.7083 25.6821 78.6024 25.6572C77.8962 25.6406 77.1899 25.6539 76.4721 25.6539C76.4721 24.2951 76.4721 22.9812 76.4721 21.5958C77.2032 21.5958 77.8879 21.6075 78.5726 21.5925C79.7679 21.5676 80.393 20.9331 80.4013 19.752C80.4062 19.0477 80.4013 18.3418 80.4013 17.6092C81.2551 17.6092 81.9729 17.6292 82.6892 17.6042C83.6176 17.571 84.2277 17.0013 84.3653 16.0893C84.5957 14.5561 83.9011 13.7206 82.3311 13.704C80.4079 13.6874 78.4781 13.7023 76.4289 13.7023ZM28.6816 53.5121C28.6816 52.8244 28.6832 52.1915 28.6816 51.5603C28.6766 50.2314 28.0367 49.5188 26.8513 49.5205C25.3194 49.5238 24.7059 50.1101 24.7026 51.5786C24.701 52.2148 24.7026 52.8526 24.7026 53.4888C24.7026 54.8094 24.7026 56.1299 24.7026 57.5552C23.8637 57.5552 23.1193 57.507 22.3849 57.5668C21.2277 57.6615 20.7386 58.2312 20.7253 59.389C20.7187 60.0717 20.7237 60.7561 20.7237 61.4953C20.354 61.4953 20.0821 61.4953 19.8118 61.4953C18.1258 61.4969 16.4397 61.4687 14.7553 61.5069C13.3046 61.5401 12.7691 62.1215 12.7658 63.5351C12.7641 64.8922 12.7525 66.2476 12.7691 67.6048C12.7857 68.9436 13.4024 69.4552 14.9293 69.4386C16.1545 69.4253 16.7348 68.8406 16.7431 67.6014C16.7481 66.8955 16.7431 66.1895 16.7431 65.452C18.8884 65.452 20.9044 65.462 22.9204 65.4487C24.071 65.4404 24.6894 64.8008 24.701 63.6514C24.7076 62.9421 24.7026 62.2328 24.7026 61.585C24.8319 61.5135 24.8552 61.4903 24.8784 61.4903C25.5415 61.482 26.2047 61.4803 26.8662 61.467C28.1013 61.4421 28.6733 60.8591 28.6799 59.6199C28.6849 58.9139 28.6799 58.2096 28.6799 57.5336C30.0825 57.5336 31.3408 57.5336 32.6589 57.5336C32.6589 58.301 32.6506 59.0169 32.6605 59.7312C32.6771 60.8325 33.3071 61.4604 34.4129 61.4637C37.2032 61.4703 39.9951 61.4703 42.7853 61.4637C43.9607 61.4604 44.5858 60.8159 44.5941 59.6216C44.599 58.9156 44.5941 58.2096 44.5941 57.4804C45.3351 57.4804 45.9436 57.4821 46.5504 57.4804C47.9596 57.4787 48.5697 56.9073 48.573 55.5917C48.5763 54.1101 48.0209 53.5503 46.5288 53.5519C43.5446 53.5536 40.5604 53.5619 37.5762 53.5669C37.2827 53.5669 36.9893 53.5669 36.6345 53.5669C36.6345 52.7397 36.6494 52.0254 36.6312 51.3111C36.603 50.1965 35.9133 49.5254 34.8174 49.5171C33.4082 49.5072 32.6821 50.1085 32.6589 51.3294C32.6439 52.042 32.6556 52.7563 32.6556 53.5137C31.3143 53.5121 30.0527 53.5121 28.6816 53.5121ZM12.7658 57.6C12.8885 57.5419 12.9349 57.4987 12.983 57.4987C14.9443 57.4904 16.9056 57.4871 18.8668 57.4787C20.1152 57.4738 20.7071 56.899 20.7237 55.6898C20.7436 54.1649 20.2446 53.5652 18.8967 53.5303C18.1937 53.5121 17.4891 53.527 16.8144 53.527C16.8144 52.0968 16.8144 50.8128 16.8144 49.5072C18.9265 49.5072 20.9707 49.5171 23.0149 49.5022C24.0859 49.4939 24.6844 48.8776 24.701 47.8029C24.7126 47.0654 24.7026 46.3262 24.7026 45.5206C25.5382 45.5206 26.2876 45.587 27.0154 45.4956C27.468 45.4392 28.03 45.2548 28.2953 44.9259C28.8971 44.1817 28.8474 43.2449 28.4644 42.4193C28.1345 41.71 27.4299 41.5157 26.6573 41.519C23.8107 41.5339 20.9657 41.5256 18.1191 41.5256C17.6864 41.5256 17.2537 41.5256 16.7447 41.5256C16.7447 40.8114 16.7481 40.1536 16.7447 39.4958C16.7381 38.1486 16.1578 37.544 14.8663 37.539C13.419 37.5324 12.7741 38.1204 12.7691 39.4659C12.7608 41.1569 12.7658 42.8445 12.7658 44.5339C12.7658 44.8528 12.7658 45.1701 12.7658 45.5571C11.8639 45.5571 11.083 45.479 10.3237 45.5754C9.08361 45.7315 8.63929 46.5023 8.7885 48.0205C8.883 48.9872 9.50637 49.4989 10.6072 49.5072C11.3135 49.5122 12.0181 49.5088 12.7028 49.5088C12.7028 50.9174 12.7028 52.2031 12.7028 53.5237C11.9501 53.5237 11.2588 53.4938 10.5691 53.5303C9.33395 53.5951 8.79513 54.1798 8.7885 55.4273C8.78021 56.8392 8.78021 58.2512 8.7885 59.6631C8.79513 60.9338 9.39861 61.4687 10.8078 61.4703C12.1374 61.472 12.7492 60.9255 12.7641 59.7063C12.7724 58.9903 12.7658 58.2777 12.7658 57.6ZM72.45 109.423C72.45 108.632 72.45 107.969 72.45 107.307C72.45 106.655 72.45 106.004 72.45 105.318C73.2607 105.318 73.9487 105.33 74.6368 105.315C75.7277 105.292 76.4207 104.592 76.4273 103.509C76.4339 102.126 76.4389 100.742 76.4273 99.3582C76.4157 98.0708 75.7807 97.4695 74.4627 97.4712C73.0518 97.4728 72.4715 98.0177 72.4533 99.3731C72.4434 100.049 72.4517 100.727 72.4517 101.456C70.2732 101.456 68.2307 101.415 66.1931 101.488C65.714 101.504 65.0939 101.793 64.8104 102.165C64.3031 102.827 64.3562 103.667 64.6977 104.439C65.0293 105.192 65.7107 105.302 66.4219 105.315C67.0983 105.326 67.7747 105.318 68.4313 105.318C68.4313 108.074 68.4313 110.695 68.4313 113.379C67.7615 113.379 67.1232 113.311 66.5064 113.399C65.966 113.477 65.3128 113.594 64.9563 113.944C64.328 114.564 64.3396 115.444 64.6496 116.256C64.9613 117.07 65.6559 117.283 66.4567 117.281C67.8096 117.276 69.1641 117.286 70.5169 117.278C71.7852 117.27 72.4467 116.604 72.4517 115.354C72.4533 114.677 72.4517 113.999 72.4517 113.34C73.8459 113.34 75.1059 113.34 76.3792 113.34C76.3792 114.7 76.3792 116.011 76.3792 117.403C75.5619 117.403 74.7827 117.328 74.03 117.431C73.5873 117.492 73.0419 117.733 72.7932 118.077C72.3041 118.75 72.3041 119.572 72.6407 120.351C72.9623 121.095 73.6321 121.248 74.345 121.256C75.7807 121.273 77.2181 121.286 78.6538 121.261C79.7398 121.243 80.4079 120.514 80.4096 119.406C80.4129 116.805 80.4112 114.203 80.4112 111.602C80.4095 109.906 79.9371 109.428 78.2642 109.426C76.3593 109.421 74.4577 109.423 72.45 109.423ZM80.4079 81.3719C80.2819 81.4583 80.2603 81.4865 80.2371 81.4882C79.574 81.4998 78.9125 81.5031 78.2493 81.5197C77.0291 81.5496 76.4604 82.1244 76.4323 83.3718C76.4157 84.0546 76.4289 84.7389 76.4289 85.508C75.6531 85.508 74.9683 85.5047 74.2836 85.5097C73.0767 85.518 72.4633 86.1226 72.4533 87.3369C72.4417 88.7206 72.4417 90.1042 72.4533 91.4896C72.4633 92.7271 73.1728 93.35 74.5472 93.36C75.668 93.3683 76.4057 92.6557 76.4256 91.5245C76.4389 90.8185 76.4273 90.1126 76.4273 89.3717C77.1883 89.3717 77.8216 89.375 78.4549 89.3717C79.6585 89.3634 80.3582 88.6973 80.3996 87.4947C80.4228 86.8136 80.4046 86.1292 80.4046 85.3867C81.1656 85.3867 81.8237 85.3934 82.4819 85.3851C83.7718 85.3685 84.3852 84.7323 84.3835 83.4333C84.3802 81.4483 84.3835 79.465 84.3835 77.4135C85.0981 77.4135 85.7281 77.4168 86.3564 77.4135C87.7076 77.4052 88.3409 76.8072 88.3575 75.4451C88.3807 73.4618 88.3641 71.4801 88.3641 69.5549C88.4785 69.4835 88.5017 69.4585 88.5233 69.4569C89.1864 69.4486 89.8479 69.4536 90.5111 69.4369C91.6418 69.4087 92.3315 68.6994 92.3398 67.5749C92.3497 66.2692 91.7943 65.643 90.5492 65.6181C89.1135 65.5899 87.6761 65.5882 86.2404 65.5915C84.9804 65.5948 84.4018 66.1928 84.3868 67.4785C84.3786 68.1562 84.3852 68.8356 84.3852 69.5682C83.6855 69.5682 83.1086 69.5682 82.5317 69.5682C80.9301 69.5715 80.4079 70.0898 80.4062 71.6811C80.4062 74.9152 80.4079 78.1527 80.4079 81.3719ZM60.4568 81.3985C60.4568 82.8037 60.4568 84.1127 60.4568 85.4864C60.102 85.4864 59.8019 85.4864 59.5035 85.4864C57.7909 85.4848 56.0766 85.4532 54.3657 85.4931C53.0709 85.523 52.537 86.1675 52.5569 87.5179C52.5752 88.7305 53.2118 89.3501 54.4751 89.3684C55.1515 89.3783 55.8296 89.37 56.5359 89.37C56.5359 90.1358 56.5342 90.7703 56.5359 91.4065C56.5392 92.6972 57.1592 93.3417 58.4441 93.3533C59.7969 93.3666 61.1514 93.36 62.5059 93.355C63.9035 93.35 64.4938 92.7454 64.4938 91.3318C64.4954 89.375 64.4938 87.4183 64.4938 85.4964C64.6297 85.4382 64.6778 85.4 64.7259 85.4C66.659 85.3917 68.5937 85.3917 70.5268 85.3801C71.7471 85.3735 72.4202 84.7123 72.4483 83.4914C72.4633 82.8104 72.4517 82.1293 72.4517 81.3951C73.2193 81.3951 73.8774 81.4018 74.5356 81.3935C75.7459 81.3785 76.4306 80.6908 76.4306 79.5015C76.4306 78.1261 75.8852 77.5331 74.5704 77.5248C73.1612 77.5148 71.752 77.5281 70.3445 77.5381C69.0695 77.5464 68.4959 78.1195 68.476 79.4085C68.4644 80.0879 68.4744 80.7689 68.4744 81.4682C67.0983 81.4682 65.84 81.4682 64.4938 81.4682C64.4938 80.6875 64.5137 79.9467 64.4888 79.2075C64.4556 78.1759 63.9201 77.5464 62.9337 77.5215C61.3056 77.4816 59.6743 77.4816 58.0479 77.553C56.9404 77.6012 56.4729 78.357 56.5359 79.7556C56.579 80.7058 57.2653 81.3769 58.2352 81.3935C58.9498 81.4084 59.6676 81.3985 60.4568 81.3985ZM52.5553 9.63599C51.7727 9.63599 51.1096 9.60775 50.4497 9.64264C49.1168 9.71074 48.578 10.2954 48.5763 11.621C48.5747 12.9781 48.5747 14.3336 48.5763 15.6907C48.578 17.0411 49.1334 17.6126 50.4564 17.6142C53.1919 17.6175 55.9274 17.6175 58.6629 17.6126C59.8765 17.6109 60.485 17.0395 60.5132 15.8966C60.5496 14.4017 60.0025 13.7023 58.7309 13.6608C58.023 13.6376 57.3151 13.6575 56.5856 13.6575C56.5856 12.2788 56.5856 10.9948 56.5856 9.70244C59.2416 9.70244 61.8461 9.70244 64.4938 9.70244C64.4938 10.4532 64.4888 11.1443 64.4954 11.8336C64.507 13.0512 65.1337 13.6243 66.4418 13.6276C67.8145 13.6309 68.4628 13.0661 68.4711 11.8303C68.481 10.4466 68.476 9.06125 68.4727 7.67756C68.4677 6.32045 67.8129 5.67097 66.4401 5.66764C63.567 5.65934 60.6939 5.65436 57.8207 5.64937C56.7149 5.64771 55.6091 5.62446 54.5049 5.65602C53.1107 5.69588 52.5669 6.27394 52.5586 7.64767C52.5519 8.27722 52.5553 8.90843 52.5553 9.63599ZM48.5763 81.3968C48.5763 82.1891 48.5713 82.8519 48.578 83.5164C48.5896 84.7489 49.2312 85.3751 50.4812 85.3851C51.8822 85.3967 52.5321 84.8303 52.5519 83.5263C52.5735 82.1161 52.5652 80.7041 52.5536 79.2922C52.5437 78.1411 51.9219 77.5148 50.7614 77.4866C50.0535 77.4683 49.3439 77.4833 48.578 77.4833C48.578 77.0846 48.578 76.7856 48.578 76.485C48.578 73.4684 48.5813 70.4535 48.5763 67.437C48.5747 66.2261 47.9977 65.5566 46.877 65.55C44.032 65.5334 41.1887 65.535 38.3438 65.5683C37.0821 65.5832 36.6229 66.1895 36.6411 67.6463C36.6561 68.7891 37.2761 69.4154 38.4283 69.4336C39.1379 69.4453 39.8458 69.4353 40.6201 69.4353C40.6201 70.1894 40.6184 70.8489 40.6201 71.5067C40.6234 72.8189 41.2153 73.4103 42.5366 73.4219C43.213 73.4269 43.8894 73.4236 44.5543 73.4236C44.5543 74.8438 44.5543 76.1345 44.5543 77.5381C43.6905 77.5381 42.8533 77.4451 42.0525 77.5746C41.6032 77.6461 41.0346 77.9916 40.829 78.3786C40.0017 79.9433 40.9417 81.3935 42.7057 81.3951C44.6322 81.3985 46.5587 81.3968 48.5763 81.3968ZM40.6184 89.4614C40.6184 87.4 40.6682 85.4382 40.5886 83.4815C40.5654 82.9034 40.3217 82.0164 39.9287 81.8436C39.2357 81.5397 38.3106 81.5031 37.5563 81.6759C36.787 81.8519 36.6395 82.6825 36.6395 83.4383C36.6395 87.4199 36.6362 91.4032 36.6411 95.3849C36.6428 96.7254 37.2546 97.3283 38.6157 97.3416C39.9685 97.3532 41.3214 97.3499 42.6726 97.3433C43.9657 97.3366 44.5924 96.7038 44.5957 95.4214C44.5974 94.7437 44.5957 94.066 44.5957 93.3583C46.6581 93.3583 48.5879 93.36 50.5194 93.3583C51.8788 93.3567 52.5486 92.7221 52.5536 91.4414C52.5586 90.0893 51.9153 89.4581 50.5127 89.4581C47.6976 89.4564 44.8825 89.4614 42.0674 89.4631C41.6065 89.4614 41.144 89.4614 40.6184 89.4614ZM96.3336 57.4488C96.3336 58.2595 96.327 58.9222 96.3353 59.5867C96.3502 60.8641 96.9935 61.4238 98.4176 61.4122C99.6212 61.4022 100.278 60.7361 100.276 59.5269C100.276 56.8974 100.273 54.2679 100.278 51.6383C100.281 50.2181 99.7588 49.6567 98.3679 49.6484C95.6323 49.6351 92.8985 49.6301 90.1629 49.6318C89.0157 49.6318 88.3873 50.2679 88.3658 51.4141C88.3409 52.7131 88.898 53.3792 90.1066 53.4357C90.8377 53.4705 91.5722 53.4423 92.2652 53.4423C92.3166 53.63 92.3431 53.6815 92.3431 53.7346C92.3497 54.3426 92.3563 54.9522 92.353 55.5602C92.348 56.7578 92.8587 57.3592 94.0408 57.4389C94.7785 57.4904 95.5196 57.4488 96.3336 57.4488ZM116.23 77.4052C116.23 78.1128 116.227 78.7424 116.23 79.3719C116.24 81.0463 117.687 81.9815 119.193 81.1809C119.64 80.9433 120.131 80.2889 120.146 79.8121C120.232 76.9933 120.201 74.1694 120.172 71.3472C120.161 70.118 119.436 69.53 118.097 69.5599C116.829 69.5881 116.228 70.1894 116.225 71.4369C116.223 72.1179 116.225 72.8007 116.225 73.5631C115.857 73.5631 115.588 73.5631 115.318 73.5631C113.496 73.5697 111.672 73.5913 109.85 73.5747C109.144 73.5681 108.716 73.8953 108.448 74.5083C107.752 76.1029 108.615 77.4035 110.373 77.4052C112.299 77.4052 114.224 77.4052 116.23 77.4052ZM116.237 61.4438C116.237 62.1614 116.233 62.7627 116.237 63.3657C116.247 64.7543 116.943 65.4536 118.304 65.4487C119.523 65.4453 120.182 64.7045 120.179 63.359C120.174 60.7627 120.169 58.1664 120.177 55.5702C120.182 54.2097 119.625 53.6516 118.203 53.6383C116.825 53.625 116.227 54.2064 116.222 55.5668C116.22 56.2196 116.222 56.8741 116.222 57.6681C115.317 57.6681 114.493 57.6133 113.68 57.693C113.315 57.7279 112.884 57.9505 112.646 58.2279C112.067 58.9006 112.118 59.7511 112.445 60.4886C112.719 61.1099 113.335 61.4371 114.058 61.4421C114.745 61.4454 115.431 61.4438 116.237 61.4438ZM116.222 41.6818C115.353 41.6818 114.594 41.5838 113.876 41.7167C113.402 41.803 112.826 42.1153 112.576 42.5073C111.668 43.9325 112.44 45.3677 114.121 45.489C114.799 45.5372 115.484 45.4973 116.235 45.4973C116.235 46.3212 116.22 47.0355 116.238 47.7464C116.268 48.8909 116.986 49.464 118.374 49.4756C119.385 49.4856 120.172 48.7447 120.176 47.7364C120.184 45.0006 120.182 42.2632 120.169 39.5273C120.164 38.2948 119.554 37.6951 118.342 37.6819C116.933 37.6669 116.258 38.2383 116.223 39.5057C116.205 40.1918 116.222 40.8778 116.222 41.6818ZM104.301 49.4789C104.301 50.2563 104.303 50.9141 104.301 51.5736C104.296 52.8078 104.97 53.4705 106.251 53.4888C107.468 53.5054 108.247 52.7696 108.257 51.5835C108.264 50.9041 108.259 50.2231 108.259 49.5005C108.99 49.5005 109.622 49.5055 110.252 49.4989C111.502 49.4872 112.208 48.8311 112.211 47.685C112.216 46.2165 111.684 45.6518 110.245 45.6518C107.568 45.6501 104.89 45.6584 102.211 45.675C100.957 45.6817 100.351 46.2564 100.303 47.4408C100.25 48.7663 100.782 49.3876 102.113 49.4739C102.798 49.5155 103.487 49.4789 104.301 49.4789ZM40.6184 29.5741C41.4059 29.5741 42.0906 29.5774 42.7753 29.5741C43.9408 29.5674 44.5543 29.011 44.5974 27.9296C44.6587 26.4014 44.1531 25.6373 42.9279 25.5958C41.4126 25.5443 39.8939 25.5376 38.3803 25.6057C37.1484 25.6605 36.6428 26.2868 36.6411 27.5309C36.6395 28.9678 36.6279 30.4046 36.6444 31.8415C36.6577 33.0906 37.2413 33.5657 38.7036 33.5624C39.9851 33.559 40.5985 33.0125 40.6184 31.8398C40.6284 31.1239 40.6184 30.4079 40.6184 29.5741ZM32.6605 41.5323C32.6605 42.3761 32.6456 43.1186 32.6638 43.8595C32.6937 44.9956 33.3287 45.5172 34.6533 45.5189C35.9481 45.5205 36.6196 44.9807 36.6345 43.8694C36.6544 42.3495 36.6478 40.828 36.6362 39.3081C36.6295 38.3745 36.1156 37.6254 35.2153 37.5922C33.458 37.5274 31.6873 37.5523 29.9333 37.6852C28.9535 37.7583 28.5688 38.637 28.6816 40.0174C28.7578 40.9376 29.363 41.5107 30.3129 41.5306C31.054 41.5456 31.7968 41.5323 32.6605 41.5323ZM60.5132 29.5724C60.5132 30.0375 60.5132 30.393 60.5132 30.7501C60.5132 31.1372 60.5016 31.5242 60.5148 31.9112C60.5529 32.9826 61.1912 33.5524 62.3501 33.559C63.7693 33.569 64.4606 33.0773 64.4838 31.9627C64.5153 30.4146 64.5103 28.8664 64.4855 27.3183C64.4689 26.3316 63.8853 25.6622 62.9188 25.6406C61.294 25.6024 59.6627 25.614 58.0396 25.7004C56.8873 25.7619 56.4497 26.5077 56.5342 27.9794C56.5906 28.9678 57.2239 29.5575 58.2601 29.5708C58.973 29.5807 59.6875 29.5724 60.5132 29.5724ZM56.5342 37.5191C55.5759 37.5789 54.7221 37.5789 53.8832 37.6951C52.857 37.838 52.4641 38.5639 52.5569 39.9592C52.6166 40.8678 53.2317 41.5107 54.1352 41.524C55.7334 41.5472 57.3333 41.5505 58.9299 41.524C59.8649 41.509 60.4982 40.8346 60.5082 39.8795C60.5264 38.3612 60.5314 36.8413 60.5065 35.3231C60.4883 34.1902 59.7887 33.5939 58.5486 33.5889C57.2604 33.5823 56.5591 34.1902 56.5359 35.3513C56.5226 36.064 56.5342 36.7782 56.5342 37.5191ZM32.6605 77.5265C31.8034 77.5265 31.0341 77.4932 30.2715 77.5348C29.1657 77.5929 28.6749 78.2258 28.6816 79.4965C28.6882 80.6526 29.2536 81.3619 30.2864 81.3868C31.8564 81.4234 33.4298 81.4234 35.0015 81.3868C36.0045 81.3636 36.6179 80.749 36.6328 79.7922C36.6577 78.2457 36.6643 76.6976 36.6312 75.1511C36.608 74.0863 35.8619 73.4917 34.6865 73.5133C33.3021 73.5382 32.6887 74.0498 32.6638 75.2209C32.6489 75.9368 32.6605 76.6544 32.6605 77.5265ZM88.3658 117.276C89.1964 117.276 89.9358 117.301 90.6736 117.27C91.6948 117.228 92.3282 116.541 92.3447 115.512C92.3646 114.21 91.8358 113.439 90.7714 113.411C89.145 113.368 87.5153 113.386 85.8889 113.434C85.0284 113.459 84.4283 114.037 84.4034 114.891C84.357 116.494 84.3471 118.1 84.4134 119.703C84.4581 120.79 85.2804 121.314 86.6217 121.263C87.6744 121.221 88.3542 120.53 88.3658 119.481C88.3708 118.791 88.3658 118.1 88.3658 117.276ZM44.5974 21.5992C44.5974 22.3998 44.5758 23.2005 44.6023 24.0011C44.6388 25.0609 45.2771 25.5825 46.4857 25.5875C47.8584 25.5941 48.5415 25.114 48.5647 24.031C48.5995 22.4314 48.6028 20.8284 48.5631 19.2288C48.5365 18.1707 47.7888 17.5926 46.6067 17.6092C45.3302 17.6275 44.6372 18.1906 44.6007 19.2819C44.5775 20.0527 44.5974 20.8251 44.5974 21.5992ZM40.6201 45.5139C40.6201 46.3146 40.5853 47.1152 40.6284 47.9142C40.6897 49.057 41.3363 49.5188 42.7637 49.5072C43.8729 49.4972 44.5675 48.9358 44.5891 47.9408C44.6222 46.3694 44.6239 44.7947 44.5891 43.2233C44.5642 42.1585 43.7435 41.5074 42.5747 41.5373C41.3363 41.5688 40.6466 42.1751 40.6234 43.2797C40.6052 44.0239 40.6184 44.7697 40.6201 45.5139ZM8.73213 81.3968C9.53124 81.3968 10.332 81.4217 11.1311 81.3902C12.0943 81.352 12.7177 80.7158 12.7658 79.7839C12.8404 78.362 12.406 77.5647 11.3201 77.5132C9.64397 77.4334 7.95789 77.4384 6.28342 77.5381C5.1345 77.6062 4.74489 78.3039 4.80789 79.7556C4.851 80.7357 5.47603 81.3569 6.49895 81.3918C7.24334 81.4167 7.98774 81.3968 8.73213 81.3968ZM52.5553 45.6152C52.5553 45.2299 52.5553 44.8428 52.5553 44.4575C52.5553 44.0721 52.5718 43.685 52.5503 43.2997C52.4906 42.2117 51.7296 41.4924 50.6984 41.5306C49.2726 41.5838 48.5912 42.1635 48.5796 43.3794C48.5647 44.8677 48.5614 46.3577 48.5813 47.8477C48.5962 48.9341 49.2677 49.5055 50.4746 49.5088C51.8556 49.5138 52.5204 48.9922 52.5503 47.8511C52.5702 47.1052 52.5553 46.3594 52.5553 45.6152ZM8.75203 89.37C9.52295 89.37 10.2955 89.3916 11.0648 89.3651C12.1142 89.3285 12.721 88.7338 12.7658 87.7472C12.8304 86.3003 12.3646 85.5263 11.2206 85.4764C9.60087 85.4067 7.97116 85.4166 6.35139 85.4931C5.19916 85.5479 4.73495 86.2871 4.80955 87.6608C4.86592 88.7122 5.48266 89.3385 6.52216 89.3667C7.26489 89.3883 8.00763 89.3717 8.75203 89.37ZM60.475 49.5038C61.2459 49.5038 62.0185 49.5221 62.7878 49.4989C63.8687 49.4673 64.4706 48.8162 64.4921 47.6982C64.5186 46.3494 63.9964 45.6285 62.8408 45.5986C61.2725 45.5588 59.7008 45.572 58.1324 45.6252C56.9371 45.6667 56.4928 46.3245 56.5342 47.8095C56.5641 48.8477 57.1874 49.4756 58.2435 49.5005C58.9879 49.5188 59.7306 49.5038 60.475 49.5038ZM84.3868 37.642C84.3868 36.8962 84.4067 36.1487 84.3819 35.4028C84.3404 34.2002 83.6839 33.6388 82.3708 33.6421C81.0876 33.6454 80.4228 34.2467 80.4129 35.4494C80.3996 36.8879 80.4029 38.3247 80.4129 39.7632C80.4212 40.9143 81.0694 41.5074 82.3178 41.5339C83.5794 41.5605 84.347 40.931 84.3852 39.8014C84.4067 39.0805 84.3868 38.3596 84.3868 37.642ZM88.3658 29.6854C88.3658 28.9661 88.3658 28.2469 88.3658 27.5293C88.3658 27.4745 88.3691 27.418 88.3641 27.3632C88.2763 26.1921 87.6015 25.6489 86.2752 25.6788C85.0168 25.7071 84.4001 26.2768 84.3902 27.4628C84.3769 28.8997 84.3802 30.3382 84.3885 31.7767C84.3951 32.9245 85.0533 33.5374 86.2735 33.559C87.5899 33.5806 88.3376 32.9444 88.3625 31.7617C88.3774 31.0674 88.3658 30.3764 88.3658 29.6854ZM28.6318 85.4798C28.6318 85.4847 28.6318 85.4914 28.6318 85.4964C27.8593 85.4964 27.0867 85.4681 26.3158 85.503C25.1901 85.5529 24.6993 86.1658 24.7043 87.4382C24.7076 88.6342 25.2895 89.3418 26.3655 89.3617C27.8825 89.3916 29.3994 89.3866 30.9164 89.3617C32.0338 89.3435 32.6572 88.6574 32.6605 87.5129C32.6655 86.1492 32.1482 85.5213 30.9479 85.4814C30.177 85.4598 29.4044 85.4798 28.6318 85.4798ZM60.422 117.394C60.422 117.396 60.422 117.396 60.422 117.398C59.7323 117.398 59.0426 117.383 58.3529 117.401C57.0913 117.434 56.5276 118.037 56.5342 119.316C56.5408 120.587 57.1344 121.241 58.3612 121.26C59.8235 121.281 61.2857 121.283 62.748 121.258C63.9036 121.238 64.4971 120.52 64.4921 119.225C64.4871 118.042 63.9118 117.431 62.7397 117.399C61.9671 117.378 61.1946 117.394 60.422 117.394ZM38.5925 9.64097C40.0713 9.6443 40.5587 9.12271 40.6333 7.71577C40.7146 6.19421 39.7281 5.63941 38.7002 5.64439C37.2728 5.65269 36.6428 6.23408 36.6395 7.57292C36.6345 9.13766 37.107 9.63765 38.5925 9.64097ZM6.76753 41.5339C8.24305 41.5356 8.78684 41.0107 8.78684 39.5855C8.7885 38.2001 8.18668 37.544 6.91674 37.5423C5.41634 37.5407 4.81287 38.1104 4.80789 39.5406C4.80292 41.019 5.30692 41.5323 6.76753 41.5339ZM38.5477 17.6126C40.068 17.6126 40.6151 17.1126 40.6184 15.7206C40.6217 14.2688 40.0216 13.6143 38.6986 13.6209C37.233 13.6276 36.6395 14.214 36.6395 15.6558C36.6411 17.1009 37.1402 17.6126 38.5477 17.6126ZM6.74929 53.4938C8.22316 53.4988 8.78518 52.9705 8.78684 51.5736C8.7885 50.1633 8.21321 49.5188 6.93829 49.5088C5.45282 49.4972 4.81287 50.0869 4.80789 51.4739C4.80292 52.9207 5.34837 53.4888 6.74929 53.4938ZM48.5763 7.68089C48.578 6.27062 47.9662 5.63608 46.6183 5.64771C45.2124 5.65934 44.5974 6.26896 44.5974 7.646C44.5974 9.10444 45.1229 9.63931 46.5636 9.64097C48.0292 9.64264 48.5747 9.11109 48.5763 7.68089ZM54.495 25.5875C55.9722 25.5875 56.5326 25.0542 56.5342 23.6506C56.5359 22.2786 55.8959 21.5792 54.6525 21.5942C53.1786 21.6108 52.5553 22.2138 52.5553 23.6274C52.5553 25.021 53.114 25.5858 54.495 25.5875ZM8.78684 63.5135C8.78518 62.1796 8.14524 61.4537 6.97974 61.4637C5.43458 61.4753 4.80458 62.0667 4.80789 63.5035C4.81121 64.8806 5.38484 65.4536 6.75426 65.4553C8.22647 65.4536 8.7885 64.9171 8.78684 63.5135ZM42.5532 37.5473C43.9956 37.5556 44.5874 37.0224 44.5974 35.7101C44.609 34.2152 44.0635 33.5889 42.7505 33.5856C41.2783 33.5823 40.6251 34.1537 40.6184 35.4444C40.6118 36.9842 41.1208 37.539 42.5532 37.5473ZM46.5487 33.5607C48.0077 33.5607 48.5763 33.0208 48.5763 31.6371C48.5763 30.2252 48.006 29.6006 46.7211 29.604C45.2025 29.6056 44.599 30.1588 44.5974 31.5508C44.5957 33.0059 45.1345 33.5607 46.5487 33.5607ZM30.6346 49.5055C32.0968 49.5072 32.6605 48.969 32.6605 47.5687C32.6605 46.2415 32.0372 45.5504 30.8335 45.5438C29.2867 45.5338 28.6832 46.1036 28.6816 47.5703C28.6799 48.9457 29.2453 49.5038 30.6346 49.5055ZM50.4746 29.5724C51.98 29.5757 52.5519 29.0591 52.5553 27.6904C52.5586 26.2619 51.9485 25.5974 50.6255 25.5941C49.2279 25.5908 48.5813 26.217 48.5763 27.5774C48.5697 28.9894 49.1218 29.5691 50.4746 29.5724ZM50.526 37.5456C51.9883 37.5473 52.5553 37.0075 52.5553 35.6105C52.5569 34.2384 51.9269 33.5607 50.6619 33.5723C49.2047 33.5856 48.578 34.1969 48.5763 35.6038C48.5747 36.9809 49.14 37.544 50.526 37.5456ZM46.552 41.5339C47.9878 41.5389 48.568 41.0057 48.5763 39.6702C48.5846 38.2566 47.9977 37.5739 46.7609 37.5639C45.2473 37.5506 44.599 38.1586 44.5974 39.5921C44.5957 40.9559 45.1727 41.5289 46.552 41.5339ZM54.5331 33.559C55.9506 33.5607 56.5276 33.0175 56.5342 31.6787C56.5392 30.2734 55.9324 29.5824 54.6973 29.584C53.1886 29.5874 52.5553 30.1953 52.5553 31.6438C52.5553 33.0009 53.1289 33.5574 54.5331 33.559ZM30.6379 65.452C32.0471 65.4553 32.6605 64.8822 32.6605 63.565C32.6605 62.1198 32.1167 61.5318 30.7838 61.5351C29.2419 61.5385 28.6816 62.0634 28.6816 63.5035C28.6816 64.8789 29.2536 65.4487 30.6379 65.452ZM22.6336 73.4252C24.0876 73.4335 24.6894 72.8987 24.7026 71.5864C24.7176 70.1811 24.1074 69.4768 22.8756 69.4835C21.3388 69.4918 20.7303 70.0399 20.7237 71.4269C20.7171 72.8023 21.3056 73.4186 22.6336 73.4252ZM14.7304 77.4118C16.123 77.4135 16.7414 76.8321 16.7447 75.5199C16.7481 74.1162 16.1545 73.4701 14.8663 73.4717C13.3974 73.4751 12.7674 74.0764 12.7658 75.48C12.7641 76.8421 13.3427 77.4102 14.7304 77.4118ZM10.7647 73.4252C12.1772 73.4269 12.7625 72.8787 12.7658 71.5482C12.7691 70.2359 12.1093 69.4419 11.0068 69.4353C9.45497 69.4253 8.78518 70.0515 8.78684 71.5166C8.7885 72.8555 9.37539 73.4236 10.7647 73.4252ZM24.7026 75.4617C24.7043 76.8055 25.3177 77.4102 26.6805 77.4118C28.0814 77.4135 28.6882 76.8338 28.6816 75.4999C28.6749 74.1445 28.0731 73.4917 26.8314 73.4933C25.2912 73.495 24.701 74.0415 24.7026 75.4617ZM28.6816 71.4817C28.6799 72.8389 29.2668 73.4219 30.6346 73.4252C32.0637 73.4285 32.6556 72.8837 32.6605 71.5582C32.6655 70.1379 32.1051 69.53 30.7871 69.5316C29.237 69.5349 28.6832 70.0482 28.6816 71.4817ZM40.6184 119.373C40.6151 118.052 39.9486 117.316 38.7732 117.335C37.3026 117.358 36.6428 117.947 36.6395 119.241C36.6378 120.61 37.2894 121.263 38.6571 121.265C39.9437 121.265 40.6217 120.612 40.6184 119.373ZM22.7314 85.3851C24.0693 85.3884 24.696 84.8004 24.7026 83.538C24.7109 82.126 24.134 81.4948 22.8325 81.4931C21.3288 81.4898 20.7287 82.0264 20.7237 83.3768C20.7187 84.7672 21.3338 85.3818 22.7314 85.3851ZM92.3464 119.408C92.3298 120.66 92.9532 121.251 94.3093 121.265C95.6141 121.278 96.3137 120.647 96.3237 119.449C96.3353 118.009 95.7517 117.376 94.3955 117.359C92.9664 117.34 92.3663 117.941 92.3464 119.408ZM18.7392 89.3717C20.0721 89.3833 20.7154 88.787 20.7237 87.5312C20.7336 86.1259 20.1898 85.503 18.9414 85.4847C17.3797 85.4615 16.7547 85.9964 16.7447 87.3618C16.7348 88.7687 17.32 89.3584 18.7392 89.3717ZM108.261 115.436C108.265 114.08 107.576 113.363 106.276 113.373C104.948 113.383 104.29 113.999 104.283 115.237C104.275 116.675 104.883 117.278 106.341 117.276C107.548 117.276 108.256 116.597 108.261 115.436ZM86.3597 9.73566C84.9572 9.74064 84.3852 10.3038 84.3868 11.6775C84.3885 13.0429 85.0218 13.6359 86.4642 13.6243C87.7142 13.6143 88.3658 12.9399 88.3658 11.6575C88.3641 10.3187 87.7524 9.73067 86.3597 9.73566ZM100.303 119.298C100.306 120.638 100.969 121.268 102.373 121.263C103.6 121.26 104.278 120.604 104.28 119.416C104.282 118.009 103.658 117.361 102.302 117.363C100.941 117.366 100.299 117.986 100.303 119.298ZM118.258 117.376C116.775 117.396 116.19 117.987 116.218 119.434C116.243 120.725 116.873 121.278 118.306 121.265C119.544 121.253 120.217 120.552 120.197 119.293C120.176 117.986 119.541 117.359 118.258 117.376ZM112.239 87.3717C112.23 88.6425 112.926 89.3484 114.207 89.3684C115.464 89.3883 116.203 88.699 116.218 87.498C116.233 86.1459 115.627 85.523 114.282 85.508C112.883 85.4947 112.251 86.0711 112.239 87.3717ZM64.4921 95.4231C64.4921 96.7154 65.137 97.3317 66.5031 97.3433C67.8195 97.3549 68.4876 96.6489 68.4694 95.2702C68.4528 94.0493 67.8311 93.4696 66.5247 93.458C65.1138 93.4447 64.4921 94.046 64.4921 95.4231ZM94.2397 61.5899C92.9101 61.6365 92.3016 62.2959 92.3563 63.6331C92.4077 64.9188 93.109 65.4885 94.5729 65.4088C95.5859 65.354 96.4149 64.7693 96.3054 63.3906C96.206 62.1497 95.5594 61.5434 94.2397 61.5899ZM110.074 37.7051C108.818 37.5041 108.287 38.4858 108.28 39.6901C108.274 40.9243 109.028 41.5489 110.456 41.5289C111.614 41.5123 112.22 40.828 112.213 39.5406C112.206 38.2051 111.606 37.6885 110.074 37.7051ZM96.3204 43.6053C96.3568 42.4226 95.7103 41.6967 94.5846 41.6485C93.0643 41.5854 92.3779 42.1552 92.3481 43.5073C92.3199 44.7515 92.9897 45.4624 94.238 45.5139C95.503 45.5654 96.2822 44.8511 96.3204 43.6053ZM106.104 77.5613C104.772 77.6394 104.182 78.3404 104.283 79.7191C104.363 80.8171 105.266 81.4965 106.579 81.3852C107.475 81.3088 108.4 80.6875 108.266 79.2141C108.154 77.9899 107.511 77.4783 106.104 77.5613ZM98.2485 37.6669C96.9902 37.6985 96.3154 38.3397 96.3253 39.4941C96.3369 40.8778 97.0747 41.5422 98.5453 41.499C99.6677 41.4658 100.309 40.7499 100.276 39.5672C100.24 38.2533 99.5798 37.6337 98.2485 37.6669Z" fill="white"/>
<path d="M104.282 109.363C104.282 110.117 104.286 110.808 104.28 111.497C104.27 112.576 103.633 113.26 102.549 113.281C101.085 113.311 99.6195 113.308 98.1573 113.283C96.9271 113.262 96.307 112.577 96.3236 111.333C96.3419 110.036 96.9055 109.446 98.1655 109.426C98.8486 109.416 99.5333 109.424 100.258 109.424C100.258 108.029 100.258 106.715 100.258 105.36C97.6383 105.36 95.052 105.36 92.343 105.36C92.343 106.059 92.348 106.767 92.3414 107.473C92.3331 108.586 91.6865 109.28 90.584 109.297C89.1483 109.32 87.7109 109.32 86.2735 109.295C84.9969 109.272 84.3918 108.614 84.3851 107.31C84.3818 106.679 84.3851 106.047 84.3851 105.317C83.6706 105.317 83.0174 105.328 82.3625 105.315C80.9831 105.287 80.4078 104.702 80.4062 103.342C80.4045 102.013 80.3962 100.684 80.4095 99.3549C80.4228 98.0592 80.9748 97.5061 82.2697 97.4762C82.9295 97.4613 83.5893 97.4729 84.3437 97.4729C84.3586 97.129 84.3835 96.8383 84.3835 96.5493C84.3868 93.5593 84.3835 90.571 84.3851 87.5811C84.3868 86.0778 84.9074 85.5363 86.4028 85.5197C88.0872 85.5014 89.7733 85.508 91.4577 85.5047C91.7263 85.5047 91.9949 85.5047 92.3016 85.5047C92.3016 84.0978 92.3016 82.7822 92.3016 81.347C91.5489 81.347 90.8128 81.3686 90.0783 81.342C88.9394 81.3005 88.3375 80.5945 88.3624 79.3769C88.3873 78.1859 88.9792 77.5614 90.1098 77.5414C90.7995 77.5298 91.4909 77.5248 92.1805 77.5149C92.2021 77.5149 92.2236 77.485 92.3414 77.3986C92.3414 76.0149 92.3397 74.5581 92.3414 73.1013C92.3414 72.4917 92.3314 71.8821 92.353 71.2741C92.3928 70.1911 92.9813 69.5998 94.049 69.5715C94.7636 69.5533 95.4781 69.5682 96.3186 69.5682C96.3186 68.8955 96.3137 68.2726 96.3203 67.6513C96.3336 66.1679 96.9039 65.5949 98.3628 65.5915C98.9663 65.5899 99.5714 65.5915 100.298 65.5915C100.298 64.8474 100.293 64.1697 100.299 63.4919C100.311 62.1763 100.933 61.6116 102.355 61.6182C103.671 61.6249 104.262 62.2345 104.253 63.5567C104.245 64.8573 104.255 66.158 104.248 67.4603C104.242 68.7559 103.555 69.4237 102.242 69.4254C101.614 69.4254 100.986 69.4254 100.321 69.4254C100.321 73.4884 100.321 77.4601 100.321 81.5198C101.07 81.5198 101.781 81.5048 102.491 81.5231C103.622 81.5513 104.255 82.2091 104.275 83.3553C104.285 83.9915 104.283 84.6277 104.293 85.2639C104.293 85.312 104.331 85.3619 104.396 85.5114C105.064 85.5114 105.775 85.4964 106.487 85.5147C107.645 85.5446 108.246 86.1692 108.254 87.3336C108.259 88.0196 108.255 88.7056 108.255 89.4913C109.011 89.4913 109.695 89.4814 110.376 89.493C111.628 89.5146 112.239 90.1524 112.236 91.4116C112.233 92.5926 111.527 93.3467 110.371 93.3534C108.383 93.3667 106.395 93.3567 104.343 93.3567C104.343 96.0493 104.343 98.7104 104.343 101.446C105.051 101.446 105.735 101.438 106.42 101.448C107.66 101.468 108.224 102.029 108.254 103.287C108.27 103.971 108.257 104.657 108.257 105.39C109.595 105.39 110.853 105.39 112.236 105.39C112.236 104.715 112.236 104.064 112.236 103.413C112.236 102.029 112.218 100.644 112.244 99.2602C112.268 98.0609 112.853 97.4928 114.028 97.4745C114.715 97.4646 115.403 97.4729 116.165 97.4729C116.184 97.1506 116.212 96.8865 116.212 96.6207C116.215 94.8484 116.205 93.0776 116.217 91.3052C116.225 90.0794 116.863 89.4947 118.155 89.4913C119.508 89.488 120.182 90.0727 120.189 91.3219C120.204 94.0627 120.197 96.8035 120.191 99.5426C120.187 100.606 119.524 101.287 118.447 101.325C117.735 101.35 117.021 101.33 116.261 101.33C116.261 104.038 116.261 106.679 116.261 109.406C116.991 109.406 117.702 109.391 118.412 109.409C119.64 109.441 120.194 110.066 120.192 111.388C120.191 112.569 119.551 113.267 118.398 113.285C116.989 113.305 115.58 113.308 114.171 113.285C112.894 113.263 112.244 112.585 112.236 111.326C112.231 110.692 112.236 110.057 112.236 109.363C109.593 109.363 106.987 109.363 104.282 109.363ZM100.268 89.4265C96.2706 89.4265 92.338 89.4265 88.4337 89.4265C88.4337 93.4597 88.4337 97.428 88.4337 101.396C92.4126 101.396 96.3236 101.396 100.268 101.396C100.268 97.3931 100.268 93.4431 100.268 89.4265Z" fill="black"/>
<path d="M50.5659 63.4172C50.7068 56.7944 55.7004 51.6118 62.3353 51.5454C69.2089 51.4756 74.3749 56.7778 74.4263 63.5351C74.4777 70.1081 69.0514 75.4235 62.4066 75.4235C55.8927 75.4202 50.5659 70.02 50.5659 63.4172ZM63.8788 62.5717C63.9219 62.6381 63.9634 62.7046 64.0065 62.771C63.6368 63.2461 63.2654 63.7178 62.9007 64.1946C62.5326 64.6779 62.1728 65.1646 61.8131 65.653C61.4251 66.1796 61.3157 66.741 61.8711 67.1895C62.705 67.8623 63.5655 68.5068 64.4607 69.0931C65.1736 69.5616 65.8169 69.236 65.9727 68.3822C66.0871 67.7609 66.1667 67.1314 66.2446 66.5035C66.4933 64.5102 66.7619 62.5185 66.9675 60.5202C67.0669 59.5535 66.7105 59.2744 65.8119 59.5701C64.464 60.0136 63.1294 60.502 61.7965 60.9903C60.0723 61.6232 58.3481 62.2627 56.6388 62.9321C56.3652 63.0401 55.9839 63.3159 55.9707 63.5335C55.9574 63.7643 56.2757 64.1099 56.5327 64.2411C57.2356 64.5999 57.9585 64.9936 58.7194 65.1397C59.2483 65.2411 59.928 65.0916 60.4072 64.8191C61.4085 64.251 62.3204 63.5235 63.277 62.8723C63.4627 62.7494 63.6782 62.6713 63.8788 62.5717Z" fill="black"/>
<path d="M32.6606 19.6839C32.6606 21.8434 32.6507 24.0011 32.6623 26.1605C32.6805 29.4445 30.8717 32.363 27.5377 33.2501C26.8812 33.4245 26.1865 33.5424 25.5084 33.5457C20.9774 33.5723 16.4481 33.5723 11.917 33.5557C7.86016 33.5408 4.81129 30.4478 4.80632 26.3682C4.803 21.8566 4.76653 17.3451 4.81958 12.8336C4.85274 9.96821 6.07958 7.70414 8.72889 6.47494C9.76508 5.99322 10.982 5.70585 12.1243 5.6826C16.4315 5.5929 20.742 5.6311 25.0509 5.6527C28.0782 5.66765 30.5468 6.78058 31.8947 9.63101C32.3489 10.5895 32.5744 11.7256 32.6241 12.7937C32.7352 15.086 32.6606 17.3866 32.6606 19.6839ZM18.7194 29.4296C18.7194 29.4744 18.7194 29.5209 18.7194 29.5658C20.2115 29.5658 21.7019 29.5708 23.194 29.5641C26.4054 29.5525 28.6634 27.32 28.6783 24.1224C28.6916 21.1341 28.6933 18.1441 28.6783 15.1558C28.6618 11.9831 26.354 9.66756 23.1708 9.6443C20.1883 9.62271 17.2041 9.5845 14.2215 9.65593C11.1212 9.72902 8.91292 11.7423 8.81013 14.9747C8.71066 18.0993 8.73884 21.2288 8.8035 24.3549C8.85987 27.1123 10.7217 29.1987 13.1041 29.398C14.9626 29.5558 16.8459 29.4296 18.7194 29.4296Z" fill="black"/>
<path d="M19.2847 93.5045C21.5477 93.5045 23.8124 93.4597 26.0754 93.5145C29.426 93.5959 32.3572 96.2985 32.4832 99.6821C32.6622 104.486 32.6854 109.301 32.6291 114.109C32.5959 116.977 31.3309 119.3 28.6302 120.514C27.5858 120.984 26.3539 121.208 25.2017 121.23C20.8945 121.311 16.5856 121.3 12.2784 121.25C9.28591 121.215 6.83388 120.067 5.54736 117.218C5.08646 116.198 4.85933 114.992 4.83944 113.866C4.75986 109.496 4.76317 105.122 4.8212 100.752C4.86928 97.0493 6.73938 94.5959 10.3553 93.6025C11.0831 93.4032 11.8871 93.4414 12.6564 93.4347C14.8647 93.4148 17.0747 93.4281 19.2847 93.4281C19.2847 93.4547 19.2847 93.4796 19.2847 93.5045ZM8.78688 107.39C8.78688 108.913 8.77859 110.434 8.78854 111.958C8.80844 114.826 10.5907 117.052 13.4456 117.225C16.9388 117.436 20.4618 117.447 23.9583 117.27C26.7983 117.127 28.6667 114.831 28.6783 111.961C28.6916 108.888 28.6949 105.815 28.6766 102.742C28.6584 99.6356 26.3838 97.3599 23.2951 97.3466C20.2562 97.335 17.2173 97.3333 14.1767 97.3483C11.0748 97.3632 8.81175 99.6323 8.78688 102.737C8.77694 104.288 8.78688 105.84 8.78688 107.39Z" fill="black"/>
<path d="M106.148 5.85201C108.634 5.85201 111.119 5.81048 113.602 5.86198C116.693 5.92676 119.974 8.68417 120.022 12.1226C120.088 16.8468 120.179 21.5726 120.151 26.2951C120.138 28.584 119.294 30.5857 117.42 32.0541C115.973 33.1886 114.272 33.4809 112.523 33.4976C108.299 33.5374 104.073 33.5324 99.8467 33.5009C96.8011 33.4793 94.3508 32.3082 93.0808 29.4063C92.6216 28.3565 92.3961 27.1289 92.3745 25.9761C92.2933 21.6889 92.2784 17.3983 92.3613 13.111C92.4342 9.32369 94.3159 6.82873 98.1175 5.85699C98.7442 5.69753 99.4355 5.77062 100.097 5.76729C102.113 5.75733 104.129 5.76397 106.145 5.76397C106.148 5.79553 106.148 5.82377 106.148 5.85201ZM96.3236 19.6291C96.3236 21.1789 96.3137 22.7287 96.3253 24.2785C96.3502 27.3233 98.5088 29.6272 101.519 29.6937C104.611 29.7618 107.707 29.7601 110.799 29.7053C114.106 29.6471 116.218 27.4329 116.233 24.1041C116.247 21.0593 116.248 18.0145 116.233 14.9714C116.218 11.9083 113.959 9.64926 110.92 9.64096C107.909 9.63265 104.898 9.66255 101.888 9.63265C98.6712 9.60109 96.3552 11.8336 96.327 15.0644C96.312 16.5843 96.3236 18.1075 96.3236 19.6291Z" fill="black"/>
<path d="M48.621 117.371C49.3704 117.371 50.0833 117.358 50.7945 117.374C51.9385 117.401 52.5453 118.075 52.5552 119.301C52.5652 120.506 51.9451 121.235 50.8211 121.258C49.3572 121.286 47.8932 121.286 46.4293 121.258C45.2058 121.233 44.6007 120.564 44.5973 119.305C44.5924 117.394 44.5924 115.486 44.589 113.575C44.589 113.522 44.5692 113.469 44.5327 113.291C44.0768 113.291 43.5927 113.291 43.1069 113.291C41.5601 113.291 40.0133 113.303 38.4664 113.288C37.3175 113.276 36.6875 112.64 36.6394 111.497C36.5847 110.177 37.097 109.511 38.3089 109.424C39.0434 109.373 39.7861 109.414 40.6184 109.414C40.6184 108.659 40.6134 107.976 40.62 107.293C40.63 106.067 41.197 105.476 42.4305 105.436C43.1152 105.415 43.8015 105.433 44.599 105.433C44.599 104.654 44.5907 103.946 44.6007 103.237C44.6156 102.102 45.1909 101.491 46.3083 101.451C47.0212 101.426 47.7374 101.446 48.5779 101.446C48.5779 100.707 48.5746 100.029 48.5779 99.3499C48.5862 97.9911 49.2245 97.428 50.7581 97.4214C51.8788 97.4164 52.5503 98.1107 52.5536 99.325C52.5619 102.645 52.5569 105.964 52.5569 109.35C53.8749 109.35 55.1515 109.35 56.5358 109.35C56.5358 109.047 56.5358 108.753 56.5358 108.459C56.5358 105.443 56.5342 102.425 56.5375 99.408C56.5392 98.026 57.1642 97.4197 58.5684 97.428C59.8798 97.4346 60.5131 98.0775 60.5148 99.4396C60.5198 103.398 60.5214 107.356 60.5148 111.313C60.5131 112.639 59.8549 113.281 58.5319 113.29C57.9019 113.293 57.2703 113.29 56.5392 113.29C56.5392 114.056 56.5441 114.765 56.5375 115.474C56.5259 116.683 55.8843 117.273 54.5895 117.275C53.23 117.276 52.5718 116.692 52.5619 115.464C52.5552 114.776 52.5602 114.087 52.5602 113.345C51.2306 113.345 49.9507 113.345 48.626 113.345C48.621 114.677 48.621 115.987 48.621 117.371Z" fill="black"/>
<path d="M84.3867 61.4637C84.3867 62.2511 84.3983 62.9371 84.3834 63.6248C84.3602 64.756 83.7103 65.4188 82.5896 65.447C81.9016 65.4636 81.2135 65.4503 80.4061 65.4503C80.4061 66.1181 80.426 66.7427 80.4028 67.3656C80.3365 69.0997 79.0483 69.9519 77.4518 69.2576C77.0854 69.0981 76.6344 68.6263 76.6096 68.2725C76.4852 66.4835 76.4156 64.6846 76.4819 62.8939C76.5101 62.1365 77.1152 61.6199 77.9607 61.6049C78.7532 61.59 79.5473 61.6016 80.373 61.6016C80.373 58.8525 80.373 56.2313 80.373 53.4921C79.7446 53.4921 79.1213 53.4971 78.4979 53.4905C77.0439 53.4755 76.4338 52.8659 76.4305 51.4324C76.4288 50.8277 76.4305 50.2231 76.4305 49.5072C75.0644 49.5072 73.7497 49.5072 72.435 49.5072C71.7436 49.5072 71.054 49.5122 70.3626 49.5055C69.1192 49.4939 68.4809 48.861 68.4743 47.6202C68.466 45.6833 68.4676 43.7448 68.4643 41.808C68.4643 41.7549 68.4428 41.7034 68.4046 41.5306C67.7266 41.5306 67.022 41.5356 66.3157 41.5289C65.3292 41.5206 64.8203 41.1785 64.555 40.3529C64.2649 39.4509 64.5484 38.3413 65.2281 37.8812C65.4171 37.7533 65.6824 37.6885 65.9161 37.6835C67.5458 37.652 69.1756 37.6171 70.8036 37.637C71.8182 37.6503 72.4151 38.2981 72.4516 39.3263C72.4764 40.0439 72.4781 40.7632 72.4913 41.4808C72.4913 41.504 72.5162 41.5256 72.5892 41.6436C72.9904 41.6436 73.4529 41.6436 73.9138 41.6436C76.0691 41.6386 76.4322 42.0107 76.4322 44.2133C76.4322 44.6518 76.4322 45.0903 76.4322 45.5837C79.103 45.5837 81.7092 45.5837 84.3901 45.5837C84.3901 44.8262 84.3768 44.1119 84.3934 43.3993C84.4216 42.205 85.0516 41.6652 86.3911 41.6569C87.6909 41.6502 88.3392 42.1801 88.3624 43.3495C88.3922 44.8163 88.3872 46.283 88.364 47.7497C88.3491 48.7564 87.6478 49.449 86.6465 49.5005C86.2883 49.5188 85.9286 49.5038 85.5688 49.5038C85.214 49.5038 84.8576 49.5038 84.4481 49.5038C84.4481 52.1981 84.4481 54.8393 84.4481 57.5884C85.1543 57.5884 85.8639 57.5751 86.5718 57.5917C87.7274 57.6183 88.3508 58.2213 88.364 59.3026C88.3823 60.6913 87.7854 61.4205 86.5685 61.4604C85.8755 61.4836 85.1875 61.4637 84.3867 61.4637Z" fill="black"/>
<path d="M76.429 13.7023C78.4782 13.7023 80.408 13.6874 82.3377 13.7073C83.9061 13.7239 84.6008 14.5594 84.372 16.0926C84.236 17.0046 83.6259 17.5743 82.6958 17.6075C81.9796 17.6324 81.2618 17.6125 80.408 17.6125C80.408 18.3451 80.4113 19.051 80.408 19.7553C80.4013 20.9364 79.7763 21.5709 78.5793 21.5958C77.8946 21.6108 77.2099 21.5991 76.4787 21.5991C76.4787 22.9845 76.4787 24.2984 76.4787 25.6572C77.1966 25.6572 77.9029 25.6439 78.6091 25.6605C79.715 25.6854 80.3781 26.305 80.4013 27.403C80.4328 28.8963 80.4345 30.3913 80.4013 31.8846C80.3765 33.0291 79.6619 33.5723 78.314 33.5607C77.1568 33.5507 76.4655 32.9261 76.4356 31.8348C76.4157 31.1188 76.4323 30.4029 76.4323 29.6322C75.1027 29.6322 73.8245 29.6322 72.4534 29.6322C72.4534 30.3016 72.4567 30.9577 72.4534 31.6139C72.4467 32.9793 71.8201 33.5656 70.3843 33.5607C69.0912 33.5557 68.4777 32.9444 68.4761 31.6454C68.4728 29.6587 68.4761 27.6737 68.4761 25.5891C67.7035 25.5891 66.9939 25.599 66.286 25.5874C65.1122 25.5691 64.5054 24.9645 64.4988 23.8034C64.4905 22.448 64.4955 21.0925 64.4971 19.7371C64.4988 18.2703 65.0525 17.679 66.5247 17.6607C68.2357 17.6408 69.9483 17.6673 71.6592 17.674C71.8781 17.674 72.0986 17.674 72.455 17.674C72.455 17.3484 72.455 17.061 72.455 16.772C72.455 13.7289 72.4534 10.6858 72.4567 7.64264C72.4583 6.28553 73.032 5.74069 74.4578 5.72574C75.8239 5.71245 76.429 6.3038 76.434 7.67254C76.4323 9.65755 76.429 11.6442 76.429 13.7023Z" fill="black"/>
<path d="M28.6817 53.5121C30.0528 53.5121 31.3144 53.5121 32.6606 53.5121C32.6606 52.753 32.649 52.0404 32.664 51.3278C32.6888 50.1085 33.415 49.5055 34.8225 49.5155C35.9184 49.5238 36.6081 50.1966 36.6363 51.3095C36.6545 52.0238 36.6396 52.7397 36.6396 53.5652C36.9944 53.5652 37.2878 53.5652 37.5813 53.5652C40.5655 53.5603 43.5497 53.5536 46.5339 53.5503C48.026 53.5486 48.5814 54.1084 48.5781 55.5901C48.5748 56.9057 47.9647 57.4755 46.5555 57.4788C45.9487 57.4804 45.3419 57.4788 44.5991 57.4788C44.5991 58.208 44.6025 58.914 44.5991 59.6199C44.5909 60.8159 43.9658 61.4604 42.7904 61.4621C40.0001 61.4687 37.2082 61.4687 34.418 61.4621C33.3122 61.4588 32.6822 60.8292 32.6656 59.7296C32.654 59.0153 32.664 58.2994 32.664 57.5319C31.3459 57.5319 30.0859 57.5319 28.685 57.5319C28.685 58.2063 28.6883 58.9123 28.685 59.6183C28.6767 60.8574 28.1047 61.4405 26.8713 61.4654C26.2081 61.4787 25.5466 61.4803 24.8835 61.4887C24.8602 61.4887 24.837 61.5119 24.7077 61.5833C24.7077 62.2312 24.7127 62.9404 24.7061 63.6497C24.6961 64.7992 24.0777 65.4387 22.9255 65.447C20.9095 65.4603 18.8951 65.4504 16.7482 65.4504C16.7482 66.1879 16.7515 66.8938 16.7482 67.5998C16.7399 68.8373 16.1596 69.4237 14.9344 69.437C13.4075 69.4536 12.7908 68.942 12.7742 67.6031C12.7576 66.246 12.7692 64.8906 12.7709 63.5335C12.7742 62.1199 13.3097 61.5385 14.7603 61.5053C16.4448 61.4654 18.1308 61.4936 19.8169 61.4936C20.0888 61.4936 20.3591 61.4936 20.7288 61.4936C20.7288 60.7544 20.7221 60.0701 20.7304 59.3874C20.7437 58.2296 21.2311 57.6598 22.39 57.5652C23.1261 57.5054 23.8705 57.5535 24.7077 57.5535C24.7077 56.1283 24.7077 54.8077 24.7077 53.4872C24.7077 52.851 24.7061 52.2131 24.7077 51.5769C24.711 50.1085 25.3245 49.5205 26.8563 49.5188C28.0417 49.5172 28.6817 50.2298 28.6867 51.5586C28.6833 52.1915 28.6817 52.8244 28.6817 53.5121Z" fill="black"/>
<path d="M12.7658 57.6C12.7658 58.2777 12.7724 58.9903 12.7641 59.7029C12.7492 60.9222 12.1374 61.4687 10.8078 61.467C9.39859 61.4653 8.79512 60.9321 8.78849 59.6597C8.78185 58.2478 8.7802 56.8359 8.78849 55.424C8.79512 54.1765 9.33393 53.5901 10.5691 53.527C11.2571 53.4904 11.9484 53.5203 12.7028 53.5203C12.7028 52.1998 12.7028 50.9141 12.7028 49.5055C12.0181 49.5055 11.3135 49.5105 10.6072 49.5038C9.50635 49.4955 8.88299 48.9822 8.78849 48.0172C8.63928 46.4989 9.08359 45.7282 10.3237 45.572C11.083 45.4757 11.8655 45.5538 12.7658 45.5538C12.7658 45.1684 12.7658 44.8494 12.7658 44.5305C12.7658 42.8412 12.7608 41.1535 12.7674 39.4642C12.7724 38.1204 13.419 37.5323 14.8647 37.5373C16.1562 37.5423 16.7381 38.1453 16.7431 39.4941C16.7464 40.1519 16.7431 40.8097 16.7431 41.5239C17.2537 41.5239 17.6864 41.5239 18.1175 41.5239C20.9641 41.5239 23.809 41.5322 26.6556 41.5173C27.4282 41.514 28.1328 41.7067 28.4627 42.4176C28.8457 43.2432 28.8971 44.18 28.2936 44.9242C28.0284 45.2514 27.4647 45.4358 27.0137 45.494C26.2859 45.5853 25.5365 45.5189 24.701 45.5189C24.701 46.3245 24.7109 47.0637 24.6993 47.8012C24.6811 48.8759 24.0826 49.4922 23.0132 49.5005C20.969 49.5155 18.9249 49.5055 16.8127 49.5055C16.8127 50.8111 16.8127 52.0951 16.8127 53.5253C17.4875 53.5253 18.1921 53.5104 18.895 53.5287C20.2429 53.5635 20.7419 54.1615 20.722 55.6881C20.7071 56.8973 20.1136 57.4721 18.8652 57.4771C16.9039 57.4854 14.9426 57.4887 12.9813 57.497C12.9349 57.4987 12.8885 57.5419 12.7658 57.6Z" fill="black"/>
<path d="M72.4501 109.423C74.4578 109.423 76.3594 109.423 78.261 109.423C79.9338 109.423 80.408 109.901 80.408 111.599C80.4096 114.2 80.4113 116.801 80.4063 119.403C80.4047 120.509 79.7382 121.238 78.6506 121.258C77.2149 121.283 75.7775 121.27 74.3417 121.253C73.6288 121.245 72.9591 121.094 72.6374 120.348C72.3009 119.57 72.3009 118.746 72.7899 118.074C73.0386 117.732 73.5841 117.489 74.0267 117.428C74.7811 117.325 75.5586 117.399 76.376 117.399C76.376 116.007 76.376 114.697 76.376 113.336C75.1027 113.336 73.8427 113.336 72.4484 113.336C72.4484 113.996 72.4501 114.673 72.4484 115.351C72.4434 116.602 71.782 117.266 70.5137 117.275C69.1608 117.283 67.8063 117.273 66.4535 117.278C65.6527 117.281 64.9581 117.067 64.6464 116.253C64.3363 115.441 64.3231 114.561 64.9531 113.941C65.3095 113.59 65.9627 113.476 66.5032 113.396C67.1183 113.306 67.7566 113.376 68.428 113.376C68.428 110.692 68.428 108.071 68.428 105.315C67.7715 105.315 67.0951 105.325 66.4187 105.312C65.7074 105.298 65.026 105.189 64.6945 104.436C64.3546 103.664 64.3015 102.823 64.8072 102.162C65.0923 101.79 65.7107 101.503 66.1899 101.484C68.2274 101.411 70.2699 101.453 72.4484 101.453C72.4484 100.724 72.4401 100.046 72.4501 99.3698C72.4683 98.0144 73.0486 97.4712 74.4594 97.4679C75.7758 97.4662 76.4125 98.0676 76.4241 99.3549C76.4357 100.739 76.4323 102.122 76.4241 103.506C76.4191 104.589 75.7244 105.288 74.6335 105.312C73.9455 105.327 73.2575 105.315 72.4468 105.315C72.4468 105.999 72.4468 106.652 72.4468 107.303C72.4501 107.968 72.4501 108.632 72.4501 109.423Z" fill="black"/>
<path d="M80.4079 81.3719C80.4079 78.1527 80.4063 74.9152 80.4079 71.6794C80.4079 70.0865 80.9318 69.5682 82.5333 69.5665C83.1103 69.5649 83.6872 69.5665 84.3869 69.5665C84.3869 68.834 84.3802 68.1563 84.3885 67.4769C84.4034 66.1912 84.982 65.5932 86.242 65.5899C87.6778 65.5849 89.1152 65.5882 90.5509 65.6165C91.796 65.6414 92.3514 66.2676 92.3414 67.5732C92.3331 68.6978 91.6418 69.4087 90.5128 69.4353C89.8513 69.4519 89.1881 69.4469 88.525 69.4552C88.5018 69.4552 88.4802 69.4818 88.3658 69.5532C88.3658 71.4768 88.3824 73.4601 88.3592 75.4435C88.3426 76.8056 87.7093 77.4052 86.3581 77.4119C85.7281 77.4152 85.0998 77.4119 84.3852 77.4119C84.3852 79.4633 84.3835 81.4483 84.3852 83.4317C84.3869 84.7306 83.7734 85.3668 82.4836 85.3834C81.8254 85.3918 81.1672 85.3851 80.4063 85.3851C80.4063 86.1276 80.4261 86.812 80.4013 87.493C80.3598 88.6957 79.6585 89.3618 78.4566 89.3701C77.8233 89.375 77.1899 89.3701 76.429 89.3701C76.429 90.1093 76.4389 90.8169 76.4273 91.5228C76.4074 92.654 75.6697 93.3667 74.5489 93.3583C73.1745 93.3484 72.4649 92.7255 72.455 91.488C72.4434 90.1043 72.4434 88.7206 72.455 87.3352C72.4649 86.1193 73.0784 85.5163 74.2853 85.508C74.97 85.503 75.6547 85.5064 76.4306 85.5064C76.4306 84.7373 76.4174 84.0546 76.4339 83.3702C76.4621 82.1227 77.0324 81.548 78.251 81.5181C78.9141 81.5015 79.5757 81.4981 80.2388 81.4865C80.2604 81.4865 80.2819 81.4583 80.4079 81.3719Z" fill="black"/>
<path d="M60.4568 81.3985C59.6676 81.3985 58.9514 81.4084 58.2352 81.3951C57.2654 81.3785 56.579 80.7075 56.5359 79.7573C56.4729 78.3603 56.9404 77.6029 58.0479 77.5547C59.6743 77.4833 61.3056 77.4833 62.9337 77.5231C63.9201 77.5481 64.4556 78.176 64.4888 79.2091C64.5137 79.9483 64.4938 80.6892 64.4938 81.4699C65.8383 81.4699 67.0967 81.4699 68.4744 81.4699C68.4744 80.7706 68.4661 80.0895 68.476 79.4101C68.4976 78.1211 69.0696 77.5481 70.3445 77.5397C71.7537 77.5298 73.1629 77.5165 74.5705 77.5265C75.8852 77.5348 76.4306 78.1278 76.4306 79.5032C76.4306 80.6925 75.7459 81.3819 74.5356 81.3951C73.8775 81.4035 73.2176 81.3968 72.4517 81.3968C72.4517 82.131 72.4649 82.8121 72.4483 83.4931C72.4202 84.714 71.7471 85.3751 70.5268 85.3818C68.5937 85.3917 66.659 85.3934 64.7259 85.4017C64.6778 85.4017 64.6297 85.4399 64.4938 85.498C64.4938 87.4199 64.4938 89.3767 64.4938 91.3335C64.4938 92.747 63.9036 93.3517 62.506 93.3567C61.1515 93.3617 59.7986 93.3666 58.4441 93.355C57.1592 93.3434 56.5392 92.6989 56.5359 91.4082C56.5342 90.772 56.5359 90.1375 56.5359 89.3717C55.8296 89.3717 55.1515 89.38 54.4751 89.37C53.2118 89.3501 52.5752 88.7305 52.5569 87.5196C52.537 86.1691 53.0725 85.5246 54.3657 85.4947C56.0766 85.4549 57.7909 85.4864 59.5035 85.4881C59.8019 85.4881 60.102 85.4881 60.4568 85.4881C60.4568 84.1127 60.4568 82.8021 60.4568 81.3985Z" fill="black"/>
<path d="M52.5553 9.63597C52.5553 8.90841 52.552 8.27719 52.5553 7.64598C52.5636 6.27392 53.1074 5.69586 54.5016 5.65433C55.6058 5.62277 56.7116 5.64602 57.8174 5.64769C60.6906 5.65267 63.5637 5.65765 66.4368 5.66596C67.8096 5.67094 68.4644 6.31877 68.4694 7.67588C68.4744 9.05957 68.4777 10.4449 68.4678 11.8286C68.4595 13.0645 67.8112 13.6292 66.4385 13.6259C65.1304 13.6226 64.5037 13.0478 64.4921 11.8319C64.4855 11.1426 64.4905 10.4516 64.4905 9.70075C61.8445 9.70075 59.2383 9.70075 56.5823 9.70075C56.5823 10.9931 56.5823 12.2771 56.5823 13.6558C57.3118 13.6558 58.0214 13.6375 58.7276 13.6591C59.9992 13.7007 60.5463 14.3983 60.5099 15.895C60.4817 17.0378 59.8732 17.6092 58.6597 17.6109C55.9241 17.6142 53.1886 17.6158 50.4531 17.6125C49.1301 17.6109 48.5747 17.0394 48.573 15.689C48.5714 14.3319 48.5714 12.9764 48.573 11.6193C48.5747 10.2938 49.1135 9.70905 50.4464 9.64095C51.1096 9.60773 51.7728 9.63597 52.5553 9.63597Z" fill="black"/>
<path d="M48.5763 81.3968C46.5587 81.3968 44.6322 81.3984 42.7057 81.3968C40.9417 81.3951 40.0017 79.9433 40.829 78.3802C41.0329 77.9932 41.6032 77.6494 42.0525 77.5763C42.8533 77.4467 43.6905 77.5397 44.5543 77.5397C44.5543 76.1344 44.5543 74.8438 44.5543 73.4252C43.8895 73.4252 43.213 73.4302 42.5366 73.4235C41.2153 73.4119 40.6234 72.8206 40.6201 71.5083C40.6184 70.8505 40.6201 70.1911 40.6201 69.4369C39.8459 69.4369 39.1379 69.4452 38.4284 69.4353C37.2761 69.417 36.6561 68.7908 36.6411 67.6479C36.6229 66.1895 37.0821 65.5832 38.3438 65.5699C41.1871 65.5367 44.032 65.535 46.877 65.5516C47.9994 65.5583 48.5747 66.2277 48.5763 67.4386C48.5813 70.4552 48.578 73.4701 48.578 76.4866C48.578 76.7856 48.578 77.0863 48.578 77.4849C49.3456 77.4849 50.0535 77.47 50.7614 77.4882C51.922 77.5165 52.5437 78.1427 52.5536 79.2938C52.5652 80.7041 52.5719 82.116 52.552 83.528C52.5321 84.8303 51.8822 85.3967 50.4812 85.3867C49.2312 85.3768 48.5896 84.7505 48.578 83.518C48.5714 82.8536 48.5763 82.1908 48.5763 81.3968Z" fill="black"/>
<path d="M40.6185 89.4614C41.1441 89.4614 41.6066 89.4614 42.0692 89.4614C44.8843 89.4598 47.6994 89.4548 50.5145 89.4564C51.9171 89.4581 52.5603 90.0893 52.5554 91.4398C52.5504 92.7205 51.8806 93.355 50.5211 93.3567C48.5913 93.36 46.6599 93.3567 44.5975 93.3567C44.5975 94.066 44.5991 94.742 44.5975 95.4197C44.5941 96.7004 43.9658 97.3333 42.6743 97.3416C41.3215 97.3483 39.9686 97.3516 38.6174 97.34C37.2563 97.3283 36.6445 96.7254 36.6429 95.3832C36.6379 91.4016 36.6412 87.4183 36.6412 83.4366C36.6412 82.6808 36.7871 81.8503 37.558 81.6742C38.3124 81.5015 39.2375 81.538 39.9305 81.842C40.3234 82.0147 40.5671 82.9018 40.5903 83.4798C40.6682 85.4382 40.6185 87.3983 40.6185 89.4614Z" fill="black"/>
<path d="M96.3337 57.4488C95.5197 57.4488 94.7786 57.4887 94.0442 57.4388C92.8604 57.3591 92.3515 56.7578 92.3564 55.5602C92.3598 54.9522 92.3515 54.3426 92.3465 53.7346C92.3465 53.6831 92.32 53.6316 92.2686 53.4423C91.5756 53.4423 90.8411 53.4705 90.11 53.4356C88.8997 53.3791 88.3443 52.713 88.3692 51.4141C88.3908 50.2679 89.0191 49.6317 90.1664 49.6317C92.9019 49.6301 95.6358 49.635 98.3713 49.6483C99.7623 49.655 100.284 50.2181 100.281 51.6383C100.276 54.2678 100.28 56.8973 100.28 59.5268C100.28 60.7361 99.6247 61.4022 98.421 61.4122C96.9969 61.4238 96.3536 60.8624 96.3387 59.5866C96.3288 58.9222 96.3337 58.2594 96.3337 57.4488Z" fill="black"/>
<path d="M116.23 77.4052C114.224 77.4052 112.299 77.4069 110.374 77.4052C108.617 77.4035 107.753 76.1029 108.45 74.5083C108.717 73.8953 109.146 73.5681 109.852 73.5747C111.674 73.5913 113.498 73.5697 115.32 73.5631C115.59 73.5614 115.859 73.5631 116.227 73.5631C116.227 72.8006 116.225 72.1179 116.227 71.4369C116.23 70.1911 116.83 69.5898 118.099 69.5599C119.438 69.53 120.163 70.1163 120.174 71.3472C120.202 74.1694 120.234 76.9932 120.148 79.8121C120.133 80.2889 119.642 80.9433 119.194 81.1809C117.691 81.9815 116.242 81.0463 116.232 79.3719C116.227 78.7424 116.23 78.1128 116.23 77.4052Z" fill="black"/>
<path d="M116.237 61.4438C115.431 61.4438 114.744 61.4471 114.058 61.4438C113.335 61.4405 112.718 61.1116 112.445 60.4903C112.12 59.7511 112.067 58.9007 112.646 58.2296C112.884 57.9522 113.317 57.7296 113.68 57.6947C114.492 57.615 115.316 57.6698 116.222 57.6698C116.222 56.8758 116.22 56.2213 116.222 55.5685C116.227 54.2081 116.825 53.6267 118.203 53.64C119.624 53.6549 120.181 54.2131 120.177 55.5718C120.169 58.1681 120.174 60.7644 120.179 63.3607C120.182 64.7062 119.522 65.447 118.304 65.4503C116.943 65.4537 116.246 64.756 116.237 63.3673C116.232 62.7627 116.237 62.1614 116.237 61.4438Z" fill="black"/>
<path d="M116.222 41.6818C116.222 40.8778 116.207 40.1918 116.225 39.5057C116.26 38.2383 116.935 37.6653 118.344 37.6819C119.556 37.6952 120.166 38.2932 120.171 39.5273C120.183 42.2632 120.186 45.0006 120.178 47.7365C120.174 48.7447 119.387 49.4856 118.375 49.4756C116.988 49.4623 116.27 48.8893 116.24 47.7464C116.222 47.0338 116.237 46.3212 116.237 45.4973C115.486 45.4973 114.801 45.5372 114.123 45.489C112.44 45.3694 111.669 43.9326 112.578 42.5073C112.826 42.1153 113.403 41.803 113.878 41.7167C114.594 41.5854 115.353 41.6818 116.222 41.6818Z" fill="black"/>
<path d="M104.302 49.4789C103.487 49.4789 102.796 49.5155 102.113 49.4706C100.782 49.3842 100.25 48.763 100.303 47.4374C100.351 46.2531 100.956 45.68 102.211 45.6717C104.888 45.6567 107.566 45.6484 110.245 45.6484C111.682 45.6484 112.216 46.2132 112.211 47.6816C112.206 48.8278 111.502 49.4839 110.252 49.4955C109.622 49.5022 108.99 49.4972 108.259 49.4972C108.259 50.2198 108.264 50.9008 108.257 51.5802C108.247 52.7646 107.468 53.5021 106.251 53.4855C104.97 53.4672 104.297 52.8044 104.302 51.5702C104.305 50.9141 104.302 50.2546 104.302 49.4789Z" fill="black"/>
<path d="M40.6185 29.5741C40.6185 30.408 40.6284 31.1239 40.6168 31.8398C40.5986 33.0126 39.9852 33.5591 38.7019 33.5624C37.2397 33.5657 36.6561 33.0906 36.6428 31.8415C36.6263 30.4046 36.6379 28.9678 36.6395 27.531C36.6412 26.2868 37.1468 25.6606 38.3787 25.6057C39.8923 25.5393 41.4126 25.5443 42.9263 25.5958C44.1531 25.6373 44.6571 26.4014 44.5958 27.9296C44.5527 29.011 43.9392 29.5675 42.7737 29.5741C42.0907 29.5774 41.406 29.5741 40.6185 29.5741Z" fill="black"/>
<path d="M32.6605 41.5323C31.7968 41.5323 31.054 41.5456 30.3129 41.529C29.363 41.509 28.7578 40.936 28.6816 40.0157C28.5672 38.6353 28.9535 37.7583 29.9333 37.6835C31.6873 37.5523 33.4563 37.5257 35.2153 37.5905C36.1172 37.6237 36.6295 38.3729 36.6362 39.3064C36.6478 40.8263 36.6544 42.3479 36.6345 43.8678C36.6196 44.9791 35.9481 45.5189 34.6533 45.5172C33.3303 45.5156 32.6937 44.994 32.6638 43.8578C32.6456 43.1186 32.6605 42.3778 32.6605 41.5323Z" fill="black"/>
<path d="M60.513 29.5724C59.6874 29.5724 58.9729 29.5807 58.26 29.5707C57.2254 29.5574 56.5921 28.9661 56.5341 27.9794C56.4495 26.5077 56.8872 25.7635 58.0395 25.7004C59.6625 25.6123 61.2923 25.6024 62.9186 25.6406C63.8852 25.6638 64.4688 26.3316 64.4854 27.3183C64.5119 28.8664 64.5169 30.4146 64.4837 31.9627C64.4605 33.0773 63.7691 33.569 62.35 33.559C61.1911 33.5507 60.5528 32.9826 60.5147 31.9112C60.5014 31.5242 60.513 31.1371 60.513 30.7501C60.513 30.3946 60.513 30.0392 60.513 29.5724Z" fill="black"/>
<path d="M56.5343 37.5191C56.5343 36.7782 56.5227 36.0639 56.5376 35.3497C56.5609 34.1886 57.2621 33.5823 58.5503 33.5872C59.7904 33.5922 60.4901 34.1902 60.5083 35.3214C60.5332 36.8397 60.5282 38.3596 60.51 39.8778C60.4984 40.8329 59.865 41.5073 58.9316 41.5223C57.3334 41.5489 55.7352 41.5455 54.137 41.5223C53.2335 41.509 52.6184 40.8662 52.5587 39.9575C52.4675 38.5622 52.8588 37.8363 53.885 37.6935C54.7223 37.5805 55.5761 37.5789 56.5343 37.5191Z" fill="black"/>
<path d="M32.6604 77.5265C32.6604 76.6527 32.6488 75.9368 32.6637 75.2192C32.6869 74.0481 33.302 73.5365 34.6864 73.5116C35.8601 73.49 36.6079 74.0847 36.6311 75.1495C36.6642 76.6959 36.6576 78.2441 36.6327 79.7905C36.6178 80.7473 36.0044 81.3619 35.0014 81.3852C33.4313 81.4217 31.858 81.4217 30.2863 81.3852C29.2534 81.3619 28.6881 80.651 28.6815 79.4949C28.6748 78.2241 29.1656 77.5913 30.2714 77.5331C31.0357 77.4949 31.8033 77.5265 32.6604 77.5265Z" fill="black"/>
<path d="M88.3658 117.276C88.3658 118.1 88.3708 118.791 88.3642 119.481C88.3542 120.53 87.6728 121.221 86.6201 121.263C85.2805 121.314 84.4565 120.79 84.4118 119.703C84.3454 118.102 84.3554 116.494 84.4018 114.891C84.4267 114.036 85.0268 113.459 85.8873 113.434C87.5137 113.386 89.1434 113.368 90.7698 113.411C91.8341 113.439 92.363 114.21 92.3431 115.512C92.3265 116.541 91.6932 117.228 90.672 117.27C89.9359 117.301 89.1948 117.276 88.3658 117.276Z" fill="black"/>
<path d="M44.5975 21.5992C44.5975 20.8268 44.5776 20.0527 44.6025 19.2803C44.6389 18.189 45.3303 17.6259 46.6085 17.6076C47.7906 17.591 48.5383 18.169 48.5648 19.2272C48.6046 20.8268 48.6013 22.4297 48.5665 24.0294C48.5433 25.1124 47.8586 25.5925 46.4875 25.5858C45.2789 25.5808 44.6406 25.0576 44.6041 23.9995C44.5759 23.2005 44.5975 22.3998 44.5975 21.5992Z" fill="black"/>
<path d="M40.6201 45.5139C40.6201 44.7697 40.6069 44.0239 40.6218 43.2797C40.645 42.1751 41.3347 41.5688 42.5731 41.5372C43.7419 41.5073 44.5626 42.1585 44.5875 43.2232C44.6239 44.7946 44.6206 46.3694 44.5875 47.9407C44.5676 48.9357 43.8713 49.4972 42.7621 49.5072C41.3363 49.5204 40.6881 49.057 40.6268 47.9142C40.5853 47.1169 40.6201 46.3145 40.6201 45.5139Z" fill="black"/>
<path d="M8.73223 81.3968C7.98783 81.3968 7.24178 81.4167 6.49904 81.3918C5.47612 81.3569 4.8511 80.7357 4.80799 79.7556C4.74499 78.3038 5.1346 77.6062 6.28352 77.5381C7.95799 77.4401 9.64407 77.4334 11.3202 77.5132C12.4061 77.5646 12.8405 78.362 12.7659 79.7839C12.7178 80.7141 12.0944 81.3519 11.1312 81.3901C10.3321 81.4217 9.53133 81.3968 8.73223 81.3968Z" fill="black"/>
<path d="M52.5553 45.6152C52.5553 46.3594 52.5719 47.1052 52.552 47.8494C52.5221 48.9889 51.8557 49.5121 50.4763 49.5071C49.2694 49.5038 48.5979 48.9324 48.583 47.8461C48.5631 46.3577 48.5664 44.8677 48.5813 43.3777C48.5946 42.1618 49.2743 41.5821 50.7001 41.5289C51.7313 41.4907 52.4923 42.21 52.552 43.298C52.5735 43.6834 52.5553 44.0704 52.557 44.4558C52.5586 44.8411 52.5553 45.2298 52.5553 45.6152Z" fill="black"/>
<path d="M8.75191 89.3717C8.00917 89.3717 7.26478 89.3883 6.52204 89.3683C5.48254 89.3401 4.8658 88.7139 4.80943 87.6624C4.73483 86.2887 5.2007 85.5495 6.35128 85.4947C7.97104 85.4166 9.60075 85.4083 11.2205 85.4781C12.3645 85.5279 12.8303 86.302 12.7657 87.7488C12.7209 88.7355 12.1141 89.3301 11.0647 89.3667C10.2954 89.3916 9.52283 89.37 8.75191 89.3717Z" fill="black"/>
<path d="M60.4749 49.5039C59.7305 49.5039 58.9878 49.5172 58.2434 49.5006C57.1873 49.4756 56.5623 48.8477 56.5341 47.8096C56.4927 46.3245 56.937 45.6668 58.1323 45.6252C59.7007 45.5704 61.2724 45.5571 62.8408 45.5987C63.9963 45.6286 64.5185 46.3495 64.492 47.6983C64.4705 48.8162 63.8687 49.4673 62.7877 49.4989C62.0168 49.5221 61.2459 49.5039 60.4749 49.5039Z" fill="black"/>
<path d="M84.3867 37.642C84.3867 38.3612 84.4066 39.0805 84.3818 39.7981C84.3436 40.9276 83.576 41.5572 82.3144 41.5306C81.066 41.504 80.4178 40.911 80.4095 39.7599C80.3995 38.3214 80.3979 36.8845 80.4095 35.446C80.4211 34.245 81.0859 33.6421 82.3674 33.6387C83.6821 33.6354 84.3387 34.1969 84.3785 35.3995C84.4066 36.147 84.3867 36.8945 84.3867 37.642Z" fill="black"/>
<path d="M88.3659 29.6854C88.3659 30.3764 88.3775 31.0674 88.3626 31.7584C88.3377 32.9428 87.59 33.579 86.2736 33.5557C85.0518 33.5358 84.3952 32.9228 84.3886 31.7734C84.3803 30.3365 84.377 28.898 84.3903 27.4595C84.4002 26.2751 85.017 25.7054 86.2753 25.6755C87.6 25.6456 88.2747 26.1888 88.3642 27.3598C88.3692 27.4146 88.3659 27.4711 88.3659 27.5259C88.3659 28.2485 88.3659 28.9661 88.3659 29.6854Z" fill="black"/>
<path d="M28.6317 85.4798C29.4043 85.4798 30.1769 85.4598 30.9495 85.4848C32.1498 85.5246 32.6671 86.1525 32.6621 87.5163C32.6571 88.6608 32.0354 89.3468 30.918 89.3651C29.401 89.39 27.8824 89.395 26.3671 89.3651C25.2911 89.3451 24.7092 88.6358 24.7058 87.4415C24.7009 86.1691 25.1933 85.5562 26.3173 85.5064C27.0882 85.4715 27.8608 85.4997 28.6334 85.4997C28.6317 85.4914 28.6317 85.4864 28.6317 85.4798Z" fill="black"/>
<path d="M60.422 117.394C61.1946 117.394 61.9672 117.378 62.7397 117.398C63.9119 117.429 64.4872 118.04 64.4921 119.223C64.4971 120.519 63.9036 121.238 62.748 121.256C61.2858 121.281 59.8235 121.28 58.3612 121.258C57.1344 121.24 56.5409 120.585 56.5342 119.315C56.5276 118.037 57.0913 117.434 58.3529 117.399C59.0426 117.381 59.7323 117.396 60.422 117.396C60.422 117.398 60.422 117.396 60.422 117.394Z" fill="black"/>
<path d="M38.5924 9.64098C37.107 9.63766 36.6345 9.13767 36.6394 7.57458C36.6428 6.23574 37.2728 5.65436 38.7002 5.64605C39.7281 5.63941 40.7145 6.19421 40.6333 7.71744C40.5587 9.12272 40.0713 9.64264 38.5924 9.64098Z" fill="black"/>
<path d="M6.76761 41.5339C5.30866 41.5323 4.803 41.019 4.80963 39.5406C4.81461 38.1104 5.41808 37.539 6.91848 37.5423C8.18842 37.544 8.79024 38.2018 8.78858 39.5855C8.78527 41.0107 8.24148 41.5356 6.76761 41.5339Z" fill="black"/>
<path d="M38.5476 17.6126C37.1401 17.6126 36.6411 17.1009 36.6394 15.6558C36.6377 14.2156 37.2313 13.6276 38.6985 13.621C40.0232 13.6143 40.6217 14.2688 40.6184 15.7206C40.615 17.1126 40.0696 17.6126 38.5476 17.6126Z" fill="black"/>
<path d="M6.74929 53.4938C5.34837 53.4888 4.80292 52.9207 4.8079 51.4723C4.81287 50.0852 5.45282 49.4956 6.93829 49.5072C8.21155 49.5172 8.7885 50.1617 8.78684 51.5719C8.78518 52.9706 8.22316 53.4988 6.74929 53.4938Z" fill="black"/>
<path d="M48.5764 7.68092C48.5747 9.11112 48.0293 9.64433 46.5637 9.641C45.123 9.63934 44.5974 9.10447 44.5974 7.64603C44.5974 6.26899 45.2125 5.66103 46.6184 5.64774C47.9663 5.63611 48.578 6.27065 48.5764 7.68092Z" fill="black"/>
<path d="M54.4949 25.5874C53.1139 25.5874 52.5552 25.021 52.5552 23.6273C52.5552 22.2154 53.1785 21.6108 54.6524 21.5942C55.8958 21.5792 56.5358 22.2785 56.5341 23.6506C56.5325 25.0542 55.9721 25.5874 54.4949 25.5874Z" fill="black"/>
<path d="M8.78684 63.5135C8.7885 64.9188 8.22647 65.4553 6.75426 65.4536C5.38318 65.452 4.81121 64.8789 4.80789 63.5019C4.80292 62.0667 5.43457 61.4737 6.97973 61.462C8.14523 61.4537 8.78518 62.1796 8.78684 63.5135Z" fill="black"/>
<path d="M42.5532 37.5473C41.1225 37.539 40.6118 36.9842 40.6185 35.4461C40.6251 34.1537 41.2783 33.584 42.7505 33.5873C44.0636 33.5906 44.6074 34.2168 44.5974 35.7118C44.5875 37.0224 43.9956 37.5556 42.5532 37.5473Z" fill="black"/>
<path d="M46.5488 33.5607C45.1346 33.5607 44.5958 33.0059 44.5974 31.5491C44.5991 30.1588 45.2009 29.604 46.7212 29.6023C48.006 29.6006 48.5764 30.2252 48.5764 31.6355C48.5764 33.0208 48.0077 33.5607 46.5488 33.5607Z" fill="black"/>
<path d="M30.6346 49.5055C29.2453 49.5039 28.68 48.9441 28.6816 47.572C28.6833 46.1036 29.2868 45.5355 30.8336 45.5455C32.0372 45.5538 32.6606 46.2448 32.6606 47.5703C32.6606 48.969 32.0969 49.5088 30.6346 49.5055Z" fill="black"/>
<path d="M50.4745 29.5724C49.1233 29.5691 48.5696 28.9877 48.5762 27.5775C48.5829 26.217 49.2294 25.5908 50.6254 25.5941C51.9467 25.5975 52.5585 26.2602 52.5552 27.6904C52.5519 29.0592 51.9799 29.5774 50.4745 29.5724Z" fill="black"/>
<path d="M50.5261 37.5456C49.1401 37.544 48.5748 36.9808 48.5764 35.6038C48.5781 34.1969 49.2048 33.5856 50.662 33.5723C51.927 33.5607 52.5554 34.2384 52.5554 35.6105C52.5537 37.0091 51.9884 37.5473 50.5261 37.5456Z" fill="black"/>
<path d="M46.5521 41.534C45.1727 41.529 44.5958 40.9559 44.5974 39.5921C44.5991 38.1603 45.249 37.5523 46.761 37.5639C47.9961 37.5739 48.5847 38.2566 48.5764 39.6702C48.5681 41.0057 47.9878 41.5406 46.5521 41.534Z" fill="black"/>
<path d="M54.533 33.559C53.1288 33.5574 52.5552 33.0009 52.5552 31.6438C52.5552 30.1953 53.1885 29.5874 54.6972 29.584C55.9323 29.5824 56.5408 30.2751 56.5341 31.6787C56.5291 33.0175 55.9505 33.5624 54.533 33.559Z" fill="black"/>
<path d="M30.638 65.452C29.2536 65.4486 28.6816 64.8789 28.6816 63.5035C28.6816 62.0633 29.242 61.5384 30.7839 61.5351C32.1168 61.5318 32.6589 62.1198 32.6606 63.565C32.6606 64.8822 32.0472 65.4553 30.638 65.452Z" fill="black"/>
<path d="M22.6337 73.4252C21.3057 73.4186 20.7171 72.8023 20.7254 71.4269C20.7321 70.0416 21.3405 69.4918 22.8774 69.4834C24.1092 69.4768 24.7193 70.1811 24.7044 71.5864C24.6878 72.8986 24.086 73.4335 22.6337 73.4252Z" fill="black"/>
<path d="M14.7305 77.4119C13.3428 77.4102 12.7642 76.8421 12.7659 75.4784C12.7675 74.0747 13.3975 73.4734 14.8664 73.4701C16.1546 73.4684 16.7481 74.1146 16.7448 75.5182C16.7415 76.8321 16.1231 77.4119 14.7305 77.4119Z" fill="black"/>
<path d="M10.7647 73.4252C9.37708 73.4235 8.78853 72.8554 8.78687 71.5149C8.78521 70.0515 9.455 69.4236 11.0068 69.4336C12.1093 69.4419 12.7691 70.2342 12.7658 71.5465C12.7625 72.8787 12.1773 73.4269 10.7647 73.4252Z" fill="black"/>
<path d="M24.7026 75.4617C24.701 74.0398 25.2912 73.4933 26.8314 73.4916C28.0731 73.49 28.6766 74.1445 28.6816 75.4982C28.6882 76.8338 28.0814 77.4118 26.6805 77.4102C25.3177 77.4102 24.7043 76.8055 24.7026 75.4617Z" fill="black"/>
<path d="M28.6816 71.4817C28.6833 70.0482 29.237 69.5349 30.7872 69.5333C32.1052 69.5316 32.6672 70.1396 32.6606 71.5598C32.6556 72.8837 32.0637 73.4302 30.6346 73.4269C29.2669 73.4219 28.68 72.8388 28.6816 71.4817Z" fill="black"/>
<path d="M40.6184 119.373C40.6217 120.612 39.9436 121.265 38.6571 121.263C37.2877 121.261 36.6361 120.609 36.6394 119.24C36.6411 117.946 37.3026 117.356 38.7731 117.333C39.9486 117.316 40.615 118.054 40.6184 119.373Z" fill="black"/>
<path d="M22.7314 85.3851C21.3338 85.3817 20.7187 84.7671 20.7237 83.3768C20.7286 82.0263 21.3288 81.4898 22.8325 81.4931C24.134 81.4964 24.7109 82.1277 24.7026 83.5379C24.6943 84.802 24.0693 85.3884 22.7314 85.3851Z" fill="black"/>
<path d="M92.3465 119.408C92.3664 117.941 92.9666 117.341 94.3957 117.359C95.7518 117.376 96.3354 118.009 96.3238 119.449C96.3139 120.647 95.6142 121.278 94.3095 121.265C92.9533 121.25 92.3299 120.66 92.3465 119.408Z" fill="black"/>
<path d="M18.7392 89.3717C17.32 89.3584 16.7348 88.7687 16.7448 87.3618C16.7547 85.9963 17.3797 85.4615 18.9415 85.4847C20.1899 85.503 20.732 86.1259 20.7237 87.5312C20.7154 88.787 20.0721 89.3833 18.7392 89.3717Z" fill="black"/>
<path d="M108.261 115.436C108.256 116.597 107.548 117.276 106.339 117.278C104.882 117.28 104.273 116.677 104.282 115.238C104.288 114.001 104.948 113.384 106.274 113.374C107.576 113.363 108.265 114.08 108.261 115.436Z" fill="black"/>
<path d="M86.3599 9.73569C87.7525 9.7307 88.3643 10.3171 88.3659 11.6576C88.3659 12.9416 87.716 13.616 86.4643 13.6243C85.0219 13.6359 84.3886 13.0413 84.387 11.6775C84.3853 10.3038 84.9573 9.74067 86.3599 9.73569Z" fill="black"/>
<path d="M100.303 119.298C100.299 117.986 100.941 117.364 102.304 117.363C103.66 117.361 104.283 118.009 104.282 119.416C104.28 120.604 103.602 121.26 102.375 121.263C100.969 121.268 100.308 120.638 100.303 119.298Z" fill="black"/>
<path d="M118.258 117.376C119.541 117.358 120.176 117.986 120.197 119.293C120.217 120.55 119.544 121.253 118.306 121.265C116.875 121.278 116.243 120.725 116.218 119.434C116.19 117.987 116.776 117.398 118.258 117.376Z" fill="black"/>
<path d="M112.239 87.3718C112.251 86.0711 112.883 85.4947 114.282 85.5097C115.626 85.523 116.233 86.1475 116.218 87.4997C116.205 88.7006 115.464 89.3883 114.207 89.3701C112.926 89.3501 112.229 88.6425 112.239 87.3718Z" fill="black"/>
<path d="M64.4922 95.4231C64.4922 94.046 65.1139 93.4447 66.5264 93.458C67.8328 93.4696 68.4546 94.0493 68.4711 95.2702C68.4894 96.6489 67.8196 97.3532 66.5049 97.3433C65.1371 97.3316 64.4922 96.7154 64.4922 95.4231Z" fill="black"/>
<path d="M94.2398 61.5899C95.5595 61.5434 96.206 62.1497 96.3055 63.3889C96.4149 64.7676 95.586 65.3523 94.573 65.4071C93.1074 65.4869 92.4078 64.9188 92.3564 63.6314C92.3017 62.2959 92.9101 61.6365 94.2398 61.5899Z" fill="black"/>
<path d="M110.074 37.7051C111.606 37.6885 112.208 38.2051 112.215 39.5406C112.221 40.8263 111.614 41.5123 110.457 41.5289C109.028 41.5489 108.275 40.9243 108.282 39.6901C108.285 38.4842 108.816 37.5041 110.074 37.7051Z" fill="black"/>
<path d="M96.3203 43.6053C96.2822 44.8528 95.503 45.5671 94.238 45.5139C92.9896 45.4624 92.3198 44.7498 92.348 43.5073C92.3779 42.1552 93.0659 41.5854 94.5845 41.6486C95.7102 41.6951 96.3551 42.4226 96.3203 43.6053Z" fill="black"/>
<path d="M106.104 77.5614C107.511 77.4783 108.154 77.9883 108.266 79.2125C108.398 80.6875 107.473 81.3088 106.579 81.3835C105.266 81.4948 104.363 80.8154 104.283 79.7175C104.182 78.3404 104.772 77.6411 106.104 77.5614Z" fill="black"/>
<path d="M98.2485 37.6669C99.5798 37.6337 100.24 38.2533 100.278 39.5689C100.311 40.7516 99.6694 41.4675 98.547 41.5007C97.0748 41.5439 96.3387 40.8778 96.3271 39.4958C96.3154 38.3413 96.9902 37.6985 98.2485 37.6669Z" fill="black"/>
<path d="M100.268 89.4265C100.268 93.443 100.268 97.3931 100.268 101.396C96.3221 101.396 92.4111 101.396 88.4338 101.396C88.4338 97.428 88.4338 93.4596 88.4338 89.4265C92.3382 89.4265 96.2707 89.4265 100.268 89.4265ZM94.2746 93.4829C92.9566 93.4912 92.3349 94.0776 92.3448 95.3001C92.3581 96.7353 92.9516 97.3433 94.3426 97.3433C95.6921 97.3433 96.3188 96.6921 96.3238 95.2852C96.3271 94.0792 95.6407 93.4763 94.2746 93.4829Z" fill="white"/>
<path d="M63.8786 62.5717C63.678 62.6714 63.4625 62.7494 63.2784 62.8757C62.3235 63.5268 61.4116 64.2544 60.4086 64.8225C59.9295 65.0949 59.2497 65.2444 58.7209 65.1431C57.9599 64.9969 57.2371 64.6032 56.5341 64.2444C56.2771 64.1132 55.9588 63.7677 55.9721 63.5368C55.9837 63.3208 56.365 63.0434 56.6402 62.9355C58.3512 62.2644 60.0737 61.6265 61.7979 60.9937C63.1309 60.5053 64.4638 60.0153 65.8133 59.5734C66.7119 59.2777 67.0684 59.5585 66.9689 60.5236C66.7617 62.5219 66.4947 64.5135 66.2461 66.5068C66.1681 67.1347 66.0886 67.7626 65.9742 68.3855C65.8183 69.2393 65.1751 69.5649 64.4622 69.0965C63.5669 68.5084 62.7065 67.8639 61.8725 67.1928C61.3155 66.7444 61.4266 66.1829 61.8145 65.6563C62.1743 65.168 62.5357 64.6796 62.9021 64.1979C63.2668 63.7195 63.6382 63.2478 64.0079 62.7743C63.9631 62.7029 63.92 62.6381 63.8786 62.5717Z" fill="white"/>
<path d="M18.7194 29.4295C16.846 29.4295 14.9626 29.5541 13.1041 29.398C10.7217 29.1986 8.85989 27.1123 8.80352 24.3549C8.74052 21.2287 8.71068 18.0976 8.81016 14.9747C8.91295 11.7422 11.1213 9.729 14.2215 9.65591C17.2024 9.58615 20.1866 9.62269 23.1708 9.64428C26.354 9.66754 28.6618 11.9831 28.6784 15.1558C28.6933 18.1441 28.6916 21.1341 28.6784 24.1224C28.6634 27.3216 26.407 29.5525 23.194 29.5641C21.7019 29.5691 20.2115 29.5658 18.7194 29.5658C18.7194 29.5209 18.7194 29.4761 18.7194 29.4295ZM18.731 25.5725C18.731 25.5775 18.731 25.5825 18.731 25.5858C19.4489 25.5858 20.1684 25.5891 20.8863 25.5858C22.6867 25.5741 24.2849 24.5027 24.5054 22.7304C24.7475 20.7786 24.6961 18.7703 24.5751 16.7986C24.4789 15.2339 23.2935 13.8817 21.3273 13.7522C19.7606 13.6492 18.1806 13.5595 16.6172 13.6492C14.4453 13.7738 13.0792 14.8668 12.8488 16.8717C12.6382 18.6989 12.6581 20.5859 12.8521 22.4164C13.0361 24.1539 14.3492 25.3383 16.0004 25.5509C16.8957 25.6672 17.8192 25.5725 18.731 25.5725Z" fill="white"/>
<path d="M8.78693 107.39C8.78693 105.84 8.77698 104.288 8.78858 102.738C8.81345 99.6322 11.0765 97.3632 14.1784 97.3499C17.2173 97.335 20.2562 97.3366 23.2968 97.3482C26.3855 97.3615 28.6601 99.6356 28.6783 102.743C28.6966 105.816 28.6916 108.89 28.68 111.963C28.6684 114.833 26.8 117.129 23.96 117.271C20.4635 117.447 16.9421 117.437 13.4473 117.227C10.5924 117.054 8.81014 114.828 8.79024 111.959C8.77864 110.434 8.78693 108.913 8.78693 107.39ZM18.8885 101.441C18.8885 101.453 18.8885 101.464 18.8885 101.476C17.9518 101.476 17.0084 101.411 16.0767 101.491C14.437 101.631 13.0825 102.863 12.935 104.479C12.7808 106.15 12.7012 107.846 12.809 109.517C12.9582 111.82 14.0756 112.989 16.3519 113.223C17.9634 113.389 19.618 113.408 21.2261 113.245C22.7696 113.087 24.3313 112.326 24.5717 109.971C24.7392 108.33 24.7806 106.654 24.6563 105.011C24.4756 102.622 22.826 101.44 20.7917 101.443C20.1568 101.441 19.5235 101.441 18.8885 101.441Z" fill="white"/>
<path d="M96.3238 19.6291C96.3238 18.1076 96.3122 16.5843 96.3254 15.0628C96.3536 11.832 98.6714 9.59945 101.886 9.63101C104.897 9.66091 107.908 9.63267 110.918 9.63931C113.957 9.64762 116.217 11.9067 116.232 14.9698C116.247 18.0145 116.247 21.0593 116.232 24.1024C116.217 27.4313 114.105 29.6455 110.797 29.7036C107.705 29.7585 104.61 29.7601 101.518 29.692C98.5072 29.6256 96.3487 27.32 96.3238 24.2768C96.3138 22.7287 96.3238 21.1789 96.3238 19.6291ZM106.255 25.5343C106.255 25.5409 106.255 25.5459 106.255 25.5526C106.972 25.5526 107.694 25.6041 108.407 25.5426C110.265 25.3831 111.86 24.4562 112.051 22.3965C112.198 20.8085 112.288 19.1989 112.21 17.6076C112.095 15.2704 110.794 13.9714 108.463 13.807C106.926 13.6974 105.373 13.7106 103.832 13.7904C102.024 13.8834 100.686 15.0611 100.487 16.8518C100.304 18.4879 100.238 20.1623 100.357 21.8035C100.517 23.9994 101.747 25.2569 103.776 25.5177C104.588 25.6223 105.427 25.5343 106.255 25.5343Z" fill="white"/>
<path d="M94.2746 93.4829C95.6407 93.4746 96.3271 94.0792 96.3238 95.2852C96.3188 96.6921 95.6921 97.3432 94.3426 97.3432C92.9533 97.3432 92.3581 96.7353 92.3448 95.3001C92.3349 94.0775 92.9566 93.4912 94.2746 93.4829Z" fill="black"/>
<path d="M18.7308 25.5725C17.819 25.5725 16.8955 25.6672 15.9986 25.5526C14.3473 25.3399 13.0343 24.1556 12.8503 22.4181C12.6563 20.5859 12.6364 18.7006 12.8469 16.8734C13.0774 14.8684 14.4435 13.7754 16.6153 13.6508C18.1787 13.5611 19.7587 13.6508 21.3254 13.7538C23.2917 13.8834 24.4771 15.2355 24.5732 16.8003C24.6943 18.772 24.7457 20.7802 24.5036 22.732C24.2831 24.5061 22.6849 25.5758 20.8844 25.5874C20.1665 25.5924 19.447 25.5874 18.7292 25.5874C18.7308 25.5825 18.7308 25.5775 18.7308 25.5725Z" fill="black"/>
<path d="M18.8884 101.441C19.5234 101.441 20.1567 101.441 20.7916 101.441C22.8275 101.438 24.4755 102.622 24.6562 105.009C24.7805 106.652 24.7391 108.328 24.5716 109.969C24.3312 112.325 22.7679 113.085 21.226 113.243C19.6162 113.408 17.9616 113.389 16.3518 113.222C14.0755 112.986 12.9581 111.818 12.8089 109.516C12.6995 107.845 12.7807 106.149 12.9349 104.478C13.0841 102.861 14.4369 101.629 16.0766 101.489C17.0067 101.41 17.95 101.474 18.8884 101.474C18.8884 101.464 18.8884 101.453 18.8884 101.441Z" fill="black"/>
<path d="M106.255 25.5343C105.427 25.5343 104.588 25.6223 103.774 25.5177C101.745 25.2569 100.515 23.9978 100.356 21.8035C100.236 20.1623 100.303 18.4896 100.485 16.8518C100.684 15.0611 102.022 13.8834 103.831 13.7904C105.371 13.7106 106.924 13.6974 108.461 13.807C110.794 13.9731 112.094 15.2721 112.208 17.6076C112.286 19.1989 112.196 20.8085 112.049 22.3965C111.858 24.4562 110.263 25.3815 108.405 25.5426C107.692 25.6041 106.971 25.5526 106.253 25.5526C106.255 25.5459 106.255 25.5409 106.255 25.5343Z" fill="black"/>
</svg>
