<svg width="140" height="27" viewBox="0 0 140 27" fill="none" xmlns="http://www.w3.org/2000/svg">
<g clip-path="url(#clip0_944_684)">
<path d="M37.8453 7.41521C37.8453 6.89179 38.2869 6.58646 38.6403 6.58646C42.5268 6.58646 45.7951 6.58646 45.8834 6.58646C46.1484 6.58646 46.325 6.36837 46.325 6.15027C46.325 6.01942 46.325 6.01941 46.325 5.84494C46.325 5.62685 46.1484 5.40875 45.8834 5.40875C45.7067 5.40875 38.8611 5.40875 37.492 5.40875C36.0787 5.40875 35.2837 6.58646 35.2837 7.58969C35.2837 7.98226 35.2837 11.2973 35.2837 11.6899C35.2837 12.6931 36.0787 13.8708 37.492 13.8708C37.8011 13.8708 39.3911 13.8708 43.2776 13.8708C43.631 13.8708 44.0726 14.1761 44.0726 14.6995C44.0726 14.874 44.0726 19.0614 44.0726 19.2359C44.0726 19.7593 43.631 20.0646 43.2776 20.0646C39.3911 20.0646 36.4762 20.0646 36.3878 20.0646C36.1228 20.0646 35.9462 20.2827 35.9462 20.5008C35.9462 20.6317 35.9462 20.6317 35.9462 20.8062C35.9462 21.0243 36.1228 21.2424 36.3878 21.2424C36.5645 21.2424 43.0568 21.2424 44.4259 21.2424C45.8392 21.2424 46.6342 20.0646 46.6342 19.0614C46.6342 18.6688 46.6342 15.3538 46.6342 14.9613C46.6342 13.958 45.8392 12.7803 44.4259 12.7803C44.2051 12.7803 43.6751 12.7803 43.0568 12.7803C43.0568 12.7803 43.0568 12.7803 43.0126 12.7803C42.9243 12.7803 42.5268 12.7803 38.5961 12.7803C38.2428 12.7803 37.8011 12.475 37.8011 11.9516C37.8453 11.7771 37.8453 7.58969 37.8453 7.41521Z" fill="white"/>
<path d="M118.226 7.41521C118.226 6.89179 118.668 6.58646 119.021 6.58646C122.908 6.58646 126.176 6.58646 126.264 6.58646C126.529 6.58646 126.706 6.36837 126.706 6.15027C126.706 6.01942 126.706 6.01941 126.706 5.84494C126.706 5.62685 126.529 5.40875 126.264 5.40875C126.088 5.40875 119.242 5.40875 117.873 5.40875C116.46 5.40875 115.665 6.58646 115.665 7.58969C115.665 7.98226 115.665 11.2973 115.665 11.6899C115.665 12.6931 116.46 13.8708 117.873 13.8708C118.182 13.8708 119.772 13.8708 123.659 13.8708C124.012 13.8708 124.454 14.1761 124.454 14.6995C124.454 14.874 124.454 19.0614 124.454 19.2359C124.454 19.7593 124.012 20.0646 123.659 20.0646C119.772 20.0646 116.857 20.0646 116.769 20.0646C116.504 20.0646 116.327 20.2827 116.327 20.5008C116.327 20.6317 116.327 20.6317 116.327 20.8062C116.327 21.0243 116.504 21.2424 116.769 21.2424C116.946 21.2424 123.438 21.2424 124.807 21.2424C126.22 21.2424 127.015 20.0646 127.015 19.0614C127.015 18.6688 127.015 15.3538 127.015 14.9613C127.015 13.958 126.22 12.7803 124.807 12.7803C124.586 12.7803 122.908 12.7803 119.021 12.7803C118.668 12.7803 118.226 12.475 118.226 11.9516C118.226 11.7771 118.226 7.58969 118.226 7.41521Z" fill="white"/>
<path d="M56.8365 20.0647C56.7482 20.0647 53.745 20.0647 53.215 20.0647C52.8616 20.0647 52.42 19.7593 52.42 19.2359C52.42 19.0614 52.42 6.06305 52.42 5.88858C52.42 5.62687 52.1992 5.45239 51.9783 5.45239C51.8017 5.45239 50.3884 5.45239 50.3001 5.45239C50.0792 5.45239 49.8584 5.62687 49.8584 5.88858C49.8584 5.88858 49.8584 6.01944 49.8584 6.19391C49.8584 6.67372 49.8584 18.6689 49.8584 19.0614C49.8584 20.0647 50.6534 21.2424 52.0667 21.2424C53.4358 21.2424 56.6157 21.2424 56.7924 21.2424C57.0574 21.2424 57.234 21.0243 57.234 20.8062C57.234 20.6317 57.234 20.6317 57.234 20.5009C57.2782 20.2828 57.1015 20.0647 56.8365 20.0647Z" fill="white"/>
<path d="M83.3799 20.0647C83.4682 20.0647 84.0865 20.0647 84.6165 20.0647C84.9698 20.0647 85.4115 19.7593 85.4115 19.2359C85.4115 19.0614 85.4115 6.06305 85.4115 5.88858C85.4115 5.62687 85.6323 5.45239 85.8532 5.45239C86.0298 5.45239 87.4431 5.45239 87.5314 5.45239C87.7523 5.45239 87.9731 5.62687 87.9731 5.88858C87.9731 5.88858 87.9731 6.01944 87.9731 6.19391C87.9731 6.67372 87.9731 18.6689 87.9731 19.0614C87.9731 20.0647 87.1781 21.2424 85.7648 21.2424C84.3957 21.2424 83.5565 21.2424 83.3799 21.2424C83.1149 21.2424 82.9382 21.0243 82.9382 20.8062C82.9382 20.6317 82.9382 20.6317 82.9382 20.5009C82.9824 20.2828 83.1591 20.0647 83.3799 20.0647Z" fill="white"/>
<path d="M78.1242 20.0647C78.0359 20.0647 77.4176 20.0647 76.8876 20.0647C76.5343 20.0647 76.0926 19.7593 76.0926 19.2359C76.0926 19.0614 76.0926 6.06305 76.0926 5.88858C76.0926 5.62687 75.8718 5.45239 75.6509 5.45239C75.4743 5.45239 74.061 5.45239 73.9727 5.45239C73.7518 5.45239 73.531 5.62687 73.531 5.88858C73.531 5.88858 73.531 6.01944 73.531 6.19391C73.531 6.67372 73.531 18.6689 73.531 19.0614C73.531 20.0647 74.326 21.2424 75.7393 21.2424C77.1084 21.2424 77.9475 21.2424 78.1242 21.2424C78.3892 21.2424 78.5659 21.0243 78.5659 20.8062C78.5659 20.6317 78.5659 20.6317 78.5659 20.5009C78.5659 20.2828 78.3892 20.0647 78.1242 20.0647Z" fill="white"/>
<path d="M66.1552 20.0647C66.0669 20.0647 63.1961 20.0647 62.6661 20.0647C62.3128 20.0647 61.8712 19.7593 61.8712 19.2359C61.8712 19.0614 61.8712 6.06305 61.8712 5.88858C61.8712 5.62687 61.6503 5.45239 61.4295 5.45239C61.2529 5.45239 59.8396 5.45239 59.7512 5.45239C59.5304 5.45239 59.3096 5.62687 59.3096 5.88858C59.3096 5.88858 59.3096 6.01944 59.3096 6.19391C59.3096 6.67372 59.3096 18.6689 59.3096 19.0614C59.3096 20.0647 60.1045 21.2424 61.5178 21.2424C62.887 21.2424 65.9344 21.2424 66.1552 21.2424C66.4202 21.2424 66.5969 21.0243 66.5969 20.8062C66.5969 20.6317 66.5969 20.6317 66.5969 20.5009C66.5969 20.2828 66.4202 20.0647 66.1552 20.0647Z" fill="white"/>
<path d="M111.734 5.45239C111.557 5.45239 110.144 5.45239 110.056 5.45239C109.835 5.45239 109.614 5.62687 109.614 5.88858C109.614 5.88858 109.614 6.01944 109.614 6.19391C109.614 6.49924 109.614 20.719 109.614 20.7626C109.614 21.0243 109.835 21.1988 110.056 21.1988C110.232 21.1988 111.646 21.1988 111.734 21.1988C111.955 21.1988 112.176 21.0243 112.176 20.7626C112.176 20.7626 112.176 5.9322 112.176 5.88858C112.176 5.62687 111.955 5.45239 111.734 5.45239Z" fill="white"/>
<path d="M81.6133 5.45239C81.4367 5.45239 80.0234 5.45239 79.9351 5.45239C79.7142 5.45239 79.4934 5.62687 79.4934 5.88858C79.4934 5.88858 79.4934 6.01944 79.4934 6.19391C79.4934 6.49924 79.4934 20.719 79.4934 20.7626C79.4934 21.0243 79.7142 21.1988 79.9351 21.1988C80.1117 21.1988 81.525 21.1988 81.6133 21.1988C81.8342 21.1988 82.055 21.0243 82.055 20.7626C82.055 20.7626 82.055 5.9322 82.055 5.88858C82.055 5.62687 81.8342 5.45239 81.6133 5.45239Z" fill="white"/>
<path d="M96.1879 6.6301C96.0996 6.6301 95.4813 6.6301 94.9513 6.6301C94.598 6.6301 94.1563 6.93543 94.1563 7.45885C94.1563 7.63333 94.1563 20.6317 94.1563 20.8062C94.1563 21.0679 93.9355 21.2424 93.7147 21.2424C93.538 21.2424 92.1247 21.2424 92.0364 21.2424C91.8156 21.2424 91.5947 21.0679 91.5947 20.8062C91.5947 20.8062 91.5947 20.6753 91.5947 20.5009C91.5947 20.0211 91.5947 8.0259 91.5947 7.63333C91.5947 6.6301 92.3897 5.45239 93.803 5.45239C95.1721 5.45239 96.0113 5.45239 96.1879 5.45239C96.4529 5.45239 96.6296 5.67049 96.6296 5.88858C96.6296 6.06305 96.6296 6.06305 96.6296 6.19391C96.5854 6.412 96.4529 6.6301 96.1879 6.6301Z" fill="white"/>
<path d="M101.444 6.6301C101.532 6.6301 102.15 6.6301 102.68 6.6301C103.034 6.6301 103.475 6.93543 103.475 7.45885C103.475 7.63333 103.475 20.6317 103.475 20.8062C103.475 21.0679 103.696 21.2424 103.917 21.2424C104.094 21.2424 105.507 21.2424 105.595 21.2424C105.816 21.2424 106.037 21.0679 106.037 20.8062C106.037 20.8062 106.037 20.6753 106.037 20.5009C106.037 20.0211 106.037 8.0259 106.037 7.63333C106.037 6.6301 105.242 5.45239 103.829 5.45239C102.459 5.45239 101.62 5.45239 101.444 5.45239C101.179 5.45239 101.002 5.67049 101.002 5.88858C101.002 6.06305 101.002 6.06305 101.002 6.19391C101.002 6.412 101.179 6.6301 101.444 6.6301Z" fill="white"/>
<path d="M63.1521 6.6301C63.2404 6.6301 66.1112 6.6301 66.6412 6.6301C66.9945 6.6301 67.4361 6.93543 67.4361 7.45885C67.4361 7.63333 67.4361 20.6317 67.4361 20.8062C67.4361 21.0679 67.657 21.2424 67.8778 21.2424C68.0545 21.2424 69.4678 21.2424 69.5561 21.2424C69.7769 21.2424 69.9977 21.0679 69.9977 20.8062C69.9977 20.8062 69.9977 20.6753 69.9977 20.5009C69.9977 20.0211 69.9977 8.0259 69.9977 7.63333C69.9977 6.6301 69.2028 5.45239 67.7895 5.45239C66.4203 5.45239 63.3729 5.45239 63.1521 5.45239C62.8871 5.45239 62.7104 5.67049 62.7104 5.88858C62.7104 6.06305 62.7104 6.06305 62.7104 6.19391C62.7104 6.412 62.8871 6.6301 63.1521 6.6301Z" fill="white"/>
<path d="M129.533 6.6301C129.621 6.6301 131.653 6.6301 132.183 6.6301C132.536 6.6301 132.978 6.93543 132.978 7.45885C132.978 7.63333 132.978 20.6317 132.978 20.8062C132.978 21.0679 133.198 21.2424 133.419 21.2424C133.596 21.2424 135.009 21.2424 135.098 21.2424C135.318 21.2424 135.539 21.0679 135.539 20.8062C135.539 20.8062 135.539 20.6753 135.539 20.5009C135.539 20.0211 135.539 8.0259 135.539 7.63333C135.539 6.6301 134.744 5.45239 133.331 5.45239C131.962 5.45239 129.754 5.45239 129.533 5.45239C129.268 5.45239 129.091 5.67049 129.091 5.88858C129.091 6.06305 129.091 6.06305 129.091 6.19391C129.091 6.412 129.268 6.6301 129.533 6.6301Z" fill="white"/>
<path d="M97.9543 21.2423C98.131 21.2423 99.5443 21.2423 99.6326 21.2423C99.8535 21.2423 100.074 21.0679 100.074 20.8061C100.074 20.8061 100.074 20.6753 100.074 20.5008C100.074 20.1955 100.074 5.97578 100.074 5.93216C100.074 5.67045 99.8535 5.49597 99.6326 5.49597C99.456 5.49597 98.0427 5.49597 97.9543 5.49597C97.7335 5.49597 97.5127 5.67045 97.5127 5.93216C97.5127 5.93216 97.5127 20.7625 97.5127 20.8061C97.5127 21.0679 97.7335 21.2423 97.9543 21.2423Z" fill="white"/>
<path d="M139.558 5.45239C139.514 5.45239 137.88 5.45239 137.88 5.45239C137.615 5.45239 137.438 5.67049 137.438 5.88858C137.438 6.01944 137.438 7.24076 137.438 7.41524C137.438 7.63333 137.615 7.85142 137.88 7.85142C137.924 7.85142 139.558 7.85142 139.558 7.85142C139.823 7.85142 140 7.63333 140 7.41524C140 7.28438 140 6.06305 140 5.88858C140 5.67049 139.823 5.45239 139.558 5.45239Z" fill="white"/>
<path d="M17.4855 20.8061C14.8798 23.7722 12.3624 25.0372 12.3624 25.0372C12.3624 25.0372 1.76265 19.5848 1.76265 5.5832C7.45999 5.32149 11.5674 2.74798 12.4065 1.96284C12.8923 2.44265 14.5706 3.53312 16.9997 4.40549V2.7916C14.2173 1.74475 12.8482 0.479806 12.3624 0C11.5232 0.828756 8.3433 3.88207 0.0401956 4.27464C-0.798948 20.8061 12.3624 27 12.3624 27C12.3624 27 16.2489 25.168 19.6496 20.8061H17.4855Z" fill="white"/>
<path d="M20.6651 11.8643H16.8228V15.3101H20.6651V11.8643Z" fill="white"/>
<path d="M16.5577 15.6591H15.4536V16.6187H16.5577V15.6591Z" fill="white"/>
<path d="M19.075 17.3602H17.3967V18.8869H19.075V17.3602Z" fill="white"/>
<path d="M23.1825 17.5783H20.665V19.7592H23.1825V17.5783Z" fill="white"/>
<path d="M29.6749 10.3376H26.6716V13.042H29.6749V10.3376Z" fill="white"/>
<path d="M29.3657 5.23425H27.9966V6.4992H29.3657V5.23425Z" fill="white"/>
<path d="M26.6274 5.97577H25.2583V7.24071H26.6274V5.97577Z" fill="white"/>
<path d="M26.6716 13.2601H24.905V14.874H26.6716V13.2601Z" fill="white"/>
<path d="M25.3908 16.1389H23.4917V17.7964H25.3908V16.1389Z" fill="white"/>
<path d="M23.8009 3.18414H21.7251V5.01613H23.8009V3.18414Z" fill="white"/>
<path d="M19.7817 1.57025H17.9268V3.18414H19.7817V1.57025Z" fill="white"/>
<path d="M17.706 4.75439H15.321V6.84809H17.706V4.75439Z" fill="white"/>
<path d="M15.4977 5.84491H15.321V7.93861H15.4977V5.84491Z" fill="white"/>
<path d="M19.0751 3.09692H18.8984V5.19062H19.0751V3.09692Z" fill="white"/>
<path d="M23.1825 4.75439H23.0059V9.37798H23.1825V4.75439Z" fill="white"/>
<path d="M28.5707 6.19385H28.394V10.8174H28.5707V6.19385Z" fill="white"/>
<path d="M28.4824 6.28107H26.23V6.45554H28.4824V6.28107Z" fill="white"/>
<path d="M26.76 10.9483H24.5076V11.1228H26.76V10.9483Z" fill="white"/>
<path d="M25.2141 13.4346H22.9617V13.609H25.2141V13.4346Z" fill="white"/>
<path d="M22.3433 14.0888H20.0908V14.2633H22.3433V14.0888Z" fill="white"/>
<path d="M24.3308 17.5783H22.0784V17.7528H24.3308V17.5783Z" fill="white"/>
<path d="M26.4066 13.6963L26.23 13.5654L26.8483 12.6494L27.025 12.7367L26.4066 13.6963Z" fill="white"/>
<path d="M16.381 16.0081L16.2485 15.8336L17.0435 15.0485L17.176 15.1793L16.381 16.0081Z" fill="white"/>
<path d="M22.0342 9.72693H19.7817V9.9014H22.0342V9.72693Z" fill="white"/>
<path d="M18.3684 7.80774H16.116V7.98221H18.3684V7.80774Z" fill="white"/>
<path d="M19.87 6.01935H19.6934V10.6429H19.87V6.01935Z" fill="white"/>
<path d="M19.0309 13.8707H18.8542V18.4943H19.0309V13.8707Z" fill="white"/>
<path d="M25.3908 13.3909H25.2141V16.8804H25.3908V13.3909Z" fill="white"/>
<path d="M21.8133 5.01611H18.28V8.15666H21.8133V5.01611Z" fill="white"/>
<path d="M20.2234 10.4249H19.2959V11.2536H20.2234V10.4249Z" fill="white"/>
<path d="M24.5957 8.94183H21.9458V11.2536H24.5957V8.94183Z" fill="white"/>
<path d="M16.2485 7.80774H13.5103V10.294H16.2485V7.80774Z" fill="white"/>
<path d="M23.4474 12.9547H21.9458V14.3069H23.4474V12.9547Z" fill="white"/>
<g opacity="0.8">
<path d="M12.3619 25.0371V1.96283C11.5227 2.79159 7.45952 5.32147 1.71802 5.58318C1.76218 19.5848 12.3619 25.0371 12.3619 25.0371Z" fill="#D3D3D3"/>
</g>
</g>
<defs>
<clipPath id="clip0_944_684">
<rect width="140" height="27" fill="white"/>
</clipPath>
</defs>
</svg>
