<svg width="60" height="12" viewBox="0 0 60 12" fill="none" xmlns="http://www.w3.org/2000/svg">
<g clip-path="url(#clip0_1239_1243)">
<path d="M16.2189 3.29563C16.2189 3.063 16.4082 2.92729 16.5596 2.92729C18.2253 2.92729 19.626 2.92729 19.6638 2.92729C19.7774 2.92729 19.8531 2.83036 19.8531 2.73343C19.8531 2.67528 19.8531 2.67528 19.8531 2.59773C19.8531 2.5008 19.7774 2.40387 19.6638 2.40387C19.5881 2.40387 16.6543 2.40387 16.0675 2.40387C15.4618 2.40387 15.1211 2.92729 15.1211 3.37317C15.1211 3.54765 15.1211 5.02099 15.1211 5.19547C15.1211 5.64135 15.4618 6.16477 16.0675 6.16477C16.2 6.16477 16.8814 6.16477 18.5471 6.16477C18.6985 6.16477 18.8878 6.30048 18.8878 6.53311C18.8878 6.61065 18.8878 8.47172 18.8878 8.54926C18.8878 8.7819 18.6985 8.9176 18.5471 8.9176C16.8814 8.9176 15.6322 8.9176 15.5943 8.9176C15.4807 8.9176 15.405 9.01453 15.405 9.11146C15.405 9.16962 15.405 9.16962 15.405 9.24717C15.405 9.3441 15.4807 9.44103 15.5943 9.44103C15.67 9.44103 18.4524 9.44103 19.0392 9.44103C19.6449 9.44103 19.9856 8.9176 19.9856 8.47172C19.9856 8.29725 19.9856 6.8239 19.9856 6.64943C19.9856 6.20355 19.6449 5.68012 19.0392 5.68012C18.9446 5.68012 18.7174 5.68012 18.4524 5.68012C18.4524 5.68012 18.4524 5.68012 18.4335 5.68012C18.3956 5.68012 18.2253 5.68012 16.5407 5.68012C16.3893 5.68012 16.2 5.54442 16.2 5.31179C16.2189 5.23424 16.2189 3.37317 16.2189 3.29563Z" fill="#555555"/>
<path d="M50.6681 3.29563C50.6681 3.063 50.8574 2.92729 51.0088 2.92729C52.6745 2.92729 54.0752 2.92729 54.113 2.92729C54.2266 2.92729 54.3023 2.83036 54.3023 2.73343C54.3023 2.67528 54.3023 2.67528 54.3023 2.59773C54.3023 2.5008 54.2266 2.40387 54.113 2.40387C54.0373 2.40387 51.1035 2.40387 50.5167 2.40387C49.911 2.40387 49.5703 2.92729 49.5703 3.37317C49.5703 3.54765 49.5703 5.02099 49.5703 5.19547C49.5703 5.64135 49.911 6.16477 50.5167 6.16477C50.6492 6.16477 51.3306 6.16477 52.9963 6.16477C53.1477 6.16477 53.337 6.30048 53.337 6.53311C53.337 6.61065 53.337 8.47172 53.337 8.54926C53.337 8.7819 53.1477 8.9176 52.9963 8.9176C51.3306 8.9176 50.0814 8.9176 50.0435 8.9176C49.9299 8.9176 49.8542 9.01453 49.8542 9.11146C49.8542 9.16962 49.8542 9.16962 49.8542 9.24717C49.8542 9.3441 49.9299 9.44103 50.0435 9.44103C50.1192 9.44103 52.9016 9.44103 53.4884 9.44103C54.0941 9.44103 54.4348 8.9176 54.4348 8.47172C54.4348 8.29725 54.4348 6.8239 54.4348 6.64943C54.4348 6.20355 54.0941 5.68012 53.4884 5.68012C53.3938 5.68012 52.6745 5.68012 51.0088 5.68012C50.8574 5.68012 50.6681 5.54442 50.6681 5.31179C50.6681 5.23424 50.6681 3.37317 50.6681 3.29563Z" fill="#555555"/>
<path d="M24.3578 8.91762C24.32 8.91762 23.0329 8.91762 22.8057 8.91762C22.6543 8.91762 22.465 8.78192 22.465 8.54929C22.465 8.47174 22.465 2.69468 22.465 2.61714C22.465 2.50082 22.3704 2.42328 22.2757 2.42328C22.2 2.42328 21.5943 2.42328 21.5565 2.42328C21.4618 2.42328 21.3672 2.50082 21.3672 2.61714C21.3672 2.61714 21.3672 2.6753 21.3672 2.75284C21.3672 2.96609 21.3672 8.29727 21.3672 8.47174C21.3672 8.91762 21.7079 9.44105 22.3136 9.44105C22.9004 9.44105 24.2632 9.44105 24.3389 9.44105C24.4525 9.44105 24.5282 9.34412 24.5282 9.24719C24.5282 9.16964 24.5282 9.16964 24.5282 9.11149C24.5471 9.01455 24.4714 8.91762 24.3578 8.91762Z" fill="#555555"/>
<path d="M35.7342 8.91762C35.7721 8.91762 36.0371 8.91762 36.2642 8.91762C36.4156 8.91762 36.6049 8.78192 36.6049 8.54929C36.6049 8.47174 36.6049 2.69468 36.6049 2.61714C36.6049 2.50082 36.6995 2.42328 36.7942 2.42328C36.8699 2.42328 37.4756 2.42328 37.5134 2.42328C37.6081 2.42328 37.7027 2.50082 37.7027 2.61714C37.7027 2.61714 37.7027 2.6753 37.7027 2.75284C37.7027 2.96609 37.7027 8.29727 37.7027 8.47174C37.7027 8.91762 37.362 9.44105 36.7563 9.44105C36.1695 9.44105 35.8099 9.44105 35.7342 9.44105C35.6206 9.44105 35.5449 9.34412 35.5449 9.24719C35.5449 9.16964 35.5449 9.16964 35.5449 9.11149C35.5638 9.01455 35.6396 8.91762 35.7342 8.91762Z" fill="#555555"/>
<path d="M33.4822 8.91762C33.4443 8.91762 33.1793 8.91762 32.9522 8.91762C32.8008 8.91762 32.6115 8.78192 32.6115 8.54929C32.6115 8.47174 32.6115 2.69468 32.6115 2.61714C32.6115 2.50082 32.5169 2.42328 32.4222 2.42328C32.3465 2.42328 31.7408 2.42328 31.703 2.42328C31.6083 2.42328 31.5137 2.50082 31.5137 2.61714C31.5137 2.61714 31.5137 2.6753 31.5137 2.75284C31.5137 2.96609 31.5137 8.29727 31.5137 8.47174C31.5137 8.91762 31.8544 9.44105 32.4601 9.44105C33.0468 9.44105 33.4065 9.44105 33.4822 9.44105C33.5958 9.44105 33.6715 9.34412 33.6715 9.24719C33.6715 9.16964 33.6715 9.16964 33.6715 9.11149C33.6715 9.01455 33.5958 8.91762 33.4822 8.91762Z" fill="#555555"/>
<path d="M28.3518 8.91762C28.314 8.91762 27.0836 8.91762 26.8565 8.91762C26.7051 8.91762 26.5158 8.78192 26.5158 8.54929C26.5158 8.47174 26.5158 2.69468 26.5158 2.61714C26.5158 2.50082 26.4212 2.42328 26.3265 2.42328C26.2508 2.42328 25.6451 2.42328 25.6072 2.42328C25.5126 2.42328 25.418 2.50082 25.418 2.61714C25.418 2.61714 25.418 2.6753 25.418 2.75284C25.418 2.96609 25.418 8.29727 25.418 8.47174C25.418 8.91762 25.7587 9.44105 26.3644 9.44105C26.9511 9.44105 28.2572 9.44105 28.3518 9.44105C28.4654 9.44105 28.5411 9.34412 28.5411 9.24719C28.5411 9.16964 28.5411 9.16964 28.5411 9.11149C28.5411 9.01455 28.4654 8.91762 28.3518 8.91762Z" fill="#555555"/>
<path d="M47.8851 2.42328C47.8094 2.42328 47.2037 2.42328 47.1658 2.42328C47.0712 2.42328 46.9766 2.50082 46.9766 2.61714C46.9766 2.61714 46.9766 2.6753 46.9766 2.75284C46.9766 2.88855 46.9766 9.20842 46.9766 9.2278C46.9766 9.34412 47.0712 9.42166 47.1658 9.42166C47.2416 9.42166 47.8473 9.42166 47.8851 9.42166C47.9797 9.42166 48.0744 9.34412 48.0744 9.2278C48.0744 9.2278 48.0744 2.63653 48.0744 2.61714C48.0744 2.50082 47.9797 2.42328 47.8851 2.42328Z" fill="#555555"/>
<path d="M34.9769 2.42328C34.9012 2.42328 34.2955 2.42328 34.2576 2.42328C34.163 2.42328 34.0684 2.50082 34.0684 2.61714C34.0684 2.61714 34.0684 2.6753 34.0684 2.75284C34.0684 2.88855 34.0684 9.20842 34.0684 9.2278C34.0684 9.34412 34.163 9.42166 34.2576 9.42166C34.3334 9.42166 34.939 9.42166 34.9769 9.42166C35.0715 9.42166 35.1662 9.34412 35.1662 9.2278C35.1662 9.2278 35.1662 2.63653 35.1662 2.61714C35.1662 2.50082 35.0715 2.42328 34.9769 2.42328Z" fill="#555555"/>
<path d="M41.2224 2.9467C41.1846 2.9467 40.9196 2.9467 40.6924 2.9467C40.541 2.9467 40.3517 3.08241 40.3517 3.31504C40.3517 3.39258 40.3517 9.16964 40.3517 9.24719C40.3517 9.36351 40.2571 9.44105 40.1625 9.44105C40.0867 9.44105 39.481 9.44105 39.4432 9.44105C39.3485 9.44105 39.2539 9.36351 39.2539 9.24719C39.2539 9.24719 39.2539 9.18903 39.2539 9.11149C39.2539 8.89824 39.2539 3.56706 39.2539 3.39258C39.2539 2.9467 39.5946 2.42328 40.2003 2.42328C40.7871 2.42328 41.1467 2.42328 41.2224 2.42328C41.336 2.42328 41.4117 2.52021 41.4117 2.61714C41.4117 2.69468 41.4117 2.69468 41.4117 2.75284C41.3928 2.84977 41.336 2.9467 41.2224 2.9467Z" fill="#555555"/>
<path d="M43.4744 2.9467C43.5123 2.9467 43.7773 2.9467 44.0044 2.9467C44.1558 2.9467 44.3451 3.08241 44.3451 3.31504C44.3451 3.39258 44.3451 9.16964 44.3451 9.24719C44.3451 9.36351 44.4398 9.44105 44.5344 9.44105C44.6101 9.44105 45.2158 9.44105 45.2537 9.44105C45.3483 9.44105 45.443 9.36351 45.443 9.24719C45.443 9.24719 45.443 9.18903 45.443 9.11149C45.443 8.89824 45.443 3.56706 45.443 3.39258C45.443 2.9467 45.1022 2.42328 44.4965 2.42328C43.9098 2.42328 43.5501 2.42328 43.4744 2.42328C43.3609 2.42328 43.2852 2.52021 43.2852 2.61714C43.2852 2.69468 43.2852 2.69468 43.2852 2.75284C43.2852 2.84977 43.3609 2.9467 43.4744 2.9467Z" fill="#555555"/>
<path d="M27.0643 2.9467C27.1021 2.9467 28.3325 2.9467 28.5596 2.9467C28.711 2.9467 28.9003 3.08241 28.9003 3.31504C28.9003 3.39258 28.9003 9.16964 28.9003 9.24719C28.9003 9.36351 28.9949 9.44105 29.0896 9.44105C29.1653 9.44105 29.771 9.44105 29.8088 9.44105C29.9035 9.44105 29.9981 9.36351 29.9981 9.24719C29.9981 9.24719 29.9981 9.18903 29.9981 9.11149C29.9981 8.89824 29.9981 3.56706 29.9981 3.39258C29.9981 2.9467 29.6574 2.42328 29.0517 2.42328C28.465 2.42328 27.1589 2.42328 27.0643 2.42328C26.9507 2.42328 26.875 2.52021 26.875 2.61714C26.875 2.69468 26.875 2.69468 26.875 2.75284C26.875 2.84977 26.9507 2.9467 27.0643 2.9467Z" fill="#555555"/>
<path d="M55.5135 2.9467C55.5514 2.9467 56.422 2.9467 56.6492 2.9467C56.8006 2.9467 56.9899 3.08241 56.9899 3.31504C56.9899 3.39258 56.9899 9.16964 56.9899 9.24719C56.9899 9.36351 57.0845 9.44105 57.1792 9.44105C57.2549 9.44105 57.8606 9.44105 57.8984 9.44105C57.9931 9.44105 58.0877 9.36351 58.0877 9.24719C58.0877 9.24719 58.0877 9.18903 58.0877 9.11149C58.0877 8.89824 58.0877 3.56706 58.0877 3.39258C58.0877 2.9467 57.747 2.42328 57.1413 2.42328C56.5545 2.42328 55.6081 2.42328 55.5135 2.42328C55.3999 2.42328 55.3242 2.52021 55.3242 2.61714C55.3242 2.69468 55.3242 2.69468 55.3242 2.75284C55.3242 2.84977 55.3999 2.9467 55.5135 2.9467Z" fill="#555555"/>
<path d="M41.9803 9.44101C42.056 9.44101 42.6617 9.44101 42.6996 9.44101C42.7942 9.44101 42.8888 9.36347 42.8888 9.24715C42.8888 9.24715 42.8888 9.18899 42.8888 9.11145C42.8888 8.97574 42.8888 2.65587 42.8888 2.63649C42.8888 2.52017 42.7942 2.44263 42.6996 2.44263C42.6238 2.44263 42.0182 2.44263 41.9803 2.44263C41.8857 2.44263 41.791 2.52017 41.791 2.63649C41.791 2.63649 41.791 9.22776 41.791 9.24715C41.791 9.36347 41.8857 9.44101 41.9803 9.44101Z" fill="#555555"/>
<path d="M59.8109 2.42328C59.792 2.42328 59.0916 2.42328 59.0916 2.42328C58.9781 2.42328 58.9023 2.52021 58.9023 2.61714C58.9023 2.6753 58.9023 3.21811 58.9023 3.29565C58.9023 3.39258 58.9781 3.48951 59.0916 3.48951C59.1106 3.48951 59.8109 3.48951 59.8109 3.48951C59.9245 3.48951 60.0002 3.39258 60.0002 3.29565C60.0002 3.2375 60.0002 2.69468 60.0002 2.61714C60.0002 2.52021 59.9245 2.42328 59.8109 2.42328Z" fill="#555555"/>
<path d="M7.49307 9.24717C6.37632 10.5654 5.29742 11.1276 5.29742 11.1276C5.29742 11.1276 0.754688 8.70436 0.754688 2.48142C3.19641 2.36511 4.95671 1.22132 5.31635 0.872375C5.52455 1.08562 6.24382 1.57027 7.28486 1.958V1.24071C6.0924 0.775444 5.50563 0.213247 5.29742 0C4.93779 0.368336 3.57497 1.72536 0.0164943 1.89984C-0.343139 9.24717 5.29742 12 5.29742 12C5.29742 12 6.96309 11.1858 8.42055 9.24717H7.49307Z" fill="#555555"/>
<path d="M8.85572 5.27301H7.20898V6.80451H8.85572V5.27301Z" fill="#555555"/>
<path d="M7.09429 6.95959H6.62109V7.38609H7.09429V6.95959Z" fill="#555555"/>
<path d="M8.17434 7.71564H7.45508V8.39415H8.17434V7.71564Z" fill="#555555"/>
<path d="M9.93437 7.81256H8.85547V8.78187H9.93437V7.81256Z" fill="#555555"/>
<path d="M12.7168 4.59448H11.4297V5.79642H12.7168V4.59448Z" fill="#555555"/>
<path d="M12.5848 2.32629H11.998V2.88849H12.5848V2.32629Z" fill="#555555"/>
<path d="M11.411 2.65588H10.8242V3.21808H11.411V2.65588Z" fill="#555555"/>
<path d="M11.429 5.89337H10.6719V6.61066H11.429V5.89337Z" fill="#555555"/>
<path d="M10.8803 7.17285H10.0664V7.90952H10.8803V7.17285Z" fill="#555555"/>
<path d="M10.2002 1.41516H9.31055V2.22938H10.2002V1.41516Z" fill="#555555"/>
<path d="M8.47662 0.697876H7.68164V1.41516H8.47662V0.697876Z" fill="#555555"/>
<path d="M7.58657 2.11304H6.56445V3.04357H7.58657V2.11304Z" fill="#555555"/>
<path d="M6.64017 2.59772H6.56445V3.52825H6.64017V2.59772Z" fill="#555555"/>
<path d="M8.17337 1.3764H8.09766V2.30694H8.17337V1.3764Z" fill="#555555"/>
<path d="M9.93509 2.11304H9.85938V4.16796H9.93509V2.11304Z" fill="#555555"/>
<path d="M12.2437 2.75281H12.168V4.80773H12.2437V2.75281Z" fill="#555555"/>
<path d="M12.2056 2.79156H11.2402V2.86911H12.2056V2.79156Z" fill="#555555"/>
<path d="M11.4673 4.86591H10.502V4.94345H11.4673V4.86591Z" fill="#555555"/>
<path d="M10.8052 5.97089H9.83984V6.04843H10.8052V5.97089Z" fill="#555555"/>
<path d="M9.5747 6.26172H8.60938V6.33926H9.5747V6.26172Z" fill="#555555"/>
<path d="M10.4263 7.81256H9.46094V7.89011H10.4263V7.81256Z" fill="#555555"/>
<path d="M11.3159 6.08721L11.2402 6.02906L11.5052 5.62195L11.5809 5.66072L11.3159 6.08721Z" fill="#555555"/>
<path d="M7.01967 7.11467L6.96289 7.03712L7.3036 6.68817L7.36038 6.74633L7.01967 7.11467Z" fill="#555555"/>
<path d="M9.44189 4.32306H8.47656V4.4006H9.44189V4.32306Z" fill="#555555"/>
<path d="M7.87158 3.47009H6.90625V3.54764H7.87158V3.47009Z" fill="#555555"/>
<path d="M8.51517 2.67523H8.43945V4.73016H8.51517V2.67523Z" fill="#555555"/>
<path d="M8.15579 6.16473H8.08008V8.21966H8.15579V6.16473Z" fill="#555555"/>
<path d="M10.8804 5.95154H10.8047V7.50243H10.8804V5.95154Z" fill="#555555"/>
<path d="M9.34823 2.22937H7.83398V3.62517H9.34823V2.22937Z" fill="#555555"/>
<path d="M8.66702 4.63324H8.26953V5.00158H8.66702V4.63324Z" fill="#555555"/>
<path d="M10.54 3.97412H9.4043V5.00158H10.54V3.97412Z" fill="#555555"/>
<path d="M6.9626 3.47009H5.78906V4.5751H6.9626V3.47009Z" fill="#555555"/>
<path d="M10.0479 5.75763H9.4043V6.3586H10.0479V5.75763Z" fill="#555555"/>
<g opacity="0.8">
<path d="M5.29799 11.1276V0.872375C4.93835 1.24071 3.19697 2.36511 0.736328 2.48142C0.755256 8.70436 5.29799 11.1276 5.29799 11.1276Z" fill="#9E9E9E"/>
</g>
</g>
<defs>
<clipPath id="clip0_1239_1243">
<rect width="60" height="12" fill="white"/>
</clipPath>
</defs>
</svg>
