<svg xmlns="http://www.w3.org/2000/svg" viewBox="0 0 150 45" enable-background="new 0 0 150 45"><path d="M51.7 22.3c.5.5.7 1.2.7 2.3 0 2.3-1.4 3.5-4.3 3.5-.9 0-2.1-.1-3.4-.4l-.7-.1.1-2.4c1.8.2 3 .3 3.7.3.7 0 1.2-.1 1.4-.2.3-.1.4-.3.4-.6s-.1-.5-.4-.6c-.3-.2-1-.3-2.1-.5-1.1-.1-2-.4-2.5-.9s-.8-1.3-.8-2.4c0-1.2.4-2 1.2-2.6.8-.6 1.8-.9 3-.9.9 0 2 .1 3.5.4l.7.1v2.4c-1.7-.2-3-.3-3.7-.3-.7 0-1.2.1-1.4.2-.2.1-.3.3-.3.6s.1.5.4.6c.3.1 1 .2 2.2.4s2 .6 2.3 1.1zm7.4-1.1c-1.1-.2-1.9-.4-2.2-.5-.3-.1-.4-.3-.4-.6s.1-.5.3-.6c.2-.1.7-.2 1.4-.2s2 .1 3.7.3v-2.4l-.7-.1c-1.5-.3-2.6-.4-3.5-.4-1.2 0-2.2.3-3 .9-.8.6-1.2 1.4-1.2 2.6 0 1.1.3 1.9.8 2.4.5.4 1.4.8 2.5.9 1.1.2 1.8.3 2.1.5.3.1.4.3.4.6s-.1.5-.4.6c-.2.1-.7.2-1.4.2s-1.9-.1-3.7-.3l-.1 2.4.7.1c1.3.3 2.5.4 3.4.4 2.9 0 4.3-1.2 4.3-3.5 0-1.1-.2-1.8-.7-2.3-.3-.4-1.1-.8-2.3-1zm9.1 4.1h-.6l-1.7-8.3h-3l2.5 10.8h4.9l2.6-10.8h-2.9l-1.8 8.3zm16.1-8.5c-1.1 0-2.2.3-3.3 1v-.8h-1.6v10.8h1.6v-8.7l.4-.2c.3-.1.7-.3 1.2-.4.5-.1 1-.2 1.5-.2 1 0 1.6.3 1.9.8.3.5.5 1.6.5 3.1v5.6h1.6v-5.7c0-2-.3-3.4-.8-4.1-.6-.8-1.6-1.2-3-1.2zm13.6 1.3c.7.8 1.1 2.1 1.1 3.8l-.1 1.2h-7.1c0 1.1.2 2 .6 2.6.4.6 1.1.9 2.2.9s2.2 0 3.3-.1l.6-.1v1.3c-1.6.2-3 .3-4.2.3-1.6 0-2.7-.4-3.3-1.3-.7-.9-1-2.3-1-4.2 0-3.8 1.5-5.7 4.5-5.7 1.4 0 2.5.4 3.4 1.3zm-.7 3.6c0-1.3-.2-2.3-.6-2.8-.5-.5-1.1-.8-2.1-.8s-1.7.3-2.2.9c-.4.6-.7 1.5-.7 2.7h5.6zm7.3 4.9c-.7 0-1.1-.2-1.3-.6s-.3-1.2-.3-2.4v-5.1h3.4v-1.4h-3.4v-3.3h-1.6v3.3h-1.5v1.4h1.5v5.7c0 1.5.2 2.6.6 3.1.4.5 1.2.8 2.3.8.5 0 1.2-.1 2.2-.2l-.1-1.3h-1.8zm13.9-.2h-.4l-2.6-9.2h-1.6l-2.6 9.2h-.3l-2.2-9.4h-1.6l2.5 10.8h2.7l2.3-8.4 2.3 8.4h2.7l2.5-10.8h-1.6l-2.1 9.4zm12.8-8.3c.7.9 1.1 2.3 1.1 4.3s-.3 3.4-1 4.3c-.6.9-1.8 1.3-3.6 1.3-1.7 0-2.9-.4-3.6-1.3-.7-.9-1-2.3-1-4.3s.4-3.4 1.1-4.3c.8-.9 1.9-1.3 3.6-1.3 1.7 0 2.9.4 3.4 1.3zm-.6 4.3c0-1.5-.2-2.6-.6-3.2-.4-.6-1.2-.9-2.3-.9s-1.9.3-2.3.9c-.4.5-.6 1.6-.6 3.2s.2 2.7.6 3.3c.4.6 1.2.9 2.4.9s2-.3 2.4-.9c.4-.7.4-1.8.4-3.3zm5.6-5.4h-1.6v10.8h1.6v-7.9l.5-.3c.3-.2.8-.4 1.5-.6.7-.2 1.3-.4 1.9-.5v-1.6c-1.4.3-2.7.8-3.9 1.7v-1.6zm10.1 5l3.5-5h-1.8l-3.1 4.4-1.6.1v-9.2h-1.6v15.5h1.6v-4.9l1.7-.1 3.2 5h1.8l-3.7-5.8z" class="logo--text" style="fill: #011627"></path><path d="M76.3 24.4h-2.5c-.2 0-.4.2-.4.4v2.8c0 .2.2.4.4.4h2.5c.2 0 .4-.2.4-.4v-2.8c0-.3-.2-.4-.4-.4z" class="logo--dot" style="fill: #1BA5F8"></path><path d="M9.1 35.6l5.7-7c.6-.7 1.7-.7 2.3 0l5.7 7c.4.5.4 1.3 0 1.9l-5.7 7c-.6.7-1.7.7-2.3 0l-5.7-7c-.4-.6-.4-1.4 0-1.9z" class="logo--symbol-bottom" style="fill: #72C7FB"></path><path d="M31.5 18.5l-5.7-7c-.6-.7-1.7-.7-2.3 0l-5.7 7c-.4.5-.4 1.3 0 1.9l5.7 7c.6.7 1.7.7 2.3 0l5.7-7c.4-.5.4-1.3 0-1.9zM8.3 11.5c-.6-.7-1.7-.7-2.3 0l-5.7 7c-.4.5-.4 1.3 0 1.9l5.7 7c.6.7 1.7.7 2.3 0l5.7-7c.4-.5.4-1.3 0-1.9l-5.7-7zM22.8 7.5l-5.7-7c-.6-.7-1.7-.7-2.3 0l-5.7 7c-.4.5-.4 1.3 0 1.9l5.7 7c.6.7 1.7.7 2.3 0l5.7-7c.4-.5.4-1.3 0-1.9z" class="logo--symbol-top" style="fill: #1BA5F8"></path></svg>