<svg width="22" height="22" viewBox="0 0 22 22" fill="none" xmlns="http://www.w3.org/2000/svg">
<path fill-rule="evenodd" clip-rule="evenodd" d="M5.16736 2.26999C6.31351 1.49048 7.60265 0.945621 8.96044 0.666837C10.3182 0.388053 11.7178 0.380864 13.0783 0.645685C14.4389 0.910506 15.7336 1.4421 16.8877 2.20979C18.0418 2.97748 19.0325 3.96609 19.8026 5.11858C20.5727 6.27106 21.107 7.56462 21.3746 8.92464C21.6423 10.2847 21.638 11.6842 21.3621 13.0426C21.0862 14.4009 20.544 15.6912 19.7669 16.839C18.9898 17.9868 17.9931 18.9693 16.8344 19.73C14.519 21.2773 11.6838 21.8415 8.9525 21.2985C6.22118 20.7554 3.81745 19.1496 2.27011 16.8342C0.722769 14.5189 0.158569 11.6837 0.701628 8.95239C1.24469 6.22106 2.85052 3.81733 5.16586 2.26999H5.16736ZM6.00136 18.4835C6.98395 19.1474 8.08807 19.6106 9.25025 19.8464C10.4124 20.0823 11.6098 20.0861 12.7734 19.8577C13.9371 19.6293 15.0442 19.1732 16.031 18.5156C17.0178 17.858 17.8649 17.0118 18.5237 16.0258C19.1825 15.0397 19.6399 13.9332 19.8696 12.7698C20.0993 11.6064 20.0969 10.409 19.8624 9.24659C19.6279 8.08414 19.166 6.97949 18.5032 5.99612C17.8404 5.01276 16.9899 4.17007 16.0004 3.51649C14.0155 2.20546 11.5923 1.73354 9.26049 2.20391C6.92868 2.67428 4.87793 4.04867 3.5565 6.02664C2.23507 8.00462 1.75046 10.4253 2.20859 12.7595C2.66672 15.0938 4.03034 17.1517 6.00136 18.4835ZM8.75086 9.49999C8.75086 9.89782 8.59282 10.2793 8.31152 10.5607C8.03021 10.842 7.64868 11 7.25086 11C6.85303 11 6.4715 10.842 6.1902 10.5607C5.90889 10.2793 5.75086 9.89782 5.75086 9.49999C5.75086 9.10217 5.90889 8.72064 6.1902 8.43933C6.4715 8.15803 6.85303 7.99999 7.25086 7.99999C7.64868 7.99999 8.03021 8.15803 8.31152 8.43933C8.59282 8.72064 8.75086 9.10217 8.75086 9.49999ZM16.2509 9.49999C16.2509 9.89782 16.0928 10.2793 15.8115 10.5607C15.5302 10.842 15.1487 11 14.7509 11C14.353 11 13.9715 10.842 13.6902 10.5607C13.4089 10.2793 13.2509 9.89782 13.2509 9.49999C13.2509 9.10217 13.4089 8.72064 13.6902 8.43933C13.9715 8.15803 14.353 7.99999 14.7509 7.99999C15.1487 7.99999 15.5302 8.15803 15.8115 8.43933C16.0928 8.72064 16.2509 9.10217 16.2509 9.49999ZM11.0009 15.5C10.1858 15.502 9.38544 15.2826 8.68534 14.8651C7.98524 14.4477 7.41167 13.848 7.02586 13.13L5.72086 13.85C6.24608 14.8219 7.02946 15.63 7.98465 16.1851C8.93984 16.7402 10.0297 17.0209 11.1343 16.996C12.2388 16.9712 13.315 16.6419 14.2443 16.0445C15.1735 15.447 15.9198 14.6046 16.4009 13.61L15.0509 12.965C14.6819 13.7252 14.1063 14.3661 13.3901 14.8144C12.6738 15.2627 11.8458 15.5003 11.0009 15.5Z" fill="#C0EB13"/>
</svg>
