<svg width="24" height="24" viewBox="0 0 24 24" fill="none" xmlns="http://www.w3.org/2000/svg">
<path d="M9.405 16.3049H10.47L17.31 9.4649L16.245 8.3999L9.945 14.7149L7.065 11.8349L6 12.8999L9.405 16.3049Z" fill="black"/>
<path fill-rule="evenodd" clip-rule="evenodd" d="M12.9009 1.50004C15.3009 1.65004 17.5509 2.85004 19.2009 4.50004C21.1509 6.60004 22.2009 9.15004 22.2009 12.15C22.2009 14.55 21.3009 16.8 19.8009 18.75C18.3009 20.55 16.2009 21.9 13.8009 22.35C11.4009 22.8 9.00091 22.5 6.90091 21.3C4.80091 20.1 3.15091 18.3 2.25091 16.05C1.35091 13.8 1.20091 11.25 1.95091 9.00004C2.70091 6.60004 4.05091 4.65004 6.15091 3.30004C8.10091 1.95004 10.5009 1.35004 12.9009 1.50004ZM13.6509 20.85C15.6009 20.4 17.4009 19.35 18.7509 17.7C19.9509 16.05 20.7009 14.1 20.5509 12C20.5509 9.60004 19.6509 7.20004 18.0009 5.55004C16.5009 4.05004 14.7009 3.15004 12.6009 3.00004C10.6509 2.85004 8.55091 3.30004 6.90091 4.50004C5.25091 5.70004 4.05091 7.35004 3.45091 9.45004C2.85091 11.4 2.85091 13.5 3.75091 15.45C4.65091 17.4 6.00091 18.9 7.80091 19.95C9.60091 21 11.7009 21.3 13.6509 20.85V20.85Z" fill="black"/>
</svg>
