<svg width="21" height="18" viewBox="0 0 21 18" fill="none" xmlns="http://www.w3.org/2000/svg">
<path d="M-0.000184248 8.19655C0.187291 7.82231 0.505232 7.61817 0.878539 7.47149C7.02138 5.05145 13.162 2.62806 19.3049 0.208576C19.4951 0.133838 19.6924 0.0702556 19.892 0.0295404C20.5744 -0.109337 21.0272 0.246502 20.9982 0.953161C20.9779 1.44899 20.8863 1.94594 20.7866 2.43396C19.921 6.65774 19.0467 10.8793 18.1734 15.1014C18.043 15.7333 17.9257 16.3697 17.7656 16.9944C17.5069 18.0017 16.8858 18.2699 16.0131 17.7189C15.4402 17.3575 14.9189 16.9113 14.3773 16.498C13.3764 15.7344 12.3781 14.9675 11.3783 14.2023C11.3295 14.1649 11.2785 14.1298 11.2193 14.0869C10.6821 14.6067 10.1471 15.1237 9.61314 15.6407C9.25135 15.991 8.89394 16.3452 8.52886 16.6915C8.17254 17.0295 7.73565 17.0105 7.45937 16.6352C7.38865 16.5393 7.33932 16.3937 7.34754 16.2766C7.4336 15.0696 7.53118 13.8638 7.63478 12.6579C7.64191 12.5754 7.70988 12.4834 7.77402 12.4237C9.35495 10.9557 10.9392 9.49163 12.5223 8.02588C14.1915 6.48094 15.8601 4.93544 17.5293 3.39049C17.5343 3.38603 17.5408 3.38213 17.5441 3.37599C17.6121 3.24938 17.6795 3.12278 17.747 2.99617C17.5989 2.98334 17.4416 2.93259 17.3057 2.96772C17.1319 3.01234 16.9674 3.11441 16.8123 3.21257C13.0327 5.59803 9.25464 7.98573 5.47882 10.3773C5.34561 10.4615 5.23707 10.4827 5.08413 10.4325C3.61009 9.94619 2.13441 9.46765 0.657076 8.99078C0.363803 8.89596 0.12754 8.74202 -0.000732422 8.44642C-0.000184248 8.36332 -0.000184248 8.27966 -0.000184248 8.19655Z" fill="white"/>
</svg>
