<svg width="22" height="18" viewBox="0 0 22 18" fill="none" xmlns="http://www.w3.org/2000/svg">
<path d="M1.38315 0.863247C3.85581 3.73694 6.94994 5.32297 10.7555 5.59365C10.7555 4.92421 10.6572 4.27761 10.7744 3.67255C11.1085 1.94322 12.1715 0.770481 13.8545 0.236034C15.5125 -0.290797 17.0247 0.0747311 18.3235 1.22808C18.5146 1.39769 18.6757 1.45446 18.9059 1.37208C19.7324 1.07716 20.5597 0.784327 21.4043 0.485258C21.0814 1.43231 20.4508 2.18759 19.595 2.78019C19.6131 2.81342 19.6306 2.84665 19.6487 2.87988C20.4222 2.66874 21.1965 2.45759 22 2.23813C21.4643 3.03357 20.824 3.70786 20.0735 4.27415C19.8635 4.43269 19.7966 4.58914 19.8008 4.84944C19.8942 10.3518 16.2484 16.293 9.81598 17.672C6.47912 18.3871 3.30338 17.9413 0.32434 16.2514C0.215529 16.1898 0.110206 16.122 0 16.0126C2.39453 16.1594 4.56517 15.5938 6.54608 14.0977C4.45217 13.8887 3.0746 12.8599 2.31223 10.9243C2.97765 10.9243 3.59145 10.9243 4.20526 10.9243C4.20944 10.8952 4.21293 10.8668 4.21711 10.8377C2.04439 10.1434 0.869091 8.68264 0.705875 6.41886C1.37199 6.60439 2.00602 6.78093 2.63936 6.95746C2.65819 6.92354 2.67772 6.89031 2.69655 6.85639C1.4808 5.92595 0.797248 4.72206 0.770045 3.19141C0.755398 2.37174 0.938841 1.59984 1.38315 0.863247Z" fill="white"/>
</svg>
