<svg width="18" height="18" viewBox="0 0 18 18" fill="none" xmlns="http://www.w3.org/2000/svg">
<g clip-path="url(#clip0_841_762)">
<path d="M17.0735 13.8222C17.0735 14.6232 17.0768 15.4082 17.0708 16.1931C17.0695 16.3548 17.0501 16.5208 17.0092 16.6773C16.8041 17.4629 16.0938 17.9987 15.2764 17.9987C12.2492 17.9984 9.22225 17.9991 6.19499 17.9987C4.7178 17.9987 3.24061 18.0023 1.76341 17.9951C0.799282 17.9905 0.00529046 17.1889 0.00496073 16.2344C0.00397154 12.9623 0.0102364 9.69022 1.47686e-05 6.41782C-0.00196362 5.74056 0.194556 5.17754 0.751801 4.76444C1.16232 4.46001 1.64042 4.41844 2.12876 4.43055C2.30285 4.43481 2.45453 4.40764 2.6095 4.31173C4.37027 3.22169 6.13531 2.13919 7.89937 1.05439C8.37979 0.758802 8.85889 0.460597 9.34096 0.167956C9.86754 -0.151853 10.4749 -0.00520542 10.7984 0.513953C11.11 1.01413 11.4262 1.51168 11.7325 2.01513C11.7965 2.1202 11.8538 2.14017 11.9689 2.09827C12.2983 1.97814 12.6313 1.8675 12.965 1.7598C13.4257 1.61119 13.9285 1.75817 14.1514 2.15228C14.3021 2.41939 14.3875 2.72414 14.4907 3.0158C14.6437 3.4469 14.7891 3.88095 14.9322 4.31533C14.9675 4.4227 15.0374 4.43252 15.1333 4.43121C15.6876 4.4227 16.1852 4.56607 16.5762 4.98081C16.8931 5.31699 17.0682 5.7147 17.0722 6.17592C17.0784 6.92847 17.0758 7.68135 17.0715 8.4339C17.0708 8.55632 17.089 8.62081 17.2324 8.65944C17.6864 8.78186 17.9901 9.17696 17.9937 9.65324C18.002 10.7004 18.0007 11.7475 17.9941 12.7944C17.9911 13.2392 17.6785 13.6327 17.2459 13.7711C17.1942 13.7882 17.1417 13.8022 17.0735 13.8222ZM16.2261 13.8281C16.1087 13.8203 16.0107 13.8081 15.9131 13.8085C14.8636 13.8101 13.8141 13.816 12.7649 13.8153C12.5848 13.8153 12.4025 13.8029 12.2248 13.7751C10.8251 13.5567 9.82467 12.1168 10.1115 10.7393C10.378 9.45945 11.4235 8.61197 12.7405 8.61099C13.8451 8.61001 14.9497 8.61099 16.0543 8.61066C16.1074 8.61066 16.1601 8.60575 16.228 8.60248C16.228 8.52948 16.228 8.47056 16.228 8.41197C16.228 7.69182 16.2284 6.97168 16.2277 6.25154C16.2271 5.66396 15.8291 5.26756 15.2329 5.26756C10.7651 5.26658 6.29754 5.26658 1.82969 5.26723C1.26123 5.26723 0.852039 5.67346 0.851709 6.2355C0.85105 9.55798 0.85105 12.8801 0.852039 16.2026C0.852039 16.2782 0.857315 16.3558 0.87545 16.4288C0.995472 16.91 1.34729 17.1604 1.90322 17.1604C5.46959 17.1607 9.03628 17.1607 12.6027 17.1604C13.4979 17.1604 14.3934 17.162 15.2886 17.1565C15.8254 17.1532 16.2234 16.7525 16.2261 16.2213C16.2287 15.7031 16.2261 15.1849 16.2257 14.6664C16.2261 14.3947 16.2261 14.1227 16.2261 13.8281ZM14.6852 12.9695C14.6852 12.9721 14.6852 12.9747 14.6852 12.9774C15.4212 12.9774 16.1568 12.9803 16.8928 12.9754C17.089 12.9741 17.151 12.8981 17.151 12.6994C17.1516 11.7286 17.1516 10.7577 17.1513 9.78679C17.1513 9.50331 17.0998 9.45029 16.8173 9.45029C15.4548 9.4493 14.092 9.46043 12.7296 9.4457C11.868 9.43654 11.0608 10.0634 10.9256 10.9826C10.7852 11.9371 11.5366 12.9168 12.5103 12.9626C13.2338 12.9967 13.9602 12.9695 14.6852 12.9695ZM4.08406 4.38964C4.08901 4.4024 4.09428 4.41484 4.09923 4.42761C4.40588 4.42761 4.71253 4.42826 5.01918 4.42663C5.05116 4.42663 5.0838 4.41648 5.1148 4.406C5.6183 4.2371 6.12147 4.06721 6.62463 3.89765C7.66757 3.54641 8.71084 3.19583 9.75378 2.84395C10.162 2.70614 10.5699 2.56669 10.9959 2.42168C10.6889 1.92936 10.3935 1.45276 10.0944 0.978773C9.9902 0.813467 9.91238 0.800701 9.74026 0.906431C8.12722 1.89859 6.51417 2.89076 4.90146 3.88357C4.62844 4.0515 4.35642 4.22106 4.08406 4.38964ZM7.81101 4.38604C7.81364 4.39749 7.81628 4.40862 7.81859 4.42008C9.8982 4.42008 11.9778 4.42008 14.0597 4.42008C14.0597 4.39389 14.064 4.37687 14.0591 4.3628C13.8708 3.80697 13.6832 3.25083 13.4909 2.69632C13.4395 2.54738 13.3571 2.51759 13.1912 2.57324C11.5765 3.11498 9.96184 3.65673 8.34748 4.19945C8.16843 4.25968 7.99005 4.32384 7.81101 4.38604Z" fill="white"/>
<path d="M11.8311 11.2079C11.8327 10.5676 12.3527 10.057 12.9986 10.0616C13.6442 10.0661 14.1487 10.5882 14.1448 11.2482C14.1412 11.8596 13.6119 12.3703 12.9841 12.3686C12.3402 12.3667 11.8294 11.8527 11.8311 11.2079ZM12.9897 10.8992C12.8199 10.8979 12.6636 11.055 12.6659 11.2249C12.6679 11.3883 12.8189 11.5277 12.9917 11.5264C13.1668 11.5251 13.3026 11.3876 13.3013 11.2138C13.2994 11.0416 13.1599 10.9005 12.9897 10.8992Z" fill="white"/>
</g>
<defs>
<clipPath id="clip0_841_762">
<rect width="18" height="18" fill="white"/>
</clipPath>
</defs>
</svg>
