<svg width="62" height="63" viewBox="0 0 62 63" fill="none" xmlns="http://www.w3.org/2000/svg">
<g clip-path="url(#clip0_410_230)">
<path d="M58.8086 48.3786C58.8086 51.1821 58.82 53.9294 58.7995 56.6768C58.795 57.2428 58.728 57.8236 58.5871 58.3713C57.8807 61.1209 55.4343 62.9964 52.6188 62.9964C42.1916 62.9952 31.7655 62.9975 21.3383 62.9964C16.2502 62.9964 11.1621 63.009 6.07398 62.9838C2.75308 62.9677 0.0182227 60.162 0.017087 56.8211C0.0136797 45.3689 0.0352588 33.9166 5.08695e-05 22.4632C-0.00676356 20.0928 0.670137 18.1222 2.58954 16.6764C4.00353 15.6109 5.65035 15.4654 7.33238 15.5078C7.93205 15.5227 8.45449 15.4276 8.98829 15.0919C15.0531 11.2768 21.1327 7.48801 27.209 3.69121C28.8637 2.65666 30.514 1.61294 32.1744 0.588702C33.9882 -0.530631 36.0802 -0.0173645 37.1944 1.79969C38.2676 3.55029 39.3568 5.29173 40.4119 7.05379C40.6323 7.42156 40.8299 7.49145 41.2262 7.3448C42.3608 6.92433 43.5079 6.53709 44.6573 6.16016C46.2439 5.64002 47.9759 6.15443 48.7437 7.53384C49.2627 8.46871 49.5569 9.53535 49.9124 10.5561C50.4394 12.065 50.9402 13.5842 51.4331 15.1045C51.5547 15.4803 51.7954 15.5147 52.1259 15.5101C54.0351 15.4803 55.7489 15.9821 57.0959 17.4337C58.1874 18.6103 58.7904 20.0023 58.8041 21.6166C58.8257 24.2505 58.8166 26.8856 58.8018 29.5195C58.7995 29.948 58.862 30.1737 59.356 30.3089C60.92 30.7374 61.966 32.1202 61.9785 33.7872C62.0069 37.4522 62.0023 41.1173 61.9796 44.7812C61.9694 46.3381 60.8927 47.7153 59.4026 48.1999C59.2243 48.2595 59.0437 48.3087 58.8086 48.3786ZM55.8898 48.3992C55.4855 48.3717 55.1481 48.3293 54.812 48.3305C51.1969 48.3362 47.5818 48.3568 43.9679 48.3545C43.3478 48.3545 42.7197 48.311 42.1076 48.2136C37.2864 47.4495 33.8405 42.4096 34.8286 37.5886C35.7463 33.1089 39.3477 30.1428 43.8839 30.1393C47.6886 30.1359 51.4933 30.1393 55.2981 30.1382C55.4809 30.1382 55.6626 30.121 55.8966 30.1095C55.8966 29.854 55.8966 29.6478 55.8966 29.4427C55.8966 26.9222 55.8977 24.4017 55.8955 21.8812C55.8932 19.8247 54.5223 18.4373 52.4689 18.4373C37.0797 18.4339 21.6915 18.4339 6.30227 18.4362C4.34425 18.4362 2.9348 19.858 2.93367 21.8251C2.93139 33.4538 2.93139 45.0813 2.9348 56.71C2.9348 56.9747 2.95297 57.2462 3.01544 57.5017C3.42885 59.1858 4.64068 60.0623 6.55554 60.0623C18.8397 60.0634 31.125 60.0634 43.4091 60.0623C46.4927 60.0623 49.5773 60.068 52.6609 60.0485C54.5098 60.0371 55.8807 58.6348 55.8898 56.7753C55.8989 54.9617 55.8898 53.1481 55.8886 51.3333C55.8898 50.3824 55.8898 49.4303 55.8898 48.3992ZM50.5825 45.3941C50.5825 45.4033 50.5825 45.4124 50.5825 45.4216C53.1174 45.4216 55.6513 45.4319 58.1862 45.4147C58.862 45.4101 59.0755 45.1443 59.0755 44.4489C59.0778 41.0508 59.0778 37.6527 59.0766 34.2546C59.0766 33.2625 58.8995 33.0769 57.9262 33.0769C53.2333 33.0734 48.5393 33.1124 43.8464 33.0608C40.8787 33.0287 38.0984 35.2227 37.6328 38.4398C37.1489 41.7806 39.7373 45.2096 43.0911 45.37C45.5829 45.4892 48.085 45.3941 50.5825 45.3941ZM14.0673 15.3646C14.0844 15.4093 14.1025 15.4528 14.1196 15.4975C15.1758 15.4975 16.232 15.4998 17.2883 15.494C17.3984 15.494 17.5109 15.4585 17.6176 15.4219C19.3519 14.8307 21.085 14.2361 22.8182 13.6426C26.4105 12.4133 30.004 11.1863 33.5963 9.95467C35.0024 9.47233 36.4073 8.98427 37.8747 8.47673C36.8173 6.75363 35.7997 5.08551 34.7696 3.42656C34.4107 2.84799 34.1426 2.80331 33.5498 3.17336C27.9937 6.64593 22.4377 10.1185 16.8828 13.5934C15.9424 14.1811 15.0054 14.7746 14.0673 15.3646ZM26.9046 15.352C26.9137 15.3921 26.9227 15.431 26.9307 15.4711C34.0938 15.4711 41.2569 15.4711 48.428 15.4711C48.428 15.3795 48.4427 15.3199 48.4257 15.2706C47.7772 13.3253 47.131 11.3787 46.4688 9.43796C46.2916 8.91668 46.0077 8.81242 45.4364 9.00719C39.8747 10.9033 34.313 12.7994 28.7524 14.6989C28.1357 14.9097 27.5213 15.1343 26.9046 15.352Z" fill="black"/>
<path d="M40.7505 39.2282C40.7562 36.9873 42.5472 35.2 44.7722 35.216C46.9959 35.2321 48.7336 37.0595 48.72 39.3692C48.7075 41.5093 46.8846 43.2966 44.7222 43.2908C42.5041 43.284 40.7448 41.4852 40.7505 39.2282ZM44.7415 38.1479C44.1566 38.1433 43.6182 38.6932 43.6262 39.2878C43.633 39.8595 44.1532 40.3476 44.7483 40.343C45.3514 40.3384 45.8193 39.8572 45.8148 39.2489C45.808 38.6462 45.3275 38.1524 44.7415 38.1479Z" fill="black"/>
</g>
<defs>
<clipPath id="clip0_410_230">
<rect width="62" height="63" fill="white"/>
</clipPath>
</defs>
</svg>
