<svg width="18" height="18" viewBox="0 0 18 18" fill="none" xmlns="http://www.w3.org/2000/svg">
<g clip-path="url(#clip0_731_594)">
<path d="M17.0735 13.8225C17.0735 14.6235 17.0768 15.4084 17.0708 16.1934C17.0695 16.3551 17.0501 16.521 17.0092 16.6775C16.8041 17.4631 16.0938 17.999 15.2764 17.999C12.2492 17.9986 9.22225 17.9993 6.19499 17.999C4.7178 17.999 3.24061 18.0026 1.76341 17.9954C0.799282 17.9908 0.00529046 17.1891 0.00496073 16.2346C0.00397154 12.9625 0.0102364 9.69047 1.47686e-05 6.41807C-0.00196362 5.74081 0.194556 5.17778 0.751801 4.76468C1.16232 4.46026 1.64042 4.41869 2.12876 4.4308C2.30285 4.43505 2.45453 4.40788 2.6095 4.31197C4.37027 3.22194 6.13531 2.13943 7.89937 1.05463C8.37979 0.759046 8.85889 0.460841 9.34096 0.168201C9.86754 -0.151609 10.4749 -0.00496128 10.7984 0.514197C11.11 1.01437 11.4262 1.51192 11.7325 2.01537C11.7965 2.12045 11.8538 2.14041 11.9689 2.09851C12.2983 1.97838 12.6313 1.86774 12.965 1.76005C13.4257 1.61143 13.9285 1.75841 14.1514 2.15252C14.3021 2.41963 14.3875 2.72438 14.4907 3.01604C14.6437 3.44715 14.7891 3.8812 14.9322 4.31558C14.9675 4.42294 15.0374 4.43276 15.1333 4.43145C15.6876 4.42294 16.1852 4.56632 16.5762 4.98105C16.8931 5.31723 17.0682 5.71495 17.0722 6.17617C17.0784 6.92872 17.0758 7.68159 17.0715 8.43414C17.0708 8.55657 17.089 8.62105 17.2324 8.65968C17.6864 8.7821 17.9901 9.1772 17.9937 9.65348C18.002 10.7006 18.0007 11.7478 17.9941 12.7946C17.9911 13.2395 17.6785 13.6329 17.2459 13.7714C17.1942 13.7884 17.1417 13.8025 17.0735 13.8225ZM16.2261 13.8284C16.1087 13.8205 16.0107 13.8084 15.9131 13.8087C14.8636 13.8103 13.8141 13.8162 12.7649 13.8156C12.5848 13.8156 12.4025 13.8031 12.2248 13.7753C10.8251 13.557 9.82467 12.117 10.1115 10.7396C10.378 9.4597 11.4235 8.61222 12.7405 8.61123C13.8451 8.61025 14.9497 8.61123 16.0543 8.61091C16.1074 8.61091 16.1601 8.606 16.228 8.60272C16.228 8.52973 16.228 8.47081 16.228 8.41221C16.228 7.69207 16.2284 6.97193 16.2277 6.25178C16.2271 5.66421 15.8291 5.2678 15.2329 5.2678C10.7651 5.26682 6.29754 5.26682 1.82969 5.26748C1.26123 5.26748 0.852039 5.6737 0.851709 6.23574C0.85105 9.55822 0.85105 12.8804 0.852039 16.2029C0.852039 16.2785 0.857315 16.3561 0.87545 16.4291C0.995472 16.9102 1.34729 17.1607 1.90322 17.1607C5.46959 17.161 9.03628 17.161 12.6027 17.1607C13.4979 17.1607 14.3934 17.1623 15.2886 17.1567C15.8254 17.1535 16.2234 16.7528 16.2261 16.2215C16.2287 15.7033 16.2261 15.1852 16.2257 14.6667C16.2261 14.395 16.2261 14.123 16.2261 13.8284ZM14.6852 12.9697C14.6852 12.9724 14.6852 12.975 14.6852 12.9776C15.4212 12.9776 16.1568 12.9805 16.8928 12.9756C17.089 12.9743 17.151 12.8984 17.151 12.6997C17.1516 11.7288 17.1516 10.7579 17.1513 9.78703C17.1513 9.50356 17.0998 9.45053 16.8173 9.45053C15.4548 9.44955 14.092 9.46068 12.7296 9.44595C11.868 9.43678 11.0608 10.0636 10.9256 10.9828C10.7852 11.9373 11.5366 12.917 12.5103 12.9629C13.2338 12.9969 13.9602 12.9697 14.6852 12.9697ZM4.08406 4.38988C4.08901 4.40265 4.09428 4.41509 4.09923 4.42785C4.40588 4.42785 4.71253 4.42851 5.01918 4.42687C5.05116 4.42687 5.0838 4.41672 5.1148 4.40625C5.6183 4.23734 6.12147 4.06745 6.62463 3.89789C7.66757 3.54666 8.71084 3.19608 9.75378 2.84419C10.162 2.70638 10.5699 2.56693 10.9959 2.42192C10.6889 1.92961 10.3935 1.453 10.0944 0.979017C9.9902 0.813712 9.91238 0.800945 9.74026 0.906676C8.12722 1.89884 6.51417 2.891 4.90146 3.88382C4.62844 4.05174 4.35642 4.2213 4.08406 4.38988ZM7.81101 4.38628C7.81364 4.39774 7.81628 4.40887 7.81859 4.42032C9.8982 4.42032 11.9778 4.42032 14.0597 4.42032C14.0597 4.39414 14.064 4.37711 14.0591 4.36304C13.8708 3.80722 13.6832 3.25107 13.4909 2.69656C13.4395 2.54762 13.3571 2.51783 13.1912 2.57348C11.5765 3.11523 9.96184 3.65697 8.34748 4.1997C8.16843 4.25993 7.99005 4.32409 7.81101 4.38628Z" fill="black"/>
<path d="M11.8306 11.2081C11.8322 10.5679 12.3522 10.0572 12.9981 10.0618C13.6438 10.0664 14.1482 10.5885 14.1443 11.2484C14.1407 11.8599 13.6114 12.3705 12.9836 12.3689C12.3397 12.3669 11.8289 11.853 11.8306 11.2081ZM12.9892 10.8995C12.8194 10.8981 12.6631 11.0553 12.6654 11.2252C12.6674 11.3885 12.8184 11.5279 12.9912 11.5266C13.1663 11.5253 13.3022 11.3878 13.3008 11.214C13.2989 11.0418 13.1594 10.9008 12.9892 10.8995Z" fill="black"/>
</g>
<defs>
<clipPath id="clip0_731_594">
<rect width="18" height="18" fill="white"/>
</clipPath>
</defs>
</svg>
