<svg width="19" height="19" viewBox="0 0 19 19" fill="none" xmlns="http://www.w3.org/2000/svg">
<path fill-rule="evenodd" clip-rule="evenodd" d="M10.2454 0.353285C12.3339 0.562143 14.282 1.50042 15.7474 3.00322C17.3438 4.62494 18.2876 6.7774 18.3989 9.0503C18.5103 11.3232 17.7814 13.5576 16.3511 15.3276C15.0356 16.9627 13.1896 18.0861 11.1329 18.5032C9.07621 18.9203 6.93839 18.6048 5.08986 17.6113C3.23736 16.5964 1.79119 14.9741 0.994857 13.0176C0.194963 11.0511 0.0884952 8.87082 0.692982 6.83572C1.29617 4.80856 2.5803 3.05158 4.32861 1.86135C6.06222 0.678669 8.15714 0.144714 10.2454 0.353285ZM10.8649 17.2176C12.6273 16.8601 14.21 15.8994 15.3405 14.5007C16.5645 12.9795 17.1873 11.0616 17.0905 9.11147C16.9937 7.1613 16.1841 5.31457 14.8155 3.92197C13.5619 2.6423 11.8984 1.84392 10.1158 1.66638C8.33325 1.48884 6.54498 1.94344 5.06361 2.95072C3.94855 3.71905 3.04813 4.75935 2.44763 5.97305C1.84713 7.18676 1.56645 8.53368 1.63217 9.88622C1.69789 11.2388 2.10784 12.5521 2.82318 13.7019C3.53852 14.8516 4.53557 15.7997 5.71986 16.4563C7.29266 17.3052 9.11364 17.5746 10.8649 17.2176ZM8.67955 6.8751H10.3202V5.5626H8.67955V6.8751ZM10.3202 8.1876V13.4376H8.67955V8.1876H10.3202Z" fill="#F24E1E"/>
</svg>
