<svg width="14" height="22" viewBox="0 0 14 22" fill="none" xmlns="http://www.w3.org/2000/svg">
<path fill-rule="evenodd" clip-rule="evenodd" d="M7.00009 13.298H7.81309L13.6706 7.4405L12.0791 5.8505L8.12359 9.7655V0.5H5.87659V9.7655L1.92109 5.8505L0.32959 7.4405L6.18709 13.298H7.00009ZM9.93409 18.5195C9.93409 19.3151 9.61802 20.0782 9.05541 20.6408C8.4928 21.2034 7.72974 21.5195 6.93409 21.5195C6.13844 21.5195 5.37538 21.2034 4.81277 20.6408C4.25016 20.0782 3.93409 19.3151 3.93409 18.5195C3.93409 17.7239 4.25016 16.9608 4.81277 16.3982C5.37538 15.8356 6.13844 15.5195 6.93409 15.5195C7.72974 15.5195 8.4928 15.8356 9.05541 16.3982C9.61802 16.9608 9.93409 17.7239 9.93409 18.5195Z" fill="black"/>
</svg>
