<svg width="164" height="163" viewBox="0 0 164 163" fill="none" xmlns="http://www.w3.org/2000/svg">
<circle opacity="0.2" cx="81.5" cy="81.5" r="50" fill="#CCFF00"/>
<path d="M81.5 162.5C65.9915 162.5 51.5011 158.142 39.1866 150.583M148.221 35.5597C157.227 48.614 162.5 64.4412 162.5 81.5C162.5 107.567 150.186 130.759 131.059 145.575M127.44 14.7789C114.386 5.77339 98.5588 0.5 81.5 0.5C61.4549 0.5 43.1104 7.7813 28.9671 19.8433M14.7789 127.44C5.77339 114.386 0.5 98.5588 0.5 81.5C0.5 65.7371 5.00262 51.0258 12.7919 38.5821" stroke="#CCFF00"/>
<path d="M81.5 145.5C69.2464 145.5 57.7971 142.056 48.0672 136.084M81.5 17.5C94.9786 17.5 107.484 21.6666 117.799 28.7821M134.218 45.2015C141.333 55.516 145.5 68.0214 145.5 81.5C145.5 102.096 135.771 120.42 120.658 132.127M28.7821 117.799C21.6666 107.484 17.5 94.9786 17.5 81.5C17.5 69.0453 21.0576 57.4216 27.2121 47.5896" stroke="#CCFF00"/>
<circle cx="81.5" cy="81.5" r="25" stroke="#BDEC00" stroke-width="2" stroke-linecap="round" stroke-linejoin="round"/>
<path d="M71.6223 82.4418L77.6417 88.4612L77.6028 88.4224L91.1834 74.8418" stroke="#BDEC00" stroke-width="2" stroke-linecap="round" stroke-linejoin="round"/>
</svg>
